{
.appVersion = "1119";
DisplayStrings = (
n
);
copyright = "Copyright (c) 2010, Sebastian Kosch (sebastian@aldusleaf.org),\012with Reserved Font Name \"Crimson Text\".\012This Font Software is licensed under the SIL Open Font License, Version 1.1.\012This license is available with a FAQ at: http://scripts.sil.org/OFL";
customParameters = (
{
name = vendorID;
value = PfEd;
},
{
name = panose;
value = (
2,
0,
8,
3,
0,
0,
0,
0,
0,
0
);
},
{
name = unicodeRanges;
value = (
0,
1,
2,
3,
6,
7,
29,
31,
33,
37,
38,
60,
68
);
},
{
name = codePageRanges;
value = (
1252,
1250,
1254,
1257
);
},
{
name = glyphOrder;
value = (
A,
B,
C,
D,
E,
F,
G,
H,
I,
J,
K,
L,
M,
N,
O,
P,
Thorn,
Q,
R,
S,
T,
U,
V,
W,
X,
Y,
Z,
a,
b,
c,
d,
eth,
e,
f,
g,
h,
i,
j,
k,
l,
m,
n,
o,
p,
thorn,
q,
r,
s,
t,
u,
v,
w,
x,
y,
z
);
}
);
date = "2010-12-21 22:59:38 +0000";
disablesNiceNames = 1;
familyName = "Crimson Text";
fontMaster = (
{
ascender = 717;
capHeight = 179;
customParameters = (
{
name = typoAscender;
value = 717;
},
{
name = typoDescender;
value = -307;
},
{
name = typoLineGap;
value = 92;
},
{
name = winAscent;
value = 1106;
},
{
name = winDescent;
value = 739;
},
{
name = hheaAscender;
value = 1106;
},
{
name = hheaDescender;
value = -739;
},
{
name = "Prep Table Assembly";

glyphs = (
{
glyphname = A;
lastChange = "2018-03-09 10:42:30 +0000";
layers = (
{
background = {
paths = (
{
closed = 1;
nodes = (
"567 4 OFFCURVE",
"574 4 QCURVE SMOOTH",
"600 4 OFFCURVE",
"715 -4 OFFCURVE",
"719 -4 QCURVE",
"721 -1 OFFCURVE",
"721 33 OFFCURVE",
"717 33 QCURVE SMOOTH",
"703 33 OFFCURVE",
"649 50 OFFCURVE",
"643 66 QCURVE SMOOTH",
"629 102 OFFCURVE",
"610 148 QCURVE SMOOTH",
"405 655 LINE",
"396 668 OFFCURVE",
"381 668 QCURVE SMOOTH",
"355 668 OFFCURVE",
"344 642 QCURVE SMOOTH",
"123 134 LINE",
"118 122 LINE SMOOTH",
"113 111 OFFCURVE",
"96 76 OFFCURVE",
"88 64 QCURVE SMOOTH",
"81 53 OFFCURVE",
"25 32 OFFCURVE",
"13 32 QCURVE SMOOTH",
"11 32 OFFCURVE",
"11 11 QCURVE SMOOTH",
"11 0 OFFCURVE",
"15 -4 QCURVE",
"34 -3 OFFCURVE",
"104 4 OFFCURVE",
"154 4 OFFCURVE",
"233 -3 OFFCURVE",
"246 -4 QCURVE",
"248 2 OFFCURVE",
"248 32 OFFCURVE",
"245 33 QCURVE",
"235 33 OFFCURVE",
"208 36 OFFCURVE",
"172 54 OFFCURVE",
"172 86 OFFCURVE",
"192 131 QCURVE SMOOTH",
"225 207 OFFCURVE",
"225 207 QCURVE",
"228 212 OFFCURVE",
"232 212 QCURVE SMOOTH",
"267 213 OFFCURVE",
"333 213 QCURVE SMOOTH",
"410 213 OFFCURVE",
"429 212 QCURVE",
"432 212 OFFCURVE",
"436 208 QCURVE",
"466 135 LINE SMOOTH",
"491 70 OFFCURVE",
"491 68 QCURVE SMOOTH",
"491 52 OFFCURVE",
"445 33 OFFCURVE",
"423 33 QCURVE SMOOTH",
"419 33 OFFCURVE",
"419 0 OFFCURVE",
"423 -4 QCURVE"
);
},
{
closed = 1;
nodes = (
"335 459 LINE",
"407 280 LINE",
"404 275 LINE",
"373 273 OFFCURVE",
"333 273 QCURVE SMOOTH",
"289 273 OFFCURVE",
"259 276 QCURVE",
"257 276 OFFCURVE",
"257 280 QCURVE"
);
}
);
};
layerId = "6D340022-02C4-426D-A0D8-A7BFACBEB22E";
paths = (
{
closed = 1;
nodes = (
"519 1.333 OFFCURVE",
"569.333 4 OFFCURVE",
"574 4 CURVE SMOOTH",
"591.333 4 OFFCURVE",
"619.167 2.667 OFFCURVE",
"657.5 0 CURVE SMOOTH",
"695.833 -2.667 OFFCURVE",
"716.333 -4 OFFCURVE",
"719 -4 CURVE",
"720.333 -2 OFFCURVE",
"721 4.667 OFFCURVE",
"721 16 CURVE SMOOTH",
"721 27.333 OFFCURVE",
"719.667 33 OFFCURVE",
"717 33 CURVE SMOOTH",
"698.333 33 OFFCURVE",
"651 44.667 OFFCURVE",
"643 66 CURVE SMOOTH",
"633.667 90 OFFCURVE",
"622.667 117.333 OFFCURVE",
"610 148 CURVE SMOOTH",
"405 655 LINE",
"399 663.667 OFFCURVE",
"391 668 OFFCURVE",
"381 668 CURVE SMOOTH",
"363.667 668 OFFCURVE",
"351.333 659.333 OFFCURVE",
"344 642 CURVE SMOOTH",
"123 134 LINE",
"118 122 LINE SMOOTH",
"111.333 107.333 OFFCURVE",
"98.667 80 OFFCURVE",
"88 64 CURVE SMOOTH",
"78.667 49.333 OFFCURVE",
"29 32 OFFCURVE",
"13 32 CURVE SMOOTH",
"11.667 32 OFFCURVE",
"11 25 OFFCURVE",
"11 11 CURVE SMOOTH",
"11 3.667 OFFCURVE",
"12.333 -1.333 OFFCURVE",
"15 -4 CURVE",
"175.506 4.448 OFFCURVE",
"76.096 9.07 OFFCURVE",
"246 -4 CURVE",
"247.333 0 OFFCURVE",
"248 7 OFFCURVE",
"248 17 CURVE SMOOTH",
"248 27 OFFCURVE",
"247 32.333 OFFCURVE",
"245 33 CURVE",
"178.005 33 OFFCURVE",
"156.131 50.296 OFFCURVE",
"192 131 CURVE SMOOTH",
"214 181.667 OFFCURVE",
"225 207 OFFCURVE",
"225 207 CURVE",
"227 210.333 OFFCURVE",
"229.333 212 OFFCURVE",
"232 212 CURVE SMOOTH",
"255.333 212.667 OFFCURVE",
"289 213 OFFCURVE",
"333 213 CURVE SMOOTH",
"384.333 213 OFFCURVE",
"416.333 212.667 OFFCURVE",
"429 212 CURVE",
"431 212 OFFCURVE",
"433.333 210.667 OFFCURVE",
"436 208 CURVE",
"466 135 LINE SMOOTH",
"482.667 91.667 OFFCURVE",
"491 69.333 OFFCURVE",
"491 68 CURVE SMOOTH",
"491 46.667 OFFCURVE",
"452.333 33 OFFCURVE",
"423 33 CURVE SMOOTH",
"420.333 33 OFFCURVE",
"419 27.5 OFFCURVE",
"419 16.5 CURVE SMOOTH",
"419 5.5 OFFCURVE",
"420.333 -1.333 OFFCURVE",
"423 -4 CURVE"
);
},
{
closed = 1;
nodes = (
"335 459 LINE",
"407 280 LINE",
"404 275 LINE",
"383.333 273.667 OFFCURVE",
"359.667 273 OFFCURVE",
"333 273 CURVE SMOOTH",
"303.667 273 OFFCURVE",
"279 274 OFFCURVE",
"259 276 CURVE",
"257.667 276 OFFCURVE",
"257 277.333 OFFCURVE",
"257 280 CURVE"
);
}
);
width = 720;
}
);
note = A;
unicode = 0041;
},
{
glyphname = B;
lastChange = "2018-03-09 10:42:30 +0000";
layers = (
{
background = {
paths = (
{
closed = 1;
nodes = (
"260 55 OFFCURVE",
"250 62 QCURVE SMOOTH",
"243 67 OFFCURVE",
"243 76 QCURVE SMOOTH",
"243 301 LINE SMOOTH",
"243 306 OFFCURVE",
"254 310 QCURVE",
"272 315 OFFCURVE",
"305 315 QCURVE SMOOTH",
"428 315 OFFCURVE",
"428 176 QCURVE SMOOTH",
"428 55 OFFCURVE",
"325 55 QCURVE SMOOTH"
);
},
{
closed = 1;
nodes = (
"94 47 OFFCURVE",
"43 33 OFFCURVE",
"31 33 QCURVE SMOOTH",
"27 33 OFFCURVE",
"27 13 QCURVE SMOOTH",
"27 0 OFFCURVE",
"31 -4 QCURVE",
"52 -2 LINE",
"74 -1 OFFCURVE",
"147 2 OFFCURVE",
"177 2 QCURVE SMOOTH",
"324 0 LINE SMOOTH",
"438 -2 OFFCURVE",
"578 101 OFFCURVE",
"578 187 QCURVE SMOOTH",
"578 255 OFFCURVE",
"502 342 OFFCURVE",
"467 348 QCURVE",
"464 351 OFFCURVE",
"472 354 QCURVE SMOOTH",
"495 363 OFFCURVE",
"555 431 OFFCURVE",
"555 483 QCURVE SMOOTH",
"555 530 OFFCURVE",
"511 602 OFFCURVE",
"440 642 OFFCURVE",
"364 661 OFFCURVE",
"327 661 QCURVE SMOOTH",
"209 659 OFFCURVE",
"176 659 QCURVE SMOOTH",
"109 659 OFFCURVE",
"29 664 QCURVE",
"26 661 OFFCURVE",
"26 645 QCURVE SMOOTH",
"26 627 OFFCURVE",
"30 627 QCURVE SMOOTH",
"41 627 OFFCURVE",
"94 607 OFFCURVE",
"97 599 QCURVE",
"103 576 OFFCURVE",
"103 521 QCURVE SMOOTH",
"103 143 LINE SMOOTH",
"103 78 OFFCURVE",
"97 55 QCURVE"
);
},
{
closed = 1;
nodes = (
"243 371 OFFCURVE",
"243 385 QCURVE SMOOTH",
"243 499 LINE",
"243 590 LINE SMOOTH",
"243 600 OFFCURVE",
"252 602 QCURVE",
"266 606 OFFCURVE",
"310 606 QCURVE SMOOTH",
"402 606 OFFCURVE",
"402 482 QCURVE SMOOTH",
"402 447 OFFCURVE",
"383 402 OFFCURVE",
"367 388 OFFCURVE",
"352 380 QCURVE SMOOTH",
"334 371 OFFCURVE",
"295 371 QCURVE SMOOTH"
);
}
);
};
layerId = "6D340022-02C4-426D-A0D8-A7BFACBEB22E";
paths = (
{
closed = 1;
nodes = (
"281.667 55 OFFCURVE",
"256.667 57.333 OFFCURVE",
"250 62 CURVE SMOOTH",
"245.333 65.333 OFFCURVE",
"243 70 OFFCURVE",
"243 76 CURVE SMOOTH",
"243 301 LINE SMOOTH",
"243 304.333 OFFCURVE",
"246.667 307.333 OFFCURVE",
"254 310 CURVE",
"266 313.333 OFFCURVE",
"283 315 OFFCURVE",
"305 315 CURVE SMOOTH",
"387 315 OFFCURVE",
"428 268.667 OFFCURVE",
"428 176 CURVE SMOOTH",
"428 95.333 OFFCURVE",
"393.667 55 OFFCURVE",
"325 55 CURVE SMOOTH"
);
},
{
closed = 1;
nodes = (
"93 44.333 OFFCURVE",
"47 33 OFFCURVE",
"31 33 CURVE SMOOTH",
"28.333 33 OFFCURVE",
"27 26.333 OFFCURVE",
"27 13 CURVE SMOOTH",
"27 4.333 OFFCURVE",
"28.333 -1.333 OFFCURVE",
"31 -4 CURVE",
"52 -2 LINE",
"81.333 -0.667 OFFCURVE",
"137 2 OFFCURVE",
"177 2 CURVE SMOOTH",
"324 0 LINE SMOOTH",
"476 -2.667 OFFCURVE",
"578 72.333 OFFCURVE",
"578 187 CURVE SMOOTH",
"578 277.667 OFFCURVE",
"513.667 340 OFFCURVE",
"467 348 CURVE",
"465 350 OFFCURVE",
"466.667 352 OFFCURVE",
"472 354 CURVE SMOOTH",
"502.667 366 OFFCURVE",
"555 413.667 OFFCURVE",
"555 483 CURVE SMOOTH",
"555 605.688 OFFCURVE",
"436.013 661 OFFCURVE",
"327 661 CURVE SMOOTH",
"248.333 659.667 OFFCURVE",
"198 659 OFFCURVE",
"176 659 CURVE SMOOTH",
"131.333 659 OFFCURVE",
"82.333 660.667 OFFCURVE",
"29 664 CURVE",
"27 662 OFFCURVE",
"26 655.667 OFFCURVE",
"26 645 CURVE SMOOTH",
"26 633 OFFCURVE",
"27.333 627 OFFCURVE",
"30 627 CURVE SMOOTH",
"44.667 627 OFFCURVE",
"93 609.667 OFFCURVE",
"97 599 CURVE",
"101 583.667 OFFCURVE",
"103 557.667 OFFCURVE",
"103 521 CURVE SMOOTH",
"103 143 LINE SMOOTH",
"103 99.667 OFFCURVE",
"101 70.333 OFFCURVE",
"97 55 CURVE"
);
},
{
closed = 1;
nodes = (
"260.333 371 OFFCURVE",
"243 375.667 OFFCURVE",
"243 385 CURVE SMOOTH",
"243 499 LINE",
"243 590 LINE SMOOTH",
"243 596.667 OFFCURVE",
"246 600.667 OFFCURVE",
"252 602 CURVE",
"261.333 604.667 OFFCURVE",
"280.667 606 OFFCURVE",
"310 606 CURVE SMOOTH",
"371.333 606 OFFCURVE",
"402 564.667 OFFCURVE",
"402 482 CURVE SMOOTH",
"402 420.786 OFFCURVE",
"382.485 396.258 OFFCURVE",
"352 380 CURVE SMOOTH",
"340 374 OFFCURVE",
"321 371 OFFCURVE",
"295 371 CURVE SMOOTH"
);
}
);
width = 605;
}
);
note = B;
unicode = 0042;
},
{
glyphname = C;
lastChange = "2018-03-09 10:42:30 +0000";
layers = (
{
background = {
paths = (
{
closed = 1;
nodes = (
"565 190 OFFCURVE",
"554 159 OFFCURVE",
"533 114 OFFCURVE",
"520 101 QCURVE SMOOTH",
"466 47 OFFCURVE",
"392 47 QCURVE SMOOTH",
"291 47 OFFCURVE",
"181 218 OFFCURVE",
"181 343 QCURVE SMOOTH",
"181 611 OFFCURVE",
"360 611 QCURVE SMOOTH",
"409 611 OFFCURVE",
"488 582 OFFCURVE",
"533 536 OFFCURVE",
"556 496 OFFCURVE",
"561 478 QCURVE",
"576 475 OFFCURVE",
"577 475 QCURVE SMOOTH",
"604 475 OFFCURVE",
"604 505 OFFCURVE",
"589 637 OFFCURVE",
"584 638 QCURVE",
"464 667 OFFCURVE",
"355 667 QCURVE SMOOTH",
"214 667 OFFCURVE",
"25 464 OFFCURVE",
"25 322 QCURVE SMOOTH",
"25 188 OFFCURVE",
"213 -7 OFFCURVE",
"345 -7 QCURVE SMOOTH",
"458 -7 OFFCURVE",
"570 34 QCURVE SMOOTH",
"580 38 OFFCURVE",
"611 166 OFFCURVE",
"611 180 QCURVE",
"607 190 OFFCURVE",
"566 190 QCURVE SMOOTH"
);
}
);
};
layerId = "6D340022-02C4-426D-A0D8-A7BFACBEB22E";
paths = (
{
closed = 1;
nodes = (
"564.832 190 OFFCURVE",
"530.62 111.62 OFFCURVE",
"520 101 CURVE SMOOTH",
"484 65 OFFCURVE",
"441.333 47 OFFCURVE",
"392 47 CURVE SMOOTH",
"257.333 47 OFFCURVE",
"181 176.333 OFFCURVE",
"181 343 CURVE SMOOTH",
"181 521.667 OFFCURVE",
"240.667 611 OFFCURVE",
"360 611 CURVE SMOOTH",
"480.904 611 OFFCURVE",
"543.285 541.773 OFFCURVE",
"561 478 CURVE",
"571 476 OFFCURVE",
"576.333 475 OFFCURVE",
"577 475 CURVE SMOOTH",
"651.119 475 OFFCURVE",
"632.044 628.391 OFFCURVE",
"584 638 CURVE",
"504 657.333 OFFCURVE",
"427.667 667 OFFCURVE",
"355 667 CURVE SMOOTH",
"167 667 OFFCURVE",
"25 511.333 OFFCURVE",
"25 322 CURVE SMOOTH",
"25 143.333 OFFCURVE",
"169 -7 OFFCURVE",
"345 -7 CURVE SMOOTH",
"420.333 -7 OFFCURVE",
"495.333 6.667 OFFCURVE",
"570 34 CURVE SMOOTH",
"583.333 39.333 OFFCURVE",
"611 161.333 OFFCURVE",
"611 180 CURVE",
"608.333 186.667 OFFCURVE",
"593.333 190 OFFCURVE",
"566 190 CURVE SMOOTH"
);
}
);
width = 638;
}
);
note = C;
unicode = 0043;
},
{
glyphname = D;
lastChange = "2018-03-09 10:42:30 +0000";
layers = (
{
background = {
paths = (
{
closed = 1;
nodes = (
"26 661 OFFCURVE",
"26 645 QCURVE SMOOTH",
"26 627 OFFCURVE",
"30 627 QCURVE SMOOTH",
"41 627 OFFCURVE",
"94 607 OFFCURVE",
"97 599 QCURVE",
"103 576 OFFCURVE",
"103 521 QCURVE SMOOTH",
"103 143 LINE SMOOTH",
"103 78 OFFCURVE",
"97 55 QCURVE",
"94 47 OFFCURVE",
"43 33 OFFCURVE",
"31 33 QCURVE SMOOTH",
"27 33 OFFCURVE",
"27 13 QCURVE SMOOTH",
"27 0 OFFCURVE",
"31 -4 QCURVE",
"177 2 LINE",
"212 2 OFFCURVE",
"330 -3 OFFCURVE",
"349 -3 QCURVE SMOOTH",
"511 -3 OFFCURVE",
"697 192 OFFCURVE",
"697 336 QCURVE SMOOTH",
"697 466 OFFCURVE",
"513 659 OFFCURVE",
"350 659 QCURVE SMOOTH",
"176 659 OFFCURVE",
"176 659 QCURVE SMOOTH",
"109 659 OFFCURVE",
"29 664 QCURVE"
);
},
{
closed = 1;
nodes = (
"268 603 OFFCURVE",
"353 603 QCURVE SMOOTH",
"358 603 LINE SMOOTH",
"444 603 OFFCURVE",
"541 450 OFFCURVE",
"541 340 QCURVE SMOOTH",
"541 197 OFFCURVE",
"449 53 OFFCURVE",
"365 53 QCURVE SMOOTH",
"274 53 OFFCURVE",
"252 66 QCURVE SMOOTH",
"243 71 OFFCURVE",
"243 136 QCURVE SMOOTH",
"243 524 LINE SMOOTH",
"243 569 OFFCURVE",
"256 587 QCURVE SMOOTH"
);
}
);
};
layerId = "6D340022-02C4-426D-A0D8-A7BFACBEB22E";
paths = (
{
closed = 1;
nodes = (
"27 662 OFFCURVE",
"26 655.667 OFFCURVE",
"26 645 CURVE SMOOTH",
"26 633 OFFCURVE",
"27.333 627 OFFCURVE",
"30 627 CURVE SMOOTH",
"44.667 627 OFFCURVE",
"93 609.667 OFFCURVE",
"97 599 CURVE",
"101 583.667 OFFCURVE",
"103 557.667 OFFCURVE",
"103 521 CURVE SMOOTH",
"103 143 LINE SMOOTH",
"103 99.667 OFFCURVE",
"101 70.333 OFFCURVE",
"97 55 CURVE",
"93 44.333 OFFCURVE",
"47 33 OFFCURVE",
"31 33 CURVE SMOOTH",
"28.333 33 OFFCURVE",
"27 26.333 OFFCURVE",
"27 13 CURVE SMOOTH",
"27 4.333 OFFCURVE",
"28.333 -1.333 OFFCURVE",
"31 -4 CURVE",
"177 2 LINE",
"200.333 2 OFFCURVE",
"231.667 1.167 OFFCURVE",
"271 -0.5 CURVE SMOOTH",
"310.333 -2.167 OFFCURVE",
"336.333 -3 OFFCURVE",
"349 -3 CURVE SMOOTH",
"565 -3 OFFCURVE",
"697 144 OFFCURVE",
"697 336 CURVE SMOOTH",
"697 509.333 OFFCURVE",
"567.333 659 OFFCURVE",
"350 659 CURVE SMOOTH",
"234 659 OFFCURVE",
"176 659 OFFCURVE",
"176 659 CURVE SMOOTH",
"131.333 659 OFFCURVE",
"82.333 660.667 OFFCURVE",
"29 664 CURVE"
);
},
{
closed = 1;
nodes = (
"264 597.667 OFFCURVE",
"296.333 603 OFFCURVE",
"353 603 CURVE SMOOTH",
"358 603 LINE SMOOTH",
"472.667 603 OFFCURVE",
"541 486.667 OFFCURVE",
"541 340 CURVE SMOOTH",
"541 149.333 OFFCURVE",
"477 53 OFFCURVE",
"365 53 CURVE SMOOTH",
"304.333 53 OFFCURVE",
"266.667 57.333 OFFCURVE",
"252 66 CURVE SMOOTH",
"246 69.333 OFFCURVE",
"243 92.667 OFFCURVE",
"243 136 CURVE SMOOTH",
"243 524 LINE SMOOTH",
"243 554 OFFCURVE",
"247.333 575 OFFCURVE",
"256 587 CURVE SMOOTH"
);
}
);
width = 724;
}
);
note = D;
unicode = 0044;
},
{
glyphname = E;
lastChange = "2018-03-09 10:42:30 +0000";
layers = (
{
background = {
paths = (
{
closed = 1;
nodes = (
"26 661 OFFCURVE",
"26 645 QCURVE SMOOTH",
"26 627 OFFCURVE",
"30 627 QCURVE SMOOTH",
"41 627 OFFCURVE",
"94 607 OFFCURVE",
"97 599 QCURVE",
"103 576 OFFCURVE",
"103 521 QCURVE SMOOTH",
"103 143 LINE SMOOTH",
"103 78 OFFCURVE",
"97 55 QCURVE",
"94 47 OFFCURVE",
"43 33 OFFCURVE",
"31 33 QCURVE SMOOTH",
"27 33 OFFCURVE",
"27 13 QCURVE SMOOTH",
"27 0 OFFCURVE",
"31 -4 QCURVE",
"177 2 LINE",
"246 2 OFFCURVE",
"468 -2 OFFCURVE",
"519 -2 QCURVE",
"524 32 OFFCURVE",
"573 170 QCURVE",
"567 176 OFFCURVE",
"543 176 QCURVE SMOOTH",
"530 176 OFFCURVE",
"529 170 QCURVE",
"517 139 OFFCURVE",
"474 89 OFFCURVE",
"457 80 QCURVE SMOOTH",
"407 54 OFFCURVE",
"345 54 QCURVE SMOOTH",
"319 54 LINE SMOOTH",
"256 54 OFFCURVE",
"251 70 QCURVE SMOOTH",
"243 93 OFFCURVE",
"243 141 QCURVE SMOOTH",
"243 295 LINE SMOOTH",
"243 304 OFFCURVE",
"315 304 QCURVE SMOOTH",
"380 304 OFFCURVE",
"393 296 QCURVE",
"394 295 OFFCURVE",
"400 292 OFFCURVE",
"402 290 OFFCURVE",
"407 282 OFFCURVE",
"411 272 OFFCURVE",
"417 252 OFFCURVE",
"421 238 QCURVE",
"424 230 OFFCURVE",
"437 230 QCURVE SMOOTH",
"454 230 OFFCURVE",
"458 234 QCURVE",
"458 423 LINE",
"453 428 OFFCURVE",
"436 428 QCURVE SMOOTH",
"422 428 OFFCURVE",
"421 421 QCURVE",
"417 407 OFFCURVE",
"415 392 QCURVE SMOOTH",
"412 367 OFFCURVE",
"407 363 QCURVE",
"401 359 OFFCURVE",
"339 359 QCURVE SMOOTH",
"286 359 LINE SMOOTH",
"243 359 OFFCURVE",
"243 365 QCURVE SMOOTH",
"243 519 LINE SMOOTH",
"243 573 OFFCURVE",
"248 597 QCURVE",
"250 610 OFFCURVE",
"313 610 QCURVE SMOOTH",
"351 610 LINE SMOOTH",
"390 610 OFFCURVE",
"472 556 OFFCURVE",
"491 518 QCURVE",
"494 511 OFFCURVE",
"505 511 QCURVE SMOOTH",
"523 511 OFFCURVE",
"528 516 QCURVE",
"500 654 OFFCURVE",
"499 664 QCURVE",
"442 664 OFFCURVE",
"220 659 OFFCURVE",
"176 659 QCURVE SMOOTH",
"109 659 OFFCURVE",
"29 664 QCURVE"
);
}
);
};
layerId = "6D340022-02C4-426D-A0D8-A7BFACBEB22E";
paths = (
{
closed = 1;
nodes = (
"27 662 OFFCURVE",
"26 655.667 OFFCURVE",
"26 645 CURVE SMOOTH",
"26 633 OFFCURVE",
"27.333 627 OFFCURVE",
"30 627 CURVE SMOOTH",
"44.667 627 OFFCURVE",
"93 609.667 OFFCURVE",
"97 599 CURVE",
"101 583.667 OFFCURVE",
"103 557.667 OFFCURVE",
"103 521 CURVE SMOOTH",
"103 143 LINE SMOOTH",
"103 99.667 OFFCURVE",
"101 70.333 OFFCURVE",
"97 55 CURVE",
"93 44.333 OFFCURVE",
"47 33 OFFCURVE",
"31 33 CURVE SMOOTH",
"28.333 33 OFFCURVE",
"27 26.333 OFFCURVE",
"27 13 CURVE SMOOTH",
"27 4.333 OFFCURVE",
"28.333 -1.333 OFFCURVE",
"31 -4 CURVE",
"177 2 LINE",
"223 2 OFFCURVE",
"283 1.333 OFFCURVE",
"357 0 CURVE SMOOTH",
"431 -1.333 OFFCURVE",
"485 -2 OFFCURVE",
"519 -2 CURVE",
"522.333 20.667 OFFCURVE",
"540.333 78 OFFCURVE",
"573 170 CURVE",
"569 174 OFFCURVE",
"559 176 OFFCURVE",
"543 176 CURVE SMOOTH",
"534.333 176 OFFCURVE",
"529.667 174 OFFCURVE",
"529 170 CURVE",
"513 128.667 OFFCURVE",
"479.667 92 OFFCURVE",
"457 80 CURVE SMOOTH",
"423.667 62.667 OFFCURVE",
"386.333 54 OFFCURVE",
"345 54 CURVE SMOOTH",
"319 54 LINE SMOOTH",
"277 54 OFFCURVE",
"254.333 59.333 OFFCURVE",
"251 70 CURVE SMOOTH",
"245.667 85.333 OFFCURVE",
"243 109 OFFCURVE",
"243 141 CURVE SMOOTH",
"243 295 LINE SMOOTH",
"243 301 OFFCURVE",
"267 304 OFFCURVE",
"315 304 CURVE SMOOTH",
"358.333 304 OFFCURVE",
"384.333 301.333 OFFCURVE",
"393 296 CURVE",
"396.579 292.421 OFFCURVE",
"400.033 293.147 OFFCURVE",
"404.5 286 CURVE SMOOTH",
"408.239 280.018 OFFCURVE",
"414.975 259.088 OFFCURVE",
"421 238 CURVE",
"423 232.667 OFFCURVE",
"428.333 230 OFFCURVE",
"437 230 CURVE SMOOTH",
"448.333 230 OFFCURVE",
"455.333 231.333 OFFCURVE",
"458 234 CURVE",
"458 423 LINE",
"454.667 426.333 OFFCURVE",
"447.333 428 OFFCURVE",
"436 428 CURVE SMOOTH",
"426.667 428 OFFCURVE",
"421.667 425.667 OFFCURVE",
"421 421 CURVE",
"418.333 411.667 OFFCURVE",
"416.333 402 OFFCURVE",
"415 392 CURVE SMOOTH",
"413 375.333 OFFCURVE",
"410.333 365.667 OFFCURVE",
"407 363 CURVE",
"403 360.333 OFFCURVE",
"380.333 359 OFFCURVE",
"339 359 CURVE SMOOTH",
"286 359 LINE SMOOTH",
"257.333 359 OFFCURVE",
"243 361 OFFCURVE",
"243 365 CURVE SMOOTH",
"243 519 LINE SMOOTH",
"243 555 OFFCURVE",
"244.667 581 OFFCURVE",
"248 597 CURVE",
"249.333 605.667 OFFCURVE",
"271 610 OFFCURVE",
"313 610 CURVE SMOOTH",
"351 610 LINE SMOOTH",
"403 610 OFFCURVE",
"465.667 568.667 OFFCURVE",
"491 518 CURVE",
"493 513.333 OFFCURVE",
"497.667 511 OFFCURVE",
"505 511 CURVE SMOOTH",
"517 511 OFFCURVE",
"524.667 512.667 OFFCURVE",
"528 516 CURVE",
"509.333 608 OFFCURVE",
"499.667 657.333 OFFCURVE",
"499 664 CURVE",
"461 664 OFFCURVE",
"405 663.167 OFFCURVE",
"331 661.5 CURVE SMOOTH",
"257 659.833 OFFCURVE",
"205.333 659 OFFCURVE",
"176 659 CURVE SMOOTH",
"131.333 659 OFFCURVE",
"82.333 660.667 OFFCURVE",
"29 664 CURVE"
);
}
);
width = 598;
}
);
note = E;
unicode = 0045;
},
{
glyphname = F;
lastChange = "2018-03-09 10:42:30 +0000";
layers = (
{
background = {
paths = (
{
closed = 1;
nodes = (
"26 661 OFFCURVE",
"26 645 QCURVE SMOOTH",
"26 627 OFFCURVE",
"30 627 QCURVE SMOOTH",
"41 627 OFFCURVE",
"94 607 OFFCURVE",
"97 599 QCURVE",
"103 576 OFFCURVE",
"103 521 QCURVE SMOOTH",
"103 143 LINE SMOOTH",
"103 78 OFFCURVE",
"97 55 QCURVE",
"94 47 OFFCURVE",
"43 33 OFFCURVE",
"31 33 QCURVE SMOOTH",
"27 33 OFFCURVE",
"27 13 QCURVE SMOOTH",
"27 0 OFFCURVE",
"31 -4 QCURVE",
"177 2 LINE",
"210 2 OFFCURVE",
"330 -4 QCURVE",
"332 2 OFFCURVE",
"332 14 QCURVE SMOOTH",
"332 33 OFFCURVE",
"328 33 QCURVE SMOOTH",
"313 33 OFFCURVE",
"253 47 OFFCURVE",
"250 59 QCURVE SMOOTH",
"243 90 OFFCURVE",
"243 141 QCURVE SMOOTH",
"243 295 LINE SMOOTH",
"243 304 OFFCURVE",
"315 304 QCURVE SMOOTH",
"380 304 OFFCURVE",
"393 296 QCURVE",
"394 295 OFFCURVE",
"400 292 OFFCURVE",
"402 290 OFFCURVE",
"407 282 OFFCURVE",
"411 272 OFFCURVE",
"417 252 OFFCURVE",
"421 238 QCURVE",
"424 230 OFFCURVE",
"437 230 QCURVE SMOOTH",
"454 230 OFFCURVE",
"458 234 QCURVE",
"458 423 LINE",
"453 428 OFFCURVE",
"436 428 QCURVE SMOOTH",
"422 428 OFFCURVE",
"421 421 QCURVE",
"417 407 OFFCURVE",
"415 392 QCURVE SMOOTH",
"412 367 OFFCURVE",
"407 363 QCURVE",
"401 359 OFFCURVE",
"339 359 QCURVE SMOOTH",
"286 359 LINE SMOOTH",
"243 359 OFFCURVE",
"243 365 QCURVE SMOOTH",
"243 519 LINE SMOOTH",
"243 573 OFFCURVE",
"248 597 QCURVE",
"250 610 OFFCURVE",
"313 610 QCURVE SMOOTH",
"351 610 LINE SMOOTH",
"390 610 OFFCURVE",
"472 556 OFFCURVE",
"491 518 QCURVE",
"494 511 OFFCURVE",
"505 511 QCURVE SMOOTH",
"523 511 OFFCURVE",
"528 516 QCURVE",
"500 654 OFFCURVE",
"499 664 QCURVE",
"447 664 OFFCURVE",
"241 659 OFFCURVE",
"176 659 QCURVE SMOOTH",
"119 659 OFFCURVE",
"29 664 QCURVE"
);
}
);
};
layerId = "6D340022-02C4-426D-A0D8-A7BFACBEB22E";
paths = (
{
closed = 1;
nodes = (
"27 662 OFFCURVE",
"26 655.667 OFFCURVE",
"26 645 CURVE SMOOTH",
"26 633 OFFCURVE",
"27.333 627 OFFCURVE",
"30 627 CURVE SMOOTH",
"44.667 627 OFFCURVE",
"93 609.667 OFFCURVE",
"97 599 CURVE",
"101 583.667 OFFCURVE",
"103 557.667 OFFCURVE",
"103 521 CURVE SMOOTH",
"103 143 LINE SMOOTH",
"103 99.667 OFFCURVE",
"101 70.333 OFFCURVE",
"97 55 CURVE",
"93 44.333 OFFCURVE",
"47 33 OFFCURVE",
"31 33 CURVE SMOOTH",
"28.333 33 OFFCURVE",
"27 26.333 OFFCURVE",
"27 13 CURVE SMOOTH",
"27 4.333 OFFCURVE",
"28.333 -1.333 OFFCURVE",
"31 -4 CURVE",
"177 2 LINE",
"199 2 OFFCURVE",
"250 0 OFFCURVE",
"330 -4 CURVE",
"331.333 0 OFFCURVE",
"332 6 OFFCURVE",
"332 14 CURVE SMOOTH",
"332 26.667 OFFCURVE",
"330.667 33 OFFCURVE",
"328 33 CURVE SMOOTH",
"308 33 OFFCURVE",
"254 43 OFFCURVE",
"250 59 CURVE SMOOTH",
"245.333 79.667 OFFCURVE",
"243 107 OFFCURVE",
"243 141 CURVE SMOOTH",
"243 295 LINE SMOOTH",
"243 301 OFFCURVE",
"267 304 OFFCURVE",
"315 304 CURVE SMOOTH",
"358.333 304 OFFCURVE",
"384.333 301.333 OFFCURVE",
"393 296 CURVE",
"396.579 292.421 OFFCURVE",
"400.033 293.147 OFFCURVE",
"404.5 286 CURVE SMOOTH",
"408.239 280.018 OFFCURVE",
"414.975 259.088 OFFCURVE",
"421 238 CURVE",
"423 232.667 OFFCURVE",
"428.333 230 OFFCURVE",
"437 230 CURVE SMOOTH",
"448.333 230 OFFCURVE",
"455.333 231.333 OFFCURVE",
"458 234 CURVE",
"458 423 LINE",
"454.667 426.333 OFFCURVE",
"447.333 428 OFFCURVE",
"436 428 CURVE SMOOTH",
"426.667 428 OFFCURVE",
"421.667 425.667 OFFCURVE",
"421 421 CURVE",
"418.333 411.667 OFFCURVE",
"416.333 402 OFFCURVE",
"415 392 CURVE SMOOTH",
"413 375.333 OFFCURVE",
"410.333 365.667 OFFCURVE",
"407 363 CURVE",
"403 360.333 OFFCURVE",
"380.333 359 OFFCURVE",
"339 359 CURVE SMOOTH",
"286 359 LINE SMOOTH",
"257.333 359 OFFCURVE",
"243 361 OFFCURVE",
"243 365 CURVE SMOOTH",
"243 519 LINE SMOOTH",
"243 555 OFFCURVE",
"244.667 581 OFFCURVE",
"248 597 CURVE",
"249.333 605.667 OFFCURVE",
"271 610 OFFCURVE",
"313 610 CURVE SMOOTH",
"351 610 LINE SMOOTH",
"403 610 OFFCURVE",
"465.667 568.667 OFFCURVE",
"491 518 CURVE",
"493 513.333 OFFCURVE",
"497.667 511 OFFCURVE",
"505 511 CURVE SMOOTH",
"517 511 OFFCURVE",
"524.667 512.667 OFFCURVE",
"528 516 CURVE",
"509.333 608 OFFCURVE",
"499.667 657.333 OFFCURVE",
"499 664 CURVE",
"464.333 664 OFFCURVE",
"412.667 663.167 OFFCURVE",
"344 661.5 CURVE SMOOTH",
"275.333 659.833 OFFCURVE",
"219.333 659 OFFCURVE",
"176 659 CURVE SMOOTH",
"138 659 OFFCURVE",
"89 660.667 OFFCURVE",
"29 664 CURVE"
);
}
);
width = 553;
}
);
note = F;
unicode = 0046;
},
{
glyphname = G;
lastChange = "2018-03-09 10:42:30 +0000";
layers = (
{
background = {
paths = (
{
closed = 1;
nodes = (
"408 -9 OFFCURVE",
"513 12 OFFCURVE",
"554 29 OFFCURVE",
"591 48 QCURVE SMOOTH",
"612 59 OFFCURVE",
"612 76 QCURVE SMOOTH",
"612 78 OFFCURVE",
"606 96 OFFCURVE",
"606 114 QCURVE SMOOTH",
"606 172 LINE SMOOTH",
"606 243 OFFCURVE",
"622 251 QCURVE SMOOTH",
"652 266 OFFCURVE",
"675 266 QCURVE SMOOTH",
"679 266 OFFCURVE",
"679 284 QCURVE SMOOTH",
"679 295 OFFCURVE",
"676 304 QCURVE",
"556 298 OFFCURVE",
"541 298 QCURVE SMOOTH",
"518 298 OFFCURVE",
"469 300 OFFCURVE",
"410 303 OFFCURVE",
"392 304 QCURVE",
"388 300 OFFCURVE",
"389 267 OFFCURVE",
"393 267 QCURVE SMOOTH",
"451 267 OFFCURVE",
"459 240 QCURVE SMOOTH",
"466 214 OFFCURVE",
"466 163 QCURVE SMOOTH",
"466 156 LINE",
"466 93 LINE SMOOTH",
"466 72 OFFCURVE",
"455 63 QCURVE SMOOTH",
"435 47 OFFCURVE",
"391 47 QCURVE SMOOTH",
"317 47 OFFCURVE",
"218 141 OFFCURVE",
"179 270 OFFCURVE",
"179 345 QCURVE SMOOTH",
"179 611 OFFCURVE",
"359 611 QCURVE SMOOTH",
"408 611 OFFCURVE",
"486 580 OFFCURVE",
"530 530 OFFCURVE",
"552 490 OFFCURVE",
"557 471 QCURVE",
"567 466 OFFCURVE",
"588 466 QCURVE SMOOTH",
"606 466 OFFCURVE",
"606 474 QCURVE SMOOTH",
"606 488 OFFCURVE",
"588 637 OFFCURVE",
"583 638 QCURVE",
"463 667 OFFCURVE",
"354 667 QCURVE SMOOTH",
"217 667 OFFCURVE",
"25 463 OFFCURVE",
"25 322 QCURVE SMOOTH",
"25 188 OFFCURVE",
"211 -9 OFFCURVE",
"343 -9 QCURVE SMOOTH"
);
}
);
};
layerId = "6D340022-02C4-426D-A0D8-A7BFACBEB22E";
paths = (
{
closed = 1;
nodes = (
"458.827 -9 OFFCURVE",
"531.541 17.467 OFFCURVE",
"591 48 CURVE SMOOTH",
"605 55.333 OFFCURVE",
"612 64.667 OFFCURVE",
"612 76 CURVE SMOOTH",
"612 77.333 OFFCURVE",
"611 81 OFFCURVE",
"609 87 CURVE SMOOTH",
"607 93 OFFCURVE",
"606 102 OFFCURVE",
"606 114 CURVE SMOOTH",
"606 172 LINE SMOOTH",
"606 219.333 OFFCURVE",
"611.333 245.667 OFFCURVE",
"622 251 CURVE SMOOTH",
"642 261 OFFCURVE",
"659.667 266 OFFCURVE",
"675 266 CURVE SMOOTH",
"677.667 266 OFFCURVE",
"679 272 OFFCURVE",
"679 284 CURVE SMOOTH",
"679 291.333 OFFCURVE",
"678 298 OFFCURVE",
"676 304 CURVE",
"596 300 OFFCURVE",
"551 298 OFFCURVE",
"541 298 CURVE SMOOTH",
"510.594 298 OFFCURVE",
"428.013 302 OFFCURVE",
"392 304 CURVE",
"386.667 298.667 OFFCURVE",
"387.667 267 OFFCURVE",
"393 267 CURVE SMOOTH",
"431.667 267 OFFCURVE",
"453.667 258 OFFCURVE",
"459 240 CURVE SMOOTH",
"463.667 222.667 OFFCURVE",
"466 197 OFFCURVE",
"466 163 CURVE SMOOTH",
"466 156 LINE",
"466 93 LINE SMOOTH",
"466 79 OFFCURVE",
"462.333 69 OFFCURVE",
"455 63 CURVE SMOOTH",
"441.667 52.333 OFFCURVE",
"420.333 47 OFFCURVE",
"391 47 CURVE SMOOTH",
"292.333 47 OFFCURVE",
"224.5 119.5 OFFCURVE",
"198.5 205.5 CURVE SMOOTH",
"185.5 248.5 OFFCURVE",
"179 295 OFFCURVE",
"179 345 CURVE SMOOTH",
"179 522.333 OFFCURVE",
"239 611 OFFCURVE",
"359 611 CURVE SMOOTH",
"480.413 611 OFFCURVE",
"540.259 534.617 OFFCURVE",
"557 471 CURVE",
"563.667 467.667 OFFCURVE",
"574 466 OFFCURVE",
"588 466 CURVE SMOOTH",
"600 466 OFFCURVE",
"606 468.667 OFFCURVE",
"606 474 CURVE SMOOTH",
"606 492.667 OFFCURVE",
"589.667 636.667 OFFCURVE",
"583 638 CURVE",
"503 657.333 OFFCURVE",
"426.667 667 OFFCURVE",
"354 667 CURVE SMOOTH",
"171.333 667 OFFCURVE",
"25 510 OFFCURVE",
"25 322 CURVE SMOOTH",
"25 143.333 OFFCURVE",
"167 -9 OFFCURVE",
"343 -9 CURVE SMOOTH"
);
}
);
width = 705;
}
);
note = G;
unicode = 0047;
},
{
glyphname = H;
lastChange = "2018-03-09 10:42:30 +0000";
layers = (
{
background = {
paths = (
{
closed = 1;
nodes = (
"474 51 OFFCURVE",
"422 33 OFFCURVE",
"411 33 QCURVE SMOOTH",
"407 33 OFFCURVE",
"406 0 OFFCURVE",
"410 -4 QCURVE",
"423 -3 OFFCURVE",
"532 4 OFFCURVE",
"559 4 QCURVE SMOOTH",
"585 4 OFFCURVE",
"685 -4 OFFCURVE",
"694 -4 QCURVE",
"697 5 OFFCURVE",
"697 13 QCURVE SMOOTH",
"697 34 OFFCURVE",
"693 34 QCURVE SMOOTH",
"684 34 OFFCURVE",
"633 50 OFFCURVE",
"631 57 QCURVE SMOOTH",
"623 88 OFFCURVE",
"623 142 QCURVE SMOOTH",
"623 516 LINE SMOOTH",
"623 571 OFFCURVE",
"631 601 QCURVE SMOOTH",
"633 608 OFFCURVE",
"685 625 OFFCURVE",
"694 625 QCURVE SMOOTH",
"699 625 OFFCURVE",
"699 644 QCURVE SMOOTH",
"699 653 OFFCURVE",
"696 662 QCURVE",
"576 656 OFFCURVE",
"561 656 QCURVE SMOOTH",
"550 656 OFFCURVE",
"412 662 QCURVE",
"408 658 OFFCURVE",
"409 625 OFFCURVE",
"413 625 QCURVE SMOOTH",
"424 625 OFFCURVE",
"473 607 OFFCURVE",
"476 599 QCURVE",
"483 572 OFFCURVE",
"483 520 QCURVE SMOOTH",
"483 375 LINE SMOOTH",
"483 373 OFFCURVE",
"481 371 QCURVE",
"391 369 OFFCURVE",
"364 369 QCURVE SMOOTH",
"342 369 OFFCURVE",
"244 371 QCURVE",
"242 374 LINE",
"242 516 LINE SMOOTH",
"242 580 OFFCURVE",
"250 601 QCURVE",
"253 608 OFFCURVE",
"305 625 OFFCURVE",
"314 625 QCURVE SMOOTH",
"318 625 OFFCURVE",
"318 657 OFFCURVE",
"315 662 QCURVE",
"195 656 OFFCURVE",
"169 656 QCURVE SMOOTH",
"168 656 OFFCURVE",
"30 662 QCURVE",
"28 660 OFFCURVE",
"28 645 QCURVE SMOOTH",
"28 625 OFFCURVE",
"32 625 QCURVE SMOOTH",
"44 625 OFFCURVE",
"90 609 OFFCURVE",
"95 598 QCURVE",
"102 581 OFFCURVE",
"102 520 QCURVE SMOOTH",
"102 138 LINE SMOOTH",
"102 84 OFFCURVE",
"95 57 QCURVE",
"92 49 OFFCURVE",
"40 33 OFFCURVE",
"28 33 QCURVE SMOOTH",
"26 33 OFFCURVE",
"26 13 QCURVE SMOOTH",
"26 0 OFFCURVE",
"30 -4 QCURVE",
"45 -3 OFFCURVE",
"144 4 OFFCURVE",
"196 4 OFFCURVE",
"309 -4 OFFCURVE",
"314 -4 QCURVE",
"317 3 OFFCURVE",
"316 33 OFFCURVE",
"312 33 QCURVE SMOOTH",
"303 33 OFFCURVE",
"252 51 OFFCURVE",
"250 58 QCURVE SMOOTH",
"242 89 OFFCURVE",
"242 142 QCURVE SMOOTH",
"242 306 LINE",
"240 308 LINE",
"240 310 OFFCURVE",
"364 311 QCURVE SMOOTH",
"387 311 OFFCURVE",
"481 309 QCURVE",
"483 305 OFFCURVE",
"483 305 QCURVE",
"483 138 LINE SMOOTH",
"483 82 OFFCURVE",
"477 59 QCURVE"
);
}
);
};
layerId = "6D340022-02C4-426D-A0D8-A7BFACBEB22E";
paths = (
{
closed = 1;
nodes = (
"473 48.333 OFFCURVE",
"425.667 33 OFFCURVE",
"411 33 CURVE SMOOTH",
"405.667 33 OFFCURVE",
"404.667 1.333 OFFCURVE",
"410 -4 CURVE",
"427.333 -2.667 OFFCURVE",
"523 4 OFFCURVE",
"559 4 CURVE SMOOTH",
"576.333 4 OFFCURVE",
"601.667 2.667 OFFCURVE",
"635 0 CURVE SMOOTH",
"668.333 -2.667 OFFCURVE",
"688 -4 OFFCURVE",
"694 -4 CURVE",
"696 2 OFFCURVE",
"697 7.667 OFFCURVE",
"697 13 CURVE SMOOTH",
"697 27 OFFCURVE",
"695.667 34 OFFCURVE",
"693 34 CURVE SMOOTH",
"681 34 OFFCURVE",
"633.667 47.667 OFFCURVE",
"631 57 CURVE SMOOTH",
"625.667 77.667 OFFCURVE",
"623 106 OFFCURVE",
"623 142 CURVE SMOOTH",
"623 516 LINE SMOOTH",
"623 552.667 OFFCURVE",
"625.667 581 OFFCURVE",
"631 601 CURVE SMOOTH",
"633.667 610.333 OFFCURVE",
"682 625 OFFCURVE",
"694 625 CURVE SMOOTH",
"697.333 625 OFFCURVE",
"699 631.333 OFFCURVE",
"699 644 CURVE SMOOTH",
"699 650 OFFCURVE",
"698 656 OFFCURVE",
"696 662 CURVE",
"616 658 OFFCURVE",
"571 656 OFFCURVE",
"561 656 CURVE SMOOTH",
"553.667 656 OFFCURVE",
"504 658 OFFCURVE",
"412 662 CURVE",
"406.667 656.667 OFFCURVE",
"407.667 625 OFFCURVE",
"413 625 CURVE SMOOTH",
"427.667 625 OFFCURVE",
"472 609.667 OFFCURVE",
"476 599 CURVE",
"480.667 581 OFFCURVE",
"483 554.667 OFFCURVE",
"483 520 CURVE SMOOTH",
"483 375 LINE SMOOTH",
"483 373.667 OFFCURVE",
"482.333 372.333 OFFCURVE",
"481 371 CURVE",
"421 369.667 OFFCURVE",
"382 369 OFFCURVE",
"364 369 CURVE SMOOTH",
"349.333 369 OFFCURVE",
"309.333 369.667 OFFCURVE",
"244 371 CURVE",
"242 374 LINE",
"242 516 LINE SMOOTH",
"242 558.667 OFFCURVE",
"244.667 587 OFFCURVE",
"250 601 CURVE",
"254 610.333 OFFCURVE",
"302 625 OFFCURVE",
"314 625 CURVE SMOOTH",
"316.667 625 OFFCURVE",
"318 630.333 OFFCURVE",
"318 641 CURVE SMOOTH",
"318 651.667 OFFCURVE",
"317 658.667 OFFCURVE",
"315 662 CURVE",
"235 658 OFFCURVE",
"186.333 656 OFFCURVE",
"169 656 CURVE SMOOTH",
"168.333 656 OFFCURVE",
"122 658 OFFCURVE",
"30 662 CURVE",
"28.667 660.667 OFFCURVE",
"28 655 OFFCURVE",
"28 645 CURVE SMOOTH",
"28 631.667 OFFCURVE",
"29.333 625 OFFCURVE",
"32 625 CURVE SMOOTH",
"48 625 OFFCURVE",
"88.333 612.667 OFFCURVE",
"95 598 CURVE",
"99.667 586.667 OFFCURVE",
"102 560.667 OFFCURVE",
"102 520 CURVE SMOOTH",
"102 138 LINE SMOOTH",
"102 102 OFFCURVE",
"99.667 75 OFFCURVE",
"95 57 CURVE",
"91 46.333 OFFCURVE",
"44 33 OFFCURVE",
"28 33 CURVE SMOOTH",
"26.667 33 OFFCURVE",
"26 26.333 OFFCURVE",
"26 13 CURVE SMOOTH",
"26 4.333 OFFCURVE",
"27.333 -1.333 OFFCURVE",
"30 -4 CURVE",
"222.695 8.846 OFFCURVE",
"102.066 -4 OFFCURVE",
"314 -4 CURVE",
"318 5.333 OFFCURVE",
"317.333 33 OFFCURVE",
"312 33 CURVE SMOOTH",
"300 33 OFFCURVE",
"252.667 48.667 OFFCURVE",
"250 58 CURVE SMOOTH",
"244.667 78.667 OFFCURVE",
"242 106.667 OFFCURVE",
"242 142 CURVE SMOOTH",
"242 306 LINE",
"240 308 LINE",
"240 309.333 OFFCURVE",
"281.333 310.333 OFFCURVE",
"364 311 CURVE SMOOTH",
"379.333 311 OFFCURVE",
"418.333 310.333 OFFCURVE",
"481 309 CURVE",
"482.333 306.333 OFFCURVE",
"483 305 OFFCURVE",
"483 305 CURVE",
"483 138 LINE SMOOTH",
"483 100.667 OFFCURVE",
"481 74.333 OFFCURVE",
"477 59 CURVE"
);
}
);
width = 727;
}
);
note = H;
unicode = 0048;
},
{
glyphname = I;
lastChange = "2018-03-09 10:42:30 +0000";
layers = (
{
background = {
paths = (
{
closed = 1;
nodes = (
"102 85 OFFCURVE",
"95 58 QCURVE",
"92 50 OFFCURVE",
"40 33 OFFCURVE",
"29 33 QCURVE SMOOTH",
"26 33 OFFCURVE",
"26 12 QCURVE SMOOTH",
"26 0 OFFCURVE",
"30 -4 QCURVE",
"44 -3 OFFCURVE",
"148 4 OFFCURVE",
"175 4 QCURVE SMOOTH",
"201 4 OFFCURVE",
"307 -4 OFFCURVE",
"314 -4 QCURVE",
"316 2 OFFCURVE",
"316 14 QCURVE SMOOTH",
"316 33 OFFCURVE",
"312 33 QCURVE SMOOTH",
"303 33 OFFCURVE",
"252 51 OFFCURVE",
"250 58 QCURVE SMOOTH",
"242 89 OFFCURVE",
"242 146 QCURVE SMOOTH",
"242 516 LINE",
"242 531 LINE SMOOTH",
"242 546 OFFCURVE",
"246 589 OFFCURVE",
"249 601 QCURVE SMOOTH",
"251 608 OFFCURVE",
"305 625 OFFCURVE",
"314 625 QCURVE SMOOTH",
"318 625 OFFCURVE",
"318 644 QCURVE SMOOTH",
"318 653 OFFCURVE",
"315 662 QCURVE",
"195 656 OFFCURVE",
"175 656 QCURVE SMOOTH",
"144 655 OFFCURVE",
"111 656 OFFCURVE",
"45 661 OFFCURVE",
"30 662 QCURVE",
"28 660 OFFCURVE",
"28 642 QCURVE SMOOTH",
"28 625 OFFCURVE",
"32 625 QCURVE SMOOTH",
"43 625 OFFCURVE",
"89 608 OFFCURVE",
"94 600 QCURVE",
"102 586 OFFCURVE",
"102 522 QCURVE SMOOTH",
"102 138 LINE SMOOTH"
);
}
);
};
layerId = "6D340022-02C4-426D-A0D8-A7BFACBEB22E";
paths = (
{
closed = 1;
nodes = (
"102 102.667 OFFCURVE",
"99.667 76 OFFCURVE",
"95 58 CURVE",
"91 47.333 OFFCURVE",
"43.667 33 OFFCURVE",
"29 33 CURVE SMOOTH",
"27 33 OFFCURVE",
"26 26 OFFCURVE",
"26 12 CURVE SMOOTH",
"26 4 OFFCURVE",
"27.333 -1.333 OFFCURVE",
"30 -4 CURVE",
"48.667 -2.667 OFFCURVE",
"139 4 OFFCURVE",
"175 4 CURVE SMOOTH",
"192.333 4 OFFCURVE",
"218.667 2.667 OFFCURVE",
"254 0 CURVE SMOOTH",
"289.333 -2.667 OFFCURVE",
"309.333 -4 OFFCURVE",
"314 -4 CURVE",
"315.333 0 OFFCURVE",
"316 6 OFFCURVE",
"316 14 CURVE SMOOTH",
"316 26.667 OFFCURVE",
"314.667 33 OFFCURVE",
"312 33 CURVE SMOOTH",
"300 33 OFFCURVE",
"252.667 48.667 OFFCURVE",
"250 58 CURVE SMOOTH",
"244.667 78.667 OFFCURVE",
"242 108 OFFCURVE",
"242 146 CURVE SMOOTH",
"242 516 LINE",
"242 531 LINE SMOOTH",
"242 551 OFFCURVE",
"245 585 OFFCURVE",
"249 601 CURVE SMOOTH",
"251.667 610.333 OFFCURVE",
"302 625 OFFCURVE",
"314 625 CURVE SMOOTH",
"316.667 625 OFFCURVE",
"318 631.333 OFFCURVE",
"318 644 CURVE SMOOTH",
"318 650 OFFCURVE",
"317 656 OFFCURVE",
"315 662 CURVE",
"235 658 OFFCURVE",
"188.333 656 OFFCURVE",
"175 656 CURVE SMOOTH",
"127.357 654.463 OFFCURVE",
"77.677 658.822 OFFCURVE",
"30 662 CURVE",
"28.667 660.667 OFFCURVE",
"28 654 OFFCURVE",
"28 642 CURVE SMOOTH",
"28 630.667 OFFCURVE",
"29.333 625 OFFCURVE",
"32 625 CURVE SMOOTH",
"46.667 625 OFFCURVE",
"87.333 610.667 OFFCURVE",
"94 600 CURVE",
"99.333 590.667 OFFCURVE",
"102 564.667 OFFCURVE",
"102 522 CURVE SMOOTH",
"102 138 LINE SMOOTH"
);
}
);
width = 346;
}
);
note = I;
unicode = 0049;
},
{
glyphname = J;
lastChange = "2018-03-09 10:42:30 +0000";
layers = (
{
background = {
paths = (
{
closed = 1;
nodes = (
"177 660 OFFCURVE",
"177 642 QCURVE SMOOTH",
"177 625 OFFCURVE",
"181 625 QCURVE SMOOTH",
"192 625 OFFCURVE",
"238 608 OFFCURVE",
"243 600 QCURVE",
"251 586 OFFCURVE",
"251 522 QCURVE SMOOTH",
"251 135 LINE SMOOTH",
"251 -8 OFFCURVE",
"223 -148 OFFCURVE",
"179 -148 QCURVE SMOOTH",
"165 -148 OFFCURVE",
"110 -87 OFFCURVE",
"86 -87 QCURVE SMOOTH",
"61 -87 OFFCURVE",
"23 -123 OFFCURVE",
"23 -148 QCURVE SMOOTH",
"23 -176 OFFCURVE",
"38 -200 QCURVE",
"61 -218 OFFCURVE",
"95 -218 QCURVE SMOOTH",
"232 -218 OFFCURVE",
"391 -27 OFFCURVE",
"391 143 QCURVE SMOOTH",
"391 516 LINE SMOOTH",
"391 574 OFFCURVE",
"398 601 QCURVE SMOOTH",
"400 608 OFFCURVE",
"454 625 OFFCURVE",
"463 625 QCURVE SMOOTH",
"467 625 OFFCURVE",
"467 644 QCURVE SMOOTH",
"467 653 OFFCURVE",
"464 662 QCURVE",
"344 656 OFFCURVE",
"324 656 QCURVE SMOOTH",
"317 656 OFFCURVE",
"179 662 QCURVE"
);
}
);
};
layerId = "6D340022-02C4-426D-A0D8-A7BFACBEB22E";
paths = (
{
closed = 1;
nodes = (
"177.667 660.667 OFFCURVE",
"177 654 OFFCURVE",
"177 642 CURVE SMOOTH",
"177 630.667 OFFCURVE",
"178.333 625 OFFCURVE",
"181 625 CURVE SMOOTH",
"195.667 625 OFFCURVE",
"236.333 610.667 OFFCURVE",
"243 600 CURVE",
"248.333 590.667 OFFCURVE",
"251 564.667 OFFCURVE",
"251 522 CURVE SMOOTH",
"251 135 LINE SMOOTH",
"251 39.667 OFFCURVE",
"246.333 -31.333 OFFCURVE",
"237 -78 CURVE SMOOTH",
"227.667 -124.667 OFFCURVE",
"208.333 -148 OFFCURVE",
"179 -148 CURVE SMOOTH",
"169.667 -148 OFFCURVE",
"155.833 -137.833 OFFCURVE",
"137.5 -117.5 CURVE SMOOTH",
"119.167 -97.167 OFFCURVE",
"102 -87 OFFCURVE",
"86 -87 CURVE SMOOTH",
"52.667 -87 OFFCURVE",
"23 -114.667 OFFCURVE",
"23 -148 CURVE SMOOTH",
"23 -166.667 OFFCURVE",
"28 -184 OFFCURVE",
"38 -200 CURVE",
"53.333 -212 OFFCURVE",
"72.333 -218 OFFCURVE",
"95 -218 CURVE SMOOTH",
"277.667 -218 OFFCURVE",
"391 -83.667 OFFCURVE",
"391 143 CURVE SMOOTH",
"391 516 LINE SMOOTH",
"391 554.667 OFFCURVE",
"393.333 583 OFFCURVE",
"398 601 CURVE SMOOTH",
"400.667 610.333 OFFCURVE",
"451 625 OFFCURVE",
"463 625 CURVE SMOOTH",
"465.667 625 OFFCURVE",
"467 631.333 OFFCURVE",
"467 644 CURVE SMOOTH",
"467 650 OFFCURVE",
"466 656 OFFCURVE",
"464 662 CURVE",
"384 658 OFFCURVE",
"337.333 656 OFFCURVE",
"324 656 CURVE SMOOTH",
"319.333 656 OFFCURVE",
"271 658 OFFCURVE",
"179 662 CURVE"
);
}
);
width = 493;
}
);
note = J;
unicode = 004A;
},
{
glyphname = K;
lastChange = "2018-03-09 10:42:30 +0000";
layers = (
{
background = {
paths = (
{
closed = 1;
nodes = (
"28 660 OFFCURVE",
"28 642 QCURVE SMOOTH",
"28 625 OFFCURVE",
"32 625 QCURVE SMOOTH",
"43 625 OFFCURVE",
"89 608 OFFCURVE",
"94 600 QCURVE",
"102 586 OFFCURVE",
"102 522 QCURVE SMOOTH",
"102 138 LINE SMOOTH",
"102 85 OFFCURVE",
"95 58 QCURVE",
"92 50 OFFCURVE",
"40 33 OFFCURVE",
"29 33 QCURVE SMOOTH",
"26 33 OFFCURVE",
"26 12 QCURVE SMOOTH",
"26 0 OFFCURVE",
"30 -4 QCURVE",
"44 -3 OFFCURVE",
"148 4 OFFCURVE",
"175 4 QCURVE SMOOTH",
"201 4 OFFCURVE",
"307 -4 OFFCURVE",
"314 -4 QCURVE",
"316 2 OFFCURVE",
"316 14 QCURVE SMOOTH",
"316 33 OFFCURVE",
"312 33 QCURVE SMOOTH",
"303 33 OFFCURVE",
"252 51 OFFCURVE",
"250 58 QCURVE SMOOTH",
"242 89 OFFCURVE",
"242 146 QCURVE SMOOTH",
"242 272 LINE SMOOTH",
"242 289 OFFCURVE",
"268 289 QCURVE SMOOTH",
"279 289 OFFCURVE",
"282 286 QCURVE",
"460 85 OFFCURVE",
"460 53 QCURVE SMOOTH",
"460 45 OFFCURVE",
"424 33 OFFCURVE",
"413 33 QCURVE SMOOTH",
"409 33 OFFCURVE",
"409 0 OFFCURVE",
"413 -4 QCURVE",
"501 4 OFFCURVE",
"555 4 QCURVE SMOOTH",
"580 4 OFFCURVE",
"705 -4 OFFCURVE",
"706 -4 QCURVE",
"710 4 OFFCURVE",
"710 14 QCURVE SMOOTH",
"710 33 OFFCURVE",
"706 33 QCURVE SMOOTH",
"694 33 OFFCURVE",
"647 45 OFFCURVE",
"636 58 QCURVE",
"399 367 LINE",
"387 381 OFFCURVE",
"400 396 QCURVE SMOOTH",
"572 586 LINE SMOOTH",
"578 593 OFFCURVE",
"595 604 OFFCURVE",
"611 612 OFFCURVE",
"631 619 OFFCURVE",
"647 622 OFFCURVE",
"665 625 OFFCURVE",
"676 626 OFFCURVE",
"682 626 QCURVE",
"688 627 LINE",
"691 627 OFFCURVE",
"692 658 OFFCURVE",
"690 662 QCURVE",
"570 656 OFFCURVE",
"558 656 QCURVE SMOOTH",
"535 656 OFFCURVE",
"424 662 QCURVE",
"422 655 OFFCURVE",
"426 627 OFFCURVE",
"430 627 QCURVE SMOOTH",
"446 627 OFFCURVE",
"490 619 OFFCURVE",
"490 609 QCURVE SMOOTH",
"490 596 OFFCURVE",
"482 586 QCURVE",
"386 476 OFFCURVE",
"300 388 QCURVE SMOOTH",
"263 350 OFFCURVE",
"256 350 QCURVE SMOOTH",
"249 350 LINE",
"248 350 LINE SMOOTH",
"246 350 OFFCURVE",
"242 354 OFFCURVE",
"242 358 QCURVE SMOOTH",
"242 516 LINE SMOOTH",
"242 574 OFFCURVE",
"249 601 QCURVE SMOOTH",
"251 608 OFFCURVE",
"305 625 OFFCURVE",
"314 625 QCURVE SMOOTH",
"318 625 OFFCURVE",
"318 644 QCURVE SMOOTH",
"318 653 OFFCURVE",
"315 662 QCURVE",
"195 656 OFFCURVE",
"175 656 QCURVE SMOOTH",
"168 656 OFFCURVE",
"30 662 QCURVE"
);
}
);
};
layerId = "6D340022-02C4-426D-A0D8-A7BFACBEB22E";
paths = (
{
closed = 1;
nodes = (
"28.667 660.667 OFFCURVE",
"28 654 OFFCURVE",
"28 642 CURVE SMOOTH",
"28 630.667 OFFCURVE",
"29.333 625 OFFCURVE",
"32 625 CURVE SMOOTH",
"46.667 625 OFFCURVE",
"87.333 610.667 OFFCURVE",
"94 600 CURVE",
"99.333 590.667 OFFCURVE",
"102 564.667 OFFCURVE",
"102 522 CURVE SMOOTH",
"102 138 LINE SMOOTH",
"102 102.667 OFFCURVE",
"99.667 76 OFFCURVE",
"95 58 CURVE",
"91 47.333 OFFCURVE",
"43.667 33 OFFCURVE",
"29 33 CURVE SMOOTH",
"27 33 OFFCURVE",
"26 26 OFFCURVE",
"26 12 CURVE SMOOTH",
"26 4 OFFCURVE",
"27.333 -1.333 OFFCURVE",
"30 -4 CURVE",
"48.667 -2.667 OFFCURVE",
"139 4 OFFCURVE",
"175 4 CURVE SMOOTH",
"192.333 4 OFFCURVE",
"218.667 2.667 OFFCURVE",
"254 0 CURVE SMOOTH",
"289.333 -2.667 OFFCURVE",
"309.333 -4 OFFCURVE",
"314 -4 CURVE",
"315.333 0 OFFCURVE",
"316 6 OFFCURVE",
"316 14 CURVE SMOOTH",
"316 26.667 OFFCURVE",
"314.667 33 OFFCURVE",
"312 33 CURVE SMOOTH",
"300 33 OFFCURVE",
"252.667 48.667 OFFCURVE",
"250 58 CURVE SMOOTH",
"244.667 78.667 OFFCURVE",
"242 108 OFFCURVE",
"242 146 CURVE SMOOTH",
"242 272 LINE SMOOTH",
"242 283.333 OFFCURVE",
"250.667 289 OFFCURVE",
"268 289 CURVE SMOOTH",
"275.333 289 OFFCURVE",
"280 288 OFFCURVE",
"282 286 CURVE",
"400.667 152 OFFCURVE",
"460 74.333 OFFCURVE",
"460 53 CURVE SMOOTH",
"460 42.333 OFFCURVE",
"427.667 33 OFFCURVE",
"413 33 CURVE SMOOTH",
"410.333 33 OFFCURVE",
"409 27.5 OFFCURVE",
"409 16.5 CURVE SMOOTH",
"409 5.5 OFFCURVE",
"410.333 -1.333 OFFCURVE",
"413 -4 CURVE",
"471.667 1.333 OFFCURVE",
"519 4 OFFCURVE",
"555 4 CURVE SMOOTH",
"571.667 4 OFFCURVE",
"600.833 2.667 OFFCURVE",
"642.5 0 CURVE SMOOTH",
"684.167 -2.667 OFFCURVE",
"705.333 -4 OFFCURVE",
"706 -4 CURVE",
"708.667 1.333 OFFCURVE",
"710 7.333 OFFCURVE",
"710 14 CURVE SMOOTH",
"710 26.667 OFFCURVE",
"708.667 33 OFFCURVE",
"706 33 CURVE SMOOTH",
"690 33 OFFCURVE",
"650.667 40.667 OFFCURVE",
"636 58 CURVE",
"399 367 LINE",
"391 376.333 OFFCURVE",
"391.333 386 OFFCURVE",
"400 396 CURVE SMOOTH",
"572 586 LINE SMOOTH",
"582.395 598.128 OFFCURVE",
"607.099 610.635 OFFCURVE",
"621 615.5 CURVE SMOOTH",
"636.413 620.894 OFFCURVE",
"658.718 624.63 OFFCURVE",
"682 626 CURVE",
"688 627 LINE",
"692 627 OFFCURVE",
"692.667 656.667 OFFCURVE",
"690 662 CURVE",
"610 658 OFFCURVE",
"566 656 OFFCURVE",
"558 656 CURVE SMOOTH",
"542.667 656 OFFCURVE",
"498 658 OFFCURVE",
"424 662 CURVE",
"421.333 652.667 OFFCURVE",
"424.667 627 OFFCURVE",
"430 627 CURVE SMOOTH",
"451.333 627 OFFCURVE",
"490 622.333 OFFCURVE",
"490 609 CURVE SMOOTH",
"490 600.333 OFFCURVE",
"487.333 592.667 OFFCURVE",
"482 586 CURVE",
"418 512.667 OFFCURVE",
"357.333 446.667 OFFCURVE",
"300 388 CURVE SMOOTH",
"275.333 362.667 OFFCURVE",
"260.667 350 OFFCURVE",
"256 350 CURVE SMOOTH",
"249 350 LINE",
"248 350 LINE SMOOTH",
"245.333 350 OFFCURVE",
"242 352.667 OFFCURVE",
"242 358 CURVE SMOOTH",
"242 516 LINE SMOOTH",
"242 554.667 OFFCURVE",
"244.333 583 OFFCURVE",
"249 601 CURVE SMOOTH",
"251.667 610.333 OFFCURVE",
"302 625 OFFCURVE",
"314 625 CURVE SMOOTH",
"316.667 625 OFFCURVE",
"318 631.333 OFFCURVE",
"318 644 CURVE SMOOTH",
"318 650 OFFCURVE",
"317 656 OFFCURVE",
"315 662 CURVE",
"235 658 OFFCURVE",
"188.333 656 OFFCURVE",
"175 656 CURVE SMOOTH",
"170.333 656 OFFCURVE",
"122 658 OFFCURVE",
"30 662 CURVE"
);
}
);
width = 741;
}
);
note = K;
unicode = 004B;
},
{
glyphname = L;
lastChange = "2018-03-09 10:42:30 +0000";
layers = (
{
background = {
paths = (
{
closed = 1;
nodes = (
"28 660 OFFCURVE",
"28 642 QCURVE SMOOTH",
"28 625 OFFCURVE",
"32 625 QCURVE SMOOTH",
"43 625 OFFCURVE",
"89 608 OFFCURVE",
"94 600 QCURVE",
"102 586 OFFCURVE",
"102 525 QCURVE SMOOTH",
"102 143 LINE SMOOTH",
"102 78 OFFCURVE",
"96 55 QCURVE",
"93 47 OFFCURVE",
"42 33 OFFCURVE",
"30 33 QCURVE SMOOTH",
"26 33 OFFCURVE",
"26 13 QCURVE SMOOTH",
"26 0 OFFCURVE",
"30 -4 QCURVE",
"176 2 LINE",
"219 2 OFFCURVE",
"461 -2 OFFCURVE",
"518 -2 QCURVE",
"523 32 OFFCURVE",
"572 170 QCURVE",
"566 176 OFFCURVE",
"542 176 QCURVE SMOOTH",
"530 176 OFFCURVE",
"528 170 QCURVE",
"516 139 OFFCURVE",
"473 89 OFFCURVE",
"456 80 QCURVE SMOOTH",
"406 54 OFFCURVE",
"344 54 QCURVE SMOOTH",
"318 54 LINE SMOOTH",
"255 54 OFFCURVE",
"250 70 QCURVE SMOOTH",
"242 93 OFFCURVE",
"242 142 QCURVE SMOOTH",
"242 521 LINE SMOOTH",
"242 574 OFFCURVE",
"249 601 QCURVE SMOOTH",
"251 608 OFFCURVE",
"305 625 OFFCURVE",
"314 625 QCURVE SMOOTH",
"318 625 OFFCURVE",
"318 644 QCURVE SMOOTH",
"318 653 OFFCURVE",
"315 662 QCURVE",
"195 656 OFFCURVE",
"175 656 QCURVE SMOOTH",
"168 656 OFFCURVE",
"30 662 QCURVE"
);
}
);
};
layerId = "6D340022-02C4-426D-A0D8-A7BFACBEB22E";
paths = (
{
closed = 1;
nodes = (
"28.667 660.667 OFFCURVE",
"28 654 OFFCURVE",
"28 642 CURVE SMOOTH",
"28 630.667 OFFCURVE",
"29.333 625 OFFCURVE",
"32 625 CURVE SMOOTH",
"46.667 625 OFFCURVE",
"87.333 610.667 OFFCURVE",
"94 600 CURVE",
"99.333 590.667 OFFCURVE",
"102 565.667 OFFCURVE",
"102 525 CURVE SMOOTH",
"102 143 LINE SMOOTH",
"102 99.667 OFFCURVE",
"100 70.333 OFFCURVE",
"96 55 CURVE",
"92 44.333 OFFCURVE",
"46 33 OFFCURVE",
"30 33 CURVE SMOOTH",
"27.333 33 OFFCURVE",
"26 26.333 OFFCURVE",
"26 13 CURVE SMOOTH",
"26 4.333 OFFCURVE",
"27.333 -1.333 OFFCURVE",
"30 -4 CURVE",
"176 2 LINE",
"204.667 2 OFFCURVE",
"259.333 1.333 OFFCURVE",
"340 0 CURVE SMOOTH",
"420.667 -1.333 OFFCURVE",
"480 -2 OFFCURVE",
"518 -2 CURVE",
"521.333 20.667 OFFCURVE",
"539.333 78 OFFCURVE",
"572 170 CURVE",
"568 174 OFFCURVE",
"558 176 OFFCURVE",
"542 176 CURVE SMOOTH",
"534 176 OFFCURVE",
"529.333 174 OFFCURVE",
"528 170 CURVE",
"512 128.667 OFFCURVE",
"478.667 92 OFFCURVE",
"456 80 CURVE SMOOTH",
"422.667 62.667 OFFCURVE",
"385.333 54 OFFCURVE",
"344 54 CURVE SMOOTH",
"318 54 LINE SMOOTH",
"276 54 OFFCURVE",
"253.333 59.333 OFFCURVE",
"250 70 CURVE SMOOTH",
"244.667 85.333 OFFCURVE",
"242 109.333 OFFCURVE",
"242 142 CURVE SMOOTH",
"242 521 LINE SMOOTH",
"242 556.333 OFFCURVE",
"244.333 583 OFFCURVE",
"249 601 CURVE SMOOTH",
"251.667 610.333 OFFCURVE",
"302 625 OFFCURVE",
"314 625 CURVE SMOOTH",
"316.667 625 OFFCURVE",
"318 631.333 OFFCURVE",
"318 644 CURVE SMOOTH",
"318 650 OFFCURVE",
"317 656 OFFCURVE",
"315 662 CURVE",
"235 658 OFFCURVE",
"188.333 656 OFFCURVE",
"175 656 CURVE SMOOTH",
"170.333 656 OFFCURVE",
"122 658 OFFCURVE",
"30 662 CURVE"
);
}
);
width = 598;
}
);
note = L;
unicode = 004C;
},
{
glyphname = M;
lastChange = "2018-03-09 10:42:30 +0000";
layers = (
{
background = {
paths = (
{
closed = 1;
nodes = (
"71 658 OFFCURVE",
"71 647 QCURVE SMOOTH",
"71 626 OFFCURVE",
"75 626 QCURVE SMOOTH",
"88 626 OFFCURVE",
"146 613 OFFCURVE",
"149 605 QCURVE",
"152 598 OFFCURVE",
"152 587 QCURVE",
"151 574 OFFCURVE",
"145 386 OFFCURVE",
"137 183 OFFCURVE",
"134 131 QCURVE SMOOTH",
"132 106 OFFCURVE",
"130 83 QCURVE SMOOTH",
"128 62 OFFCURVE",
"47 32 OFFCURVE",
"29 32 QCURVE SMOOTH",
"26 32 OFFCURVE",
"26 13 QCURVE SMOOTH",
"26 0 OFFCURVE",
"30 -4 QCURVE",
"46 -3 OFFCURVE",
"138 4 OFFCURVE",
"190 4 OFFCURVE",
"294 -4 OFFCURVE",
"302 -4 QCURVE",
"304 2 OFFCURVE",
"304 13 QCURVE SMOOTH",
"304 33 OFFCURVE",
"300 33 QCURVE SMOOTH",
"287 33 OFFCURVE",
"205 60 OFFCURVE",
"202 73 QCURVE",
"201 80 OFFCURVE",
"201 109 QCURVE",
"218 494 LINE",
"438 0 LINE",
"444 -2 OFFCURVE",
"447 -2 QCURVE SMOOTH",
"459 -2 OFFCURVE",
"483 21 OFFCURVE",
"487 31 QCURVE SMOOTH",
"660 462 LINE SMOOTH",
"663 469 OFFCURVE",
"665 469 QCURVE SMOOTH",
"669 469 OFFCURVE",
"673 402 QCURVE SMOOTH",
"681 148 LINE SMOOTH",
"683 112 OFFCURVE",
"683 89 QCURVE SMOOTH",
"683 76 OFFCURVE",
"675 61 QCURVE SMOOTH",
"670 51 OFFCURVE",
"624 33 OFFCURVE",
"613 33 QCURVE SMOOTH",
"610 33 OFFCURVE",
"610 12 QCURVE SMOOTH",
"610 1 OFFCURVE",
"615 -4 QCURVE",
"629 -3 OFFCURVE",
"733 4 OFFCURVE",
"760 4 QCURVE SMOOTH",
"786 4 OFFCURVE",
"876 -3 OFFCURVE",
"887 -4 QCURVE",
"889 2 OFFCURVE",
"889 13 QCURVE SMOOTH",
"889 33 OFFCURVE",
"885 33 QCURVE SMOOTH",
"876 33 OFFCURVE",
"831 51 OFFCURVE",
"827 60 QCURVE",
"815 91 OFFCURVE",
"812 152 QCURVE SMOOTH",
"810 198 OFFCURVE",
"794 532 OFFCURVE",
"792 572 QCURVE SMOOTH",
"791 602 OFFCURVE",
"806 613 QCURVE SMOOTH",
"823 625 OFFCURVE",
"848 625 QCURVE SMOOTH",
"849 625 LINE SMOOTH",
"854 625 OFFCURVE",
"854 646 QCURVE SMOOTH",
"854 656 OFFCURVE",
"850 662 QCURVE",
"730 656 OFFCURVE",
"724 656 QCURVE SMOOTH",
"661 656 OFFCURVE",
"643 658 QCURVE",
"610 546 LINE",
"565 422 OFFCURVE",
"488 231 QCURVE",
"488 230 OFFCURVE",
"486 230 QCURVE SMOOTH",
"484 230 LINE",
"449 317 OFFCURVE",
"305 630 OFFCURVE",
"295 662 QCURVE",
"283 661 OFFCURVE",
"210 656 OFFCURVE",
"190 656 QCURVE SMOOTH",
"164 656 OFFCURVE",
"89 661 OFFCURVE",
"75 662 QCURVE"
);
}
);
};
layerId = "6D340022-02C4-426D-A0D8-A7BFACBEB22E";
paths = (
{
closed = 1;
nodes = (
"72.333 659.333 OFFCURVE",
"71 654.333 OFFCURVE",
"71 647 CURVE SMOOTH",
"71 633 OFFCURVE",
"72.333 626 OFFCURVE",
"75 626 CURVE SMOOTH",
"92.333 626 OFFCURVE",
"145 615.667 OFFCURVE",
"149 605 CURVE",
"151 600.333 OFFCURVE",
"152 594.333 OFFCURVE",
"152 587 CURVE",
"148.508 541.605 OFFCURVE",
"145.955 410.244 OFFCURVE",
"141 284.5 CURVE SMOOTH",
"138.333 216.833 OFFCURVE",
"136 165.667 OFFCURVE",
"134 131 CURVE SMOOTH",
"132.667 114.333 OFFCURVE",
"131.333 98.333 OFFCURVE",
"130 83 CURVE SMOOTH",
"127.333 55 OFFCURVE",
"53 32 OFFCURVE",
"29 32 CURVE SMOOTH",
"27 32 OFFCURVE",
"26 25.667 OFFCURVE",
"26 13 CURVE SMOOTH",
"26 4.333 OFFCURVE",
"27.333 -1.333 OFFCURVE",
"30 -4 CURVE",
"217.786 7.737 OFFCURVE",
"96.211 -4 OFFCURVE",
"302 -4 CURVE",
"303.333 0 OFFCURVE",
"304 5.667 OFFCURVE",
"304 13 CURVE SMOOTH",
"304 26.333 OFFCURVE",
"302.667 33 OFFCURVE",
"300 33 CURVE SMOOTH",
"282.667 33 OFFCURVE",
"206 55.667 OFFCURVE",
"202 73 CURVE",
"201.333 77.667 OFFCURVE",
"201 89.667 OFFCURVE",
"201 109 CURVE",
"218 494 LINE",
"438 0 LINE",
"442 -1.333 OFFCURVE",
"445 -2 OFFCURVE",
"447 -2 CURVE SMOOTH",
"463 -2 OFFCURVE",
"481.667 17.667 OFFCURVE",
"487 31 CURVE SMOOTH",
"660 462 LINE SMOOTH",
"662 466.667 OFFCURVE",
"663.667 469 OFFCURVE",
"665 469 CURVE SMOOTH",
"667.667 469 OFFCURVE",
"670.333 446.667 OFFCURVE",
"673 402 CURVE SMOOTH",
"681 148 LINE SMOOTH",
"682.333 124 OFFCURVE",
"683 104.333 OFFCURVE",
"683 89 CURVE SMOOTH",
"683 80.333 OFFCURVE",
"680.333 71 OFFCURVE",
"675 61 CURVE SMOOTH",
"668.333 47.667 OFFCURVE",
"627.667 33 OFFCURVE",
"613 33 CURVE SMOOTH",
"611 33 OFFCURVE",
"610 26 OFFCURVE",
"610 12 CURVE SMOOTH",
"610 4.667 OFFCURVE",
"611.667 -0.667 OFFCURVE",
"615 -4 CURVE",
"633.667 -2.667 OFFCURVE",
"724 4 OFFCURVE",
"760 4 CURVE SMOOTH",
"794.667 4 OFFCURVE",
"872.333 -2.667 OFFCURVE",
"887 -4 CURVE",
"888.333 0 OFFCURVE",
"889 5.667 OFFCURVE",
"889 13 CURVE SMOOTH",
"889 26.333 OFFCURVE",
"887.667 33 OFFCURVE",
"885 33 CURVE SMOOTH",
"873 33 OFFCURVE",
"832.333 48 OFFCURVE",
"827 60 CURVE",
"819 80.667 OFFCURVE",
"814 111.333 OFFCURVE",
"812 152 CURVE SMOOTH",
"809.333 213.333 OFFCURVE",
"794.667 518.667 OFFCURVE",
"792 572 CURVE SMOOTH",
"791.333 592 OFFCURVE",
"796 605.667 OFFCURVE",
"806 613 CURVE SMOOTH",
"817.333 621 OFFCURVE",
"831.333 625 OFFCURVE",
"848 625 CURVE SMOOTH",
"849 625 LINE SMOOTH",
"852.333 625 OFFCURVE",
"854 632 OFFCURVE",
"854 646 CURVE SMOOTH",
"854 652.667 OFFCURVE",
"852.667 658 OFFCURVE",
"850 662 CURVE",
"770 658 OFFCURVE",
"728 656 OFFCURVE",
"724 656 CURVE SMOOTH",
"682 656 OFFCURVE",
"655 656.667 OFFCURVE",
"643 658 CURVE",
"610 546 LINE",
"580 463.333 OFFCURVE",
"539.333 358.333 OFFCURVE",
"488 231 CURVE",
"488 230.333 OFFCURVE",
"487.333 230 OFFCURVE",
"486 230 CURVE SMOOTH",
"484 230 LINE",
"460.667 288 OFFCURVE",
"425 369.167 OFFCURVE",
"377 473.5 CURVE SMOOTH",
"329 577.833 OFFCURVE",
"301.667 640.667 OFFCURVE",
"295 662 CURVE",
"279 660.667 OFFCURVE",
"216.667 656 OFFCURVE",
"190 656 CURVE SMOOTH",
"155.333 656 OFFCURVE",
"93.667 660.667 OFFCURVE",
"75 662 CURVE"
);
}
);
width = 918;
}
);
note = M;
unicode = 004D;
},
{
glyphname = N;
lastChange = "2018-03-09 10:42:30 +0000";
layers = (
{
background = {
paths = (
{
closed = 1;
nodes = (
"585 255 OFFCURVE",
"583 248 QCURVE",
"537 309 OFFCURVE",
"381 499 OFFCURVE",
"282 628 OFFCURVE",
"265 662 QCURVE",
"201 654 OFFCURVE",
"167 654 QCURVE SMOOTH",
"141 654 OFFCURVE",
"46 661 OFFCURVE",
"30 662 QCURVE",
"26 658 OFFCURVE",
"28 625 OFFCURVE",
"32 625 QCURVE SMOOTH",
"46 625 OFFCURVE",
"106 615 OFFCURVE",
"111 608 QCURVE",
"126 589 OFFCURVE",
"126 537 QCURVE SMOOTH",
"126 144 LINE SMOOTH",
"126 87 OFFCURVE",
"116 71 QCURVE SMOOTH",
"107 56 OFFCURVE",
"67 37 OFFCURVE",
"41 33 OFFCURVE",
"31 33 QCURVE SMOOTH",
"28 33 OFFCURVE",
"28 14 QCURVE SMOOTH",
"28 -1 OFFCURVE",
"31 -4 QCURVE",
"49 -3 OFFCURVE",
"129 4 OFFCURVE",
"181 4 OFFCURVE",
"281 -4 OFFCURVE",
"290 -4 QCURVE",
"292 0 OFFCURVE",
"291 34 OFFCURVE",
"288 34 QCURVE SMOOTH",
"273 34 OFFCURVE",
"207 53 OFFCURVE",
"198 70 QCURVE SMOOTH",
"190 86 OFFCURVE",
"190 141 QCURVE SMOOTH",
"190 524 LINE",
"597 18 LINE SMOOTH",
"616 -5 OFFCURVE",
"628 -5 QCURVE SMOOTH",
"649 -5 OFFCURVE",
"653 -1 QCURVE",
"649 103 OFFCURVE",
"649 139 QCURVE SMOOTH",
"649 519 LINE SMOOTH",
"649 575 OFFCURVE",
"663 592 QCURVE SMOOTH",
"691 625 OFFCURVE",
"746 625 QCURVE SMOOTH",
"751 625 OFFCURVE",
"751 644 QCURVE SMOOTH",
"751 654 OFFCURVE",
"747 662 QCURVE",
"735 661 OFFCURVE",
"648 654 OFFCURVE",
"623 654 QCURVE SMOOTH",
"583 654 OFFCURVE",
"491 662 QCURVE",
"488 658 OFFCURVE",
"490 625 OFFCURVE",
"494 625 QCURVE SMOOTH",
"506 625 OFFCURVE",
"563 607 OFFCURVE",
"572 596 QCURVE SMOOTH",
"585 581 OFFCURVE",
"585 524 QCURVE SMOOTH",
"585 289 LINE SMOOTH"
);
}
);
};
layerId = "6D340022-02C4-426D-A0D8-A7BFACBEB22E";
paths = (
{
closed = 1;
nodes = (
"585 266.333 OFFCURVE",
"584.333 252.667 OFFCURVE",
"583 248 CURVE",
"515.957 336.904 OFFCURVE",
"402.775 470.627 OFFCURVE",
"331.5 563.5 CURVE SMOOTH",
"298.5 606.5 OFFCURVE",
"276.333 639.333 OFFCURVE",
"265 662 CURVE",
"222.333 656.667 OFFCURVE",
"189.667 654 OFFCURVE",
"167 654 CURVE SMOOTH",
"149.667 654 OFFCURVE",
"125.167 655.167 OFFCURVE",
"93.5 657.5 CURVE SMOOTH",
"61.833 659.833 OFFCURVE",
"40.667 661.333 OFFCURVE",
"30 662 CURVE",
"24.667 656.667 OFFCURVE",
"26.667 625 OFFCURVE",
"32 625 CURVE SMOOTH",
"50.667 625 OFFCURVE",
"104.333 617.333 OFFCURVE",
"111 608 CURVE",
"121 595.333 OFFCURVE",
"126 571.667 OFFCURVE",
"126 537 CURVE SMOOTH",
"126 144 LINE SMOOTH",
"126 106 OFFCURVE",
"122.667 81.667 OFFCURVE",
"116 71 CURVE SMOOTH",
"98.586 41.976 OFFCURVE",
"51.341 33 OFFCURVE",
"31 33 CURVE SMOOTH",
"29 33 OFFCURVE",
"28 26.667 OFFCURVE",
"28 14 CURVE SMOOTH",
"28 4 OFFCURVE",
"29 -2 OFFCURVE",
"31 -4 CURVE",
"212.223 6.068 OFFCURVE",
"86.738 -4 OFFCURVE",
"290 -4 CURVE",
"292.667 1.333 OFFCURVE",
"292 34 OFFCURVE",
"288 34 CURVE SMOOTH",
"268 34 OFFCURVE",
"210 47.333 OFFCURVE",
"198 70 CURVE SMOOTH",
"192.667 80.667 OFFCURVE",
"190 104.333 OFFCURVE",
"190 141 CURVE SMOOTH",
"190 524 LINE",
"597 18 LINE SMOOTH",
"609.667 2.667 OFFCURVE",
"620 -5 OFFCURVE",
"628 -5 CURVE SMOOTH",
"642 -5 OFFCURVE",
"650.333 -3.667 OFFCURVE",
"653 -1 CURVE",
"650.333 68.333 OFFCURVE",
"649 115 OFFCURVE",
"649 139 CURVE SMOOTH",
"649 519 LINE SMOOTH",
"649 556.333 OFFCURVE",
"653.667 580.667 OFFCURVE",
"663 592 CURVE SMOOTH",
"681.667 614 OFFCURVE",
"709.333 625 OFFCURVE",
"746 625 CURVE SMOOTH",
"749.333 625 OFFCURVE",
"751 631.333 OFFCURVE",
"751 644 CURVE SMOOTH",
"751 650.667 OFFCURVE",
"749.667 656.667 OFFCURVE",
"747 662 CURVE",
"731 660.667 OFFCURVE",
"656.333 654 OFFCURVE",
"623 654 CURVE SMOOTH",
"596.333 654 OFFCURVE",
"552.333 656.667 OFFCURVE",
"491 662 CURVE",
"487 656.667 OFFCURVE",
"488.667 625 OFFCURVE",
"494 625 CURVE SMOOTH",
"510 625 OFFCURVE",
"560 610.667 OFFCURVE",
"572 596 CURVE SMOOTH",
"580.667 586 OFFCURVE",
"585 562 OFFCURVE",
"585 524 CURVE SMOOTH",
"585 289 LINE SMOOTH"
);
}
);
width = 777;
}
);
note = N;
unicode = 004E;
},
{
glyphname = O;
lastChange = "2018-03-09 10:42:30 +0000";
layers = (
{
background = {
paths = (
{
closed = 1;
nodes = (
"512 198 OFFCURVE",
"437 46 OFFCURVE",
"362 46 QCURVE SMOOTH",
"313 46 OFFCURVE",
"239 105 OFFCURVE",
"200 200 OFFCURVE",
"181 299 OFFCURVE",
"181 350 QCURVE SMOOTH",
"181 422 OFFCURVE",
"208 534 OFFCURVE",
"278 611 OFFCURVE",
"331 611 QCURVE SMOOTH",
"383 611 OFFCURVE",
"457 556 OFFCURVE",
"495 463 OFFCURVE",
"512 364 OFFCURVE",
"512 309 QCURVE SMOOTH"
);
},
{
closed = 1;
nodes = (
"478 -10 OFFCURVE",
"668 188 OFFCURVE",
"668 468 OFFCURVE",
"478 667 OFFCURVE",
"214 667 OFFCURVE",
"25 468 OFFCURVE",
"25 188 OFFCURVE",
"214 -10 OFFCURVE"
);
}
);
};
layerId = "6D340022-02C4-426D-A0D8-A7BFACBEB22E";
paths = (
{
closed = 1;
nodes = (
"512 161 OFFCURVE",
"462 46 OFFCURVE",
"362 46 CURVE SMOOTH",
"230.257 46 OFFCURVE",
"181 212.995 OFFCURVE",
"181 350 CURVE SMOOTH",
"181 446 OFFCURVE",
"196.333 521.167 OFFCURVE",
"243 572.5 CURVE SMOOTH",
"266.333 598.167 OFFCURVE",
"295.667 611 OFFCURVE",
"331 611 CURVE SMOOTH",
"469.541 611 OFFCURVE",
"512 456.007 OFFCURVE",
"512 309 CURVE SMOOTH"
);
},
);
width = 695;
}
);
note = O;
unicode = 004F;
},
{
glyphname = P;
lastChange = "2018-03-09 10:42:30 +0000";
layers = (
{
background = {
paths = (
{
closed = 1;
nodes = (
"26 661 OFFCURVE",
"26 645 QCURVE SMOOTH",
"26 627 OFFCURVE",
"30 627 QCURVE SMOOTH",
"41 627 OFFCURVE",
"94 607 OFFCURVE",
"97 599 QCURVE",
"103 576 OFFCURVE",
"103 521 QCURVE SMOOTH",
"103 143 LINE SMOOTH",
"103 78 OFFCURVE",
"97 55 QCURVE",
"94 47 OFFCURVE",
"43 33 OFFCURVE",
"31 33 QCURVE SMOOTH",
"27 33 OFFCURVE",
"27 13 QCURVE SMOOTH",
"27 0 OFFCURVE",
"31 -4 QCURVE",
"177 2 LINE",
"210 2 OFFCURVE",
"330 -4 QCURVE",
"332 2 OFFCURVE",
"332 14 QCURVE SMOOTH",
"332 33 OFFCURVE",
"328 33 QCURVE SMOOTH",
"313 33 OFFCURVE",
"253 47 OFFCURVE",
"250 59 QCURVE SMOOTH",
"243 90 OFFCURVE",
"243 141 QCURVE SMOOTH",
"243 499 LINE SMOOTH",
"243 588 OFFCURVE",
"255 597 QCURVE SMOOTH",
"266 605 OFFCURVE",
"301 605 QCURVE SMOOTH",
"393 605 OFFCURVE",
"393 468 QCURVE SMOOTH",
"393 332 OFFCURVE",
"309 332 QCURVE SMOOTH",
"277 332 OFFCURVE",
"264 340 QCURVE",
"259 340 OFFCURVE",
"261 308 OFFCURVE",
"265 302 QCURVE SMOOTH",
"267 299 OFFCURVE",
"283 290 OFFCURVE",
"315 280 OFFCURVE",
"331 280 QCURVE SMOOTH",
"420 280 OFFCURVE",
"545 398 OFFCURVE",
"545 479 QCURVE SMOOTH",
"545 543 OFFCURVE",
"467 630 OFFCURVE",
"363 662 OFFCURVE",
"304 662 QCURVE SMOOTH",
"274 662 OFFCURVE",
"205 659 OFFCURVE",
"176 659 QCURVE SMOOTH",
"119 659 OFFCURVE",
"29 664 QCURVE"
);
}
);
};
layerId = "6D340022-02C4-426D-A0D8-A7BFACBEB22E";
paths = (
{
closed = 1;
nodes = (
"27 662 OFFCURVE",
"26 655.667 OFFCURVE",
"26 645 CURVE SMOOTH",
"26 633 OFFCURVE",
"27.333 627 OFFCURVE",
"30 627 CURVE SMOOTH",
"44.667 627 OFFCURVE",
"93 609.667 OFFCURVE",
"97 599 CURVE",
"101 583.667 OFFCURVE",
"103 557.667 OFFCURVE",
"103 521 CURVE SMOOTH",
"103 143 LINE SMOOTH",
"103 99.667 OFFCURVE",
"101 70.333 OFFCURVE",
"97 55 CURVE",
"93 44.333 OFFCURVE",
"47 33 OFFCURVE",
"31 33 CURVE SMOOTH",
"28.333 33 OFFCURVE",
"27 26.333 OFFCURVE",
"27 13 CURVE SMOOTH",
"27 4.333 OFFCURVE",
"28.333 -1.333 OFFCURVE",
"31 -4 CURVE",
"177 2 LINE",
"199 2 OFFCURVE",
"250 0 OFFCURVE",
"330 -4 CURVE",
"331.333 0 OFFCURVE",
"332 6 OFFCURVE",
"332 14 CURVE SMOOTH",
"332 26.667 OFFCURVE",
"330.667 33 OFFCURVE",
"328 33 CURVE SMOOTH",
"308 33 OFFCURVE",
"254 43 OFFCURVE",
"250 59 CURVE SMOOTH",
"245.333 79.667 OFFCURVE",
"243 107 OFFCURVE",
"243 141 CURVE SMOOTH",
"243 499 LINE SMOOTH",
"243 558.333 OFFCURVE",
"247 591 OFFCURVE",
"255 597 CURVE SMOOTH",
"262.333 602.333 OFFCURVE",
"277.667 605 OFFCURVE",
"301 605 CURVE SMOOTH",
"362.333 605 OFFCURVE",
"393 559.333 OFFCURVE",
"393 468 CURVE SMOOTH",
"393 377.333 OFFCURVE",
"365 332 OFFCURVE",
"309 332 CURVE SMOOTH",
"287.667 332 OFFCURVE",
"272.667 334.667 OFFCURVE",
"264 340 CURVE",
"257.333 340 OFFCURVE",
"259.667 310 OFFCURVE",
"265 302 CURVE SMOOTH",
"270.754 293.37 OFFCURVE",
"308.073 280 OFFCURVE",
"331 280 CURVE SMOOTH",
"449.667 280 OFFCURVE",
"545 371 OFFCURVE",
"545 479 CURVE SMOOTH",
"545 564.333 OFFCURVE",
"484.333 624.667 OFFCURVE",
"415 646 CURVE SMOOTH",
"380.333 656.667 OFFCURVE",
"343.333 662 OFFCURVE",
"304 662 CURVE SMOOTH",
"284 662 OFFCURVE",
"262.5 661.5 OFFCURVE",
"239.5 660.5 CURVE SMOOTH",
"216.5 659.5 OFFCURVE",
"195.333 659 OFFCURVE",
"176 659 CURVE SMOOTH",
"138 659 OFFCURVE",
"89 660.667 OFFCURVE",
"29 664 CURVE"
);
}
);
width = 572;
}
);
note = P;
unicode = 0050;
},
{
glyphname = Thorn;
lastChange = "2018-03-09 10:42:30 +0000";
layers = (
{
background = {
paths = (
{
closed = 1;
nodes = (
"8 660 OFFCURVE",
"8 642 QCURVE SMOOTH",
"8 625 OFFCURVE",
"12 625 QCURVE SMOOTH",
"23 625 OFFCURVE",
"69 608 OFFCURVE",
"74 600 QCURVE",
"82 586 OFFCURVE",
"82 522 QCURVE SMOOTH",
"82 138 LINE SMOOTH",
"82 85 OFFCURVE",
"75 58 QCURVE",
"72 50 OFFCURVE",
"20 33 OFFCURVE",
"9 33 QCURVE SMOOTH",
"6 33 OFFCURVE",
"6 12 QCURVE SMOOTH",
"6 0 OFFCURVE",
"10 -4 QCURVE",
"24 -3 OFFCURVE",
"128 4 OFFCURVE",
"155 4 QCURVE SMOOTH",
"181 4 OFFCURVE",
"287 -4 OFFCURVE",
"294 -4 QCURVE",
"296 2 OFFCURVE",
"296 14 QCURVE SMOOTH",
"296 33 OFFCURVE",
"292 33 QCURVE SMOOTH",
"283 33 OFFCURVE",
"232 51 OFFCURVE",
"230 58 QCURVE SMOOTH",
"222 89 OFFCURVE",
"222 141 QCURVE SMOOTH",
"222 359 LINE SMOOTH",
"222 406 OFFCURVE",
"226 451 OFFCURVE",
"229 457 OFFCURVE",
"234 460 QCURVE SMOOTH",
"242 465 OFFCURVE",
"280 465 QCURVE SMOOTH",
"372 465 OFFCURVE",
"372 328 QCURVE SMOOTH",
"372 192 OFFCURVE",
"288 192 QCURVE SMOOTH",
"256 192 OFFCURVE",
"243 200 QCURVE",
"238 200 OFFCURVE",
"240 168 OFFCURVE",
"244 162 QCURVE SMOOTH",
"246 159 OFFCURVE",
"262 150 OFFCURVE",
"294 140 OFFCURVE",
"310 140 QCURVE SMOOTH",
"399 140 OFFCURVE",
"524 258 OFFCURVE",
"524 339 QCURVE SMOOTH",
"524 387 OFFCURVE",
"477 462 OFFCURVE",
"404 501 OFFCURVE",
"330 520 OFFCURVE",
"296 520 QCURVE SMOOTH",
"281 520 OFFCURVE",
"247 516 OFFCURVE",
"236 514 QCURVE SMOOTH",
"226 512 LINE",
"222 512 OFFCURVE",
"222 516 QCURVE SMOOTH",
"222 521 LINE SMOOTH",
"222 574 OFFCURVE",
"229 601 QCURVE SMOOTH",
"231 608 OFFCURVE",
"285 625 OFFCURVE",
"294 625 QCURVE SMOOTH",
"298 625 OFFCURVE",
"298 644 QCURVE SMOOTH",
"298 653 OFFCURVE",
"295 662 QCURVE",
"175 656 OFFCURVE",
"155 656 QCURVE SMOOTH",
"148 656 OFFCURVE",
"10 662 QCURVE"
);
}
);
};
layerId = "6D340022-02C4-426D-A0D8-A7BFACBEB22E";
paths = (
{
closed = 1;
nodes = (
"8.667 660.667 OFFCURVE",
"8 654 OFFCURVE",
"8 642 CURVE SMOOTH",
"8 630.667 OFFCURVE",
"9.333 625 OFFCURVE",
"12 625 CURVE SMOOTH",
"26.667 625 OFFCURVE",
"67.333 610.667 OFFCURVE",
"74 600 CURVE",
"79.333 590.667 OFFCURVE",
"82 564.667 OFFCURVE",
"82 522 CURVE SMOOTH",
"82 138 LINE SMOOTH",
"82 102.667 OFFCURVE",
"79.667 76 OFFCURVE",
"75 58 CURVE",
"71 47.333 OFFCURVE",
"23.667 33 OFFCURVE",
"9 33 CURVE SMOOTH",
"7 33 OFFCURVE",
"6 26 OFFCURVE",
"6 12 CURVE SMOOTH",
"6 4 OFFCURVE",
"7.333 -1.333 OFFCURVE",
"10 -4 CURVE",
"28.667 -2.667 OFFCURVE",
"119 4 OFFCURVE",
"155 4 CURVE SMOOTH",
"172.333 4 OFFCURVE",
"198.667 2.667 OFFCURVE",
"234 0 CURVE SMOOTH",
"269.333 -2.667 OFFCURVE",
"289.333 -4 OFFCURVE",
"294 -4 CURVE",
"295.333 0 OFFCURVE",
"296 6 OFFCURVE",
"296 14 CURVE SMOOTH",
"296 26.667 OFFCURVE",
"294.667 33 OFFCURVE",
"292 33 CURVE SMOOTH",
"280 33 OFFCURVE",
"232.667 48.667 OFFCURVE",
"230 58 CURVE SMOOTH",
"224.667 78.667 OFFCURVE",
"222 106.333 OFFCURVE",
"222 141 CURVE SMOOTH",
"222 359 LINE SMOOTH",
"222 405.956 OFFCURVE",
"220.46 451.876 OFFCURVE",
"234 460 CURVE SMOOTH",
"239.333 463.333 OFFCURVE",
"254.667 465 OFFCURVE",
"280 465 CURVE SMOOTH",
"341.333 465 OFFCURVE",
"372 419.333 OFFCURVE",
"372 328 CURVE SMOOTH",
"372 237.333 OFFCURVE",
"344 192 OFFCURVE",
"288 192 CURVE SMOOTH",
"266.667 192 OFFCURVE",
"251.667 194.667 OFFCURVE",
"243 200 CURVE",
"236.333 200 OFFCURVE",
"238.667 170 OFFCURVE",
"244 162 CURVE SMOOTH",
"249.754 153.37 OFFCURVE",
"287.073 140 OFFCURVE",
"310 140 CURVE SMOOTH",
"428.667 140 OFFCURVE",
"524 231 OFFCURVE",
"524 339 CURVE SMOOTH",
"524 463.154 OFFCURVE",
"399.964 520 OFFCURVE",
"296 520 CURVE SMOOTH",
"276 520 OFFCURVE",
"250.667 516.667 OFFCURVE",
"236 514 CURVE SMOOTH",
"226 512 LINE",
"223.333 512 OFFCURVE",
"222 513.333 OFFCURVE",
"222 516 CURVE SMOOTH",
"222 521 LINE SMOOTH",
"222 556.333 OFFCURVE",
"224.333 583 OFFCURVE",
"229 601 CURVE SMOOTH",
"231.667 610.333 OFFCURVE",
"282 625 OFFCURVE",
"294 625 CURVE SMOOTH",
"296.667 625 OFFCURVE",
"298 631.333 OFFCURVE",
"298 644 CURVE SMOOTH",
"298 650 OFFCURVE",
"297 656 OFFCURVE",
"295 662 CURVE",
"215 658 OFFCURVE",
"168.333 656 OFFCURVE",
"155 656 CURVE SMOOTH",
"150.333 656 OFFCURVE",
"102 658 OFFCURVE",
"10 662 CURVE"
);
}
);
width = 572;
}
);
note = Thorn;
unicode = 00DE;
},
{
glyphname = Q;
lastChange = "2018-03-09 10:42:30 +0000";
layers = (
{
background = {
paths = (
{
closed = 1;
nodes = (
"510 198 OFFCURVE",
"435 51 OFFCURVE",
"360 51 QCURVE SMOOTH",
"311 51 OFFCURVE",
"237 108 OFFCURVE",
"198 201 OFFCURVE",
"179 300 OFFCURVE",
"179 350 QCURVE SMOOTH",
"179 461 OFFCURVE",
"251 603 OFFCURVE",
"329 603 QCURVE SMOOTH",
"381 603 OFFCURVE",
"455 550 OFFCURVE",
"493 460 OFFCURVE",
"510 364 OFFCURVE",
"510 309 QCURVE SMOOTH"
);
},
{
closed = 1;
nodes = (
"517 20 OFFCURVE",
"664 200 OFFCURVE",
"664 328 QCURVE SMOOTH",
"664 468 OFFCURVE",
"476 667 OFFCURVE",
"212 667 OFFCURVE",
"25 468 OFFCURVE",
"25 328 QCURVE SMOOTH",
"25 262 OFFCURVE",
"72 143 OFFCURVE",
"146 63 OFFCURVE",
"222 11 OFFCURVE",
"258 0 QCURVE SMOOTH",
"300 -13 OFFCURVE",
"407 -87 OFFCURVE",
"505 -143 OFFCURVE",
"553 -143 QCURVE SMOOTH",
"597 -143 OFFCURVE",
"707 -112 OFFCURVE",
"750 -89 QCURVE",
"750 -84 LINE SMOOTH",
"750 -64 OFFCURVE",
"738 -64 QCURVE SMOOTH",
"736 -64 OFFCURVE",
"714 -69 OFFCURVE",
"680 -74 OFFCURVE",
"662 -74 QCURVE SMOOTH",
"625 -74 OFFCURVE",
"566 -61 OFFCURVE",
"533 -45 OFFCURVE",
"466 -7 OFFCURVE",
"440 5 QCURVE"
);
}
);
};
layerId = "6D340022-02C4-426D-A0D8-A7BFACBEB22E";
paths = (
{
closed = 1;
nodes = (
"510 161 OFFCURVE",
"460 51 OFFCURVE",
"360 51 CURVE SMOOTH",
"228.438 51 OFFCURVE",
"179 211.998 OFFCURVE",
"179 350 CURVE SMOOTH",
"179 498 OFFCURVE",
"225 603 OFFCURVE",
"329 603 CURVE SMOOTH",
"467.637 603 OFFCURVE",
"510 454.205 OFFCURVE",
"510 309 CURVE SMOOTH"
);
},
{
closed = 1;
nodes = (
"542.667 25 OFFCURVE",
"664 157.333 OFFCURVE",
"664 328 CURVE SMOOTH",
"664 514.667 OFFCURVE",
"520 667 OFFCURVE",
"344 667 CURVE SMOOTH",
"168 667 OFFCURVE",
"25 514.667 OFFCURVE",
"25 328 CURVE SMOOTH",
"25 240 OFFCURVE",
"59.667 156.333 OFFCURVE",
"109 103 CURVE SMOOTH",
"158.333 49.667 OFFCURVE",
"210 14.667 OFFCURVE",
"258 0 CURVE SMOOTH",
"312.944 -17.006 OFFCURVE",
"395.833 -80.619 OFFCURVE",
"456 -115 CURVE SMOOTH",
"488.667 -133.667 OFFCURVE",
"521 -143 OFFCURVE",
"553 -143 CURVE SMOOTH",
"611.667 -143 OFFCURVE",
"692.667 -119.667 OFFCURVE",
"750 -89 CURVE",
"750 -84 LINE SMOOTH",
"750 -70.667 OFFCURVE",
"746 -64 OFFCURVE",
"738 -64 CURVE SMOOTH",
"732.053 -64 OFFCURVE",
"685.774 -74 OFFCURVE",
"662 -74 CURVE SMOOTH",
"612.667 -74 OFFCURVE",
"571.5 -63.667 OFFCURVE",
"549.5 -53 CURVE SMOOTH",
"522.441 -39.88 OFFCURVE",
"476.859 -12.012 OFFCURVE",
"440 5 CURVE"
);
}
);
width = 775;
}
);
note = Q;
unicode = 0051;
},
{
glyphname = R;
lastChange = "2018-03-09 10:42:30 +0000";
layers = (
{
background = {
paths = (
{
closed = 1;
nodes = (
"394 416 OFFCURVE",
"351 348 OFFCURVE",
"312 348 QCURVE SMOOTH",
"285 348 LINE SMOOTH",
"276 348 OFFCURVE",
"264 350 OFFCURVE",
"250 358 OFFCURVE",
"243 376 OFFCURVE",
"243 391 QCURVE SMOOTH",
"243 499 LINE SMOOTH",
"244 589 OFFCURVE",
"266 605 OFFCURVE",
"301 605 QCURVE SMOOTH",
"394 605 OFFCURVE",
"394 472 QCURVE SMOOTH"
);
},
{
closed = 1;
nodes = (
"121 659 OFFCURVE",
"29 664 QCURVE",
"26 661 OFFCURVE",
"26 645 QCURVE SMOOTH",
"26 627 OFFCURVE",
"30 627 QCURVE SMOOTH",
"41 627 OFFCURVE",
"94 607 OFFCURVE",
"97 599 QCURVE",
"103 576 OFFCURVE",
"103 521 QCURVE SMOOTH",
"103 143 LINE SMOOTH",
"103 78 OFFCURVE",
"97 55 QCURVE",
"94 47 OFFCURVE",
"43 33 OFFCURVE",
"31 33 QCURVE SMOOTH",
"27 33 OFFCURVE",
"27 13 QCURVE SMOOTH",
"27 0 OFFCURVE",
"31 -4 QCURVE",
"177 2 LINE",
"210 2 OFFCURVE",
"330 -4 QCURVE",
"332 2 OFFCURVE",
"332 14 QCURVE SMOOTH",
"332 33 OFFCURVE",
"328 33 QCURVE SMOOTH",
"313 33 OFFCURVE",
"253 47 OFFCURVE",
"250 59 QCURVE SMOOTH",
"243 90 OFFCURVE",
"243 141 QCURVE SMOOTH",
"243 277 LINE SMOOTH",
"243 293 OFFCURVE",
"252 293 QCURVE SMOOTH",
"260 293 OFFCURVE",
"263 292 QCURVE",
"268 290 OFFCURVE",
"283 274 OFFCURVE",
"305 242 OFFCURVE",
"324 213 OFFCURVE",
"356 163 OFFCURVE",
"366 147 QCURVE SMOOTH",
"386 116 OFFCURVE",
"410 84 OFFCURVE",
"459 36 OFFCURVE",
"508 12 OFFCURVE",
"589 -7 OFFCURVE",
"638 -7 QCURVE SMOOTH",
"659 -7 OFFCURVE",
"673 -5 QCURVE",
"677 4 OFFCURVE",
"677 15 QCURVE SMOOTH",
"677 28 OFFCURVE",
"673 33 QCURVE",
"635 33 OFFCURVE",
"554 98 OFFCURVE",
"529 135 QCURVE SMOOTH",
"516 154 OFFCURVE",
"473 213 OFFCURVE",
"442 262 OFFCURVE",
"420 299 QCURVE SMOOTH",
"415 307 OFFCURVE",
"423 310 QCURVE",
"468 325 OFFCURVE",
"546 425 OFFCURVE",
"546 492 QCURVE SMOOTH",
"546 538 OFFCURVE",
"498 607 OFFCURVE",
"424 643 OFFCURVE",
"350 660 OFFCURVE",
"316 660 QCURVE SMOOTH",
"286 660 OFFCURVE",
"203 659 OFFCURVE",
"176 659 QCURVE SMOOTH"
);
}
);
};
layerId = "6D340022-02C4-426D-A0D8-A7BFACBEB22E";
paths = (
{
closed = 1;
nodes = (
"394 397.333 OFFCURVE",
"364 348 OFFCURVE",
"312 348 CURVE SMOOTH",
"285 348 LINE SMOOTH",
"259.631 348 OFFCURVE",
"243 354.995 OFFCURVE",
"243 391 CURVE SMOOTH",
"243 499 LINE SMOOTH",
"243.667 559 OFFCURVE",
"247.667 591.667 OFFCURVE",
"255 597 CURVE SMOOTH",
"262.333 602.333 OFFCURVE",
"277.667 605 OFFCURVE",
"301 605 CURVE SMOOTH",
"363 605 OFFCURVE",
"394 560.667 OFFCURVE",
"394 472 CURVE SMOOTH"
);
},
{
closed = 1;
nodes = (
"139.333 659 OFFCURVE",
"90.333 660.667 OFFCURVE",
"29 664 CURVE",
"27 662 OFFCURVE",
"26 655.667 OFFCURVE",
"26 645 CURVE SMOOTH",
"26 633 OFFCURVE",
"27.333 627 OFFCURVE",
"30 627 CURVE SMOOTH",
"44.667 627 OFFCURVE",
"93 609.667 OFFCURVE",
"97 599 CURVE",
"101 583.667 OFFCURVE",
"103 557.667 OFFCURVE",
"103 521 CURVE SMOOTH",
"103 143 LINE SMOOTH",
"103 99.667 OFFCURVE",
"101 70.333 OFFCURVE",
"97 55 CURVE",
"93 44.333 OFFCURVE",
"47 33 OFFCURVE",
"31 33 CURVE SMOOTH",
"28.333 33 OFFCURVE",
"27 26.333 OFFCURVE",
"27 13 CURVE SMOOTH",
"27 4.333 OFFCURVE",
"28.333 -1.333 OFFCURVE",
"31 -4 CURVE",
"177 2 LINE",
"199 2 OFFCURVE",
"250 0 OFFCURVE",
"330 -4 CURVE",
"331.333 0 OFFCURVE",
"332 6 OFFCURVE",
"332 14 CURVE SMOOTH",
"332 26.667 OFFCURVE",
"330.667 33 OFFCURVE",
"328 33 CURVE SMOOTH",
"308 33 OFFCURVE",
"254 43 OFFCURVE",
"250 59 CURVE SMOOTH",
"245.333 79.667 OFFCURVE",
"243 107 OFFCURVE",
"243 141 CURVE SMOOTH",
"243 277 LINE SMOOTH",
"243 287.667 OFFCURVE",
"246 293 OFFCURVE",
"252 293 CURVE SMOOTH",
"257.333 293 OFFCURVE",
"261 292.667 OFFCURVE",
"263 292 CURVE",
"266.333 290.667 OFFCURVE",
"270.5 287.333 OFFCURVE",
"275.5 282 CURVE SMOOTH",
"280.5 276.667 OFFCURVE",
"286.667 268.667 OFFCURVE",
"294 258 CURVE SMOOTH",
"301.333 247.333 OFFCURVE",
"308.167 237.167 OFFCURVE",
"314.5 227.5 CURVE SMOOTH",
"320.833 217.833 OFFCURVE",
"338 191 OFFCURVE",
"366 147 CURVE SMOOTH",
"392.667 105.667 OFFCURVE",
"401.833 92 OFFCURVE",
"434.5 60 CURVE SMOOTH",
"450.833 44 OFFCURVE",
"467.167 32 OFFCURVE",
"483.5 24 CURVE SMOOTH",
"499.833 16 OFFCURVE",
"551.333 5.667 OFFCURVE",
"638 -7 CURVE",
"652 -7 OFFCURVE",
"663.667 -6.333 OFFCURVE",
"673 -5 CURVE",
"675.667 1 OFFCURVE",
"677 7.667 OFFCURVE",
"677 15 CURVE SMOOTH",
"677 23.667 OFFCURVE",
"675.667 29.667 OFFCURVE",
"673 33 CURVE",
"622.333 33 OFFCURVE",
"562.333 85.667 OFFCURVE",
"529 135 CURVE SMOOTH",
"476.286 212.043 OFFCURVE",
"469.806 215.235 OFFCURVE",
"420 299 CURVE SMOOTH",
"416.667 304.333 OFFCURVE",
"417.667 308 OFFCURVE",
"423 310 CURVE",
"483 330 OFFCURVE",
"546 402.667 OFFCURVE",
"546 492 CURVE SMOOTH",
"546 610.798 OFFCURVE",
"416.744 660 OFFCURVE",
"316 660 CURVE SMOOTH",
"296 660 OFFCURVE",
"272.167 659.833 OFFCURVE",
"244.5 659.5 CURVE SMOOTH",
"216.833 659.167 OFFCURVE",
"194 659 OFFCURVE",
"176 659 CURVE SMOOTH"
);
}
);
width = 709;
}
);
note = R;
unicode = 0052;
},
{
glyphname = S;
lastChange = "2018-03-09 10:42:30 +0000";
layers = (
{
background = {
paths = (
{
closed = 1;
nodes = (
"172 298 OFFCURVE",
"177 295 QCURVE",
"184 290 OFFCURVE",
"235 258 OFFCURVE",
"263 238 OFFCURVE",
"299 206 OFFCURVE",
"317 173 OFFCURVE",
"317 156 QCURVE SMOOTH",
"317 47 OFFCURVE",
"218 47 QCURVE SMOOTH",
"167 47 OFFCURVE",
"83 140 OFFCURVE",
"75 186 QCURVE SMOOTH",
"74 192 OFFCURVE",
"43 192 QCURVE SMOOTH",
"28 192 OFFCURVE",
"25 182 QCURVE",
"25 159 OFFCURVE",
"40 48 OFFCURVE",
"48 16 QCURVE",
"159 -10 OFFCURVE",
"238 -10 QCURVE SMOOTH",
"324 -10 OFFCURVE",
"456 95 OFFCURVE",
"456 175 QCURVE SMOOTH",
"456 207 OFFCURVE",
"442 260 OFFCURVE",
"425 293 OFFCURVE",
"388 327 OFFCURVE",
"367 342 OFFCURVE",
"317 372 OFFCURVE",
"309 377 QCURVE SMOOTH",
"304 380 OFFCURVE",
"295 386 QCURVE SMOOTH",
"261 408 OFFCURVE",
"231 428 OFFCURVE",
"184 468 OFFCURVE",
"164 506 OFFCURVE",
"164 526 QCURVE SMOOTH",
"164 572 OFFCURVE",
"211 614 OFFCURVE",
"245 614 QCURVE SMOOTH",
"298 614 OFFCURVE",
"370 523 OFFCURVE",
"377 473 QCURVE",
"379 466 OFFCURVE",
"408 466 QCURVE SMOOTH",
"419 466 OFFCURVE",
"423 476 QCURVE",
"423 545 OFFCURVE",
"412 642 QCURVE",
"396 645 OFFCURVE",
"341 658 OFFCURVE",
"310 664 OFFCURVE",
"265 670 OFFCURVE",
"244 670 QCURVE SMOOTH",
"164 670 OFFCURVE",
"31 564 OFFCURVE",
"31 489 QCURVE SMOOTH",
"31 454 OFFCURVE",
"50 399 OFFCURVE",
"95 353 OFFCURVE",
"129 327 OFFCURVE",
"162 305 QCURVE SMOOTH"
);
}
);
};
layerId = "6D340022-02C4-426D-A0D8-A7BFACBEB22E";
paths = (
{
closed = 1;
nodes = (
"168.667 300.333 OFFCURVE",
"173.667 297 OFFCURVE",
"177 295 CURVE",
"181.667 291.667 OFFCURVE",
"192.5 284.667 OFFCURVE",
"209.5 274 CURVE SMOOTH",
"226.5 263.333 OFFCURVE",
"239.667 254.667 OFFCURVE",
"249 248 CURVE SMOOTH",
"258.333 241.333 OFFCURVE",
"269 232.667 OFFCURVE",
"281 222 CURVE SMOOTH",
"293 211.333 OFFCURVE",
"305 189.333 OFFCURVE",
"317 156 CURVE",
"317 83.333 OFFCURVE",
"284 47 OFFCURVE",
"218 47 CURVE SMOOTH",
"150 47 OFFCURVE",
"85.667 124.667 OFFCURVE",
"75 186 CURVE SMOOTH",
"74.333 190 OFFCURVE",
"63.667 192 OFFCURVE",
"43 192 CURVE SMOOTH",
"33 192 OFFCURVE",
"27 188.667 OFFCURVE",
"25 182 CURVE",
"25 151.333 OFFCURVE",
"37.333 58.667 OFFCURVE",
"48 16 CURVE",
"122 -1.333 OFFCURVE",
"185.333 -10 OFFCURVE",
"238 -10 CURVE SMOOTH",
"352.667 -10 OFFCURVE",
"456 68.333 OFFCURVE",
"456 175 CURVE SMOOTH",
"456 235.84 OFFCURVE",
"438.349 280.733 OFFCURVE",
"406.5 310 CURVE SMOOTH",
"373.721 340.121 OFFCURVE",
"344.428 354.857 OFFCURVE",
"309 377 CURVE SMOOTH",
"305.667 379 OFFCURVE",
"301 382 OFFCURVE",
"295 386 CURVE SMOOTH",
"233.005 426.115 OFFCURVE",
"164 465.934 OFFCURVE",
"164 526 CURVE SMOOTH",
"164 587.333 OFFCURVE",
"199.667 614 OFFCURVE",
"245 614 CURVE SMOOTH",
"315.667 614 OFFCURVE",
"367.667 539.667 OFFCURVE",
"377 473 CURVE",
"378.333 468.333 OFFCURVE",
"388.667 466 OFFCURVE",
"408 466 CURVE SMOOTH",
"415.333 466 OFFCURVE",
"420.333 469.333 OFFCURVE",
"423 476 CURVE",
"423 522 OFFCURVE",
"419.333 577.333 OFFCURVE",
"412 642 CURVE",
"362.375 651.305 OFFCURVE",
"299.905 670 OFFCURVE",
"244 670 CURVE SMOOTH",
"137.333 670 OFFCURVE",
"31 589 OFFCURVE",
"31 489 CURVE SMOOTH",
"31 392.354 OFFCURVE",
"91.255 352.163 OFFCURVE",
"162 305 CURVE SMOOTH"
);
}
);
width = 483;
}
);
note = S;
unicode = 0053;
},
{
glyphname = T;
lastChange = "2018-03-09 10:42:30 +0000";
layers = (
{
background = {
paths = (
{
closed = 1;
nodes = (
"87 663 OFFCURVE",
"43 674 QCURVE",
"24 511 LINE",
"31 504 OFFCURVE",
"53 504 QCURVE SMOOTH",
"62 504 OFFCURVE",
"63 509 QCURVE",
"77 562 OFFCURVE",
"129 607 OFFCURVE",
"170 607 QCURVE SMOOTH",
"206 607 OFFCURVE",
"244 600 OFFCURVE",
"249 595 OFFCURVE",
"252 589 QCURVE",
"260 575 OFFCURVE",
"260 497 QCURVE SMOOTH",
"260 135 LINE SMOOTH",
"260 85 OFFCURVE",
"253 58 QCURVE",
"250 50 OFFCURVE",
"198 33 OFFCURVE",
"187 33 QCURVE SMOOTH",
"184 33 OFFCURVE",
"184 12 QCURVE SMOOTH",
"184 0 OFFCURVE",
"188 -4 QCURVE",
"202 -3 OFFCURVE",
"306 4 OFFCURVE",
"333 4 QCURVE SMOOTH",
"359 4 OFFCURVE",
"465 -4 OFFCURVE",
"472 -4 QCURVE",
"474 2 OFFCURVE",
"474 14 QCURVE SMOOTH",
"474 33 OFFCURVE",
"470 33 QCURVE SMOOTH",
"461 33 OFFCURVE",
"410 51 OFFCURVE",
"408 58 QCURVE SMOOTH",
"400 89 OFFCURVE",
"400 139 QCURVE SMOOTH",
"400 500 LINE SMOOTH",
"400 561 OFFCURVE",
"408 589 QCURVE",
"412 607 OFFCURVE",
"493 607 QCURVE SMOOTH",
"575 607 OFFCURVE",
"600 508 QCURVE",
"601 503 OFFCURVE",
"610 503 QCURVE SMOOTH",
"632 503 OFFCURVE",
"639 510 QCURVE",
"620 674 LINE",
"576 663 OFFCURVE",
"551 663 QCURVE SMOOTH",
"509 663 OFFCURVE",
"373 657 OFFCURVE",
"289 657 OFFCURVE",
"154 663 OFFCURVE",
"112 663 QCURVE SMOOTH"
);
}
);
};
layerId = "6D340022-02C4-426D-A0D8-A7BFACBEB22E";
paths = (
{
closed = 1;
nodes = (
"95.333 663 OFFCURVE",
"72.333 666.667 OFFCURVE",
"43 674 CURVE",
"24 511 LINE",
"28.667 506.333 OFFCURVE",
"38.333 504 OFFCURVE",
"53 504 CURVE SMOOTH",
"59 504 OFFCURVE",
"62.333 505.667 OFFCURVE",
"63 509 CURVE",
"81.667 579.667 OFFCURVE",
"115.333 607 OFFCURVE",
"170 607 CURVE SMOOTH",
"214.12 607 OFFCURVE",
"243.464 606.072 OFFCURVE",
"252 589 CURVE",
"257.333 579.667 OFFCURVE",
"260 549 OFFCURVE",
"260 497 CURVE SMOOTH",
"260 135 LINE SMOOTH",
"260 101.667 OFFCURVE",
"257.667 76 OFFCURVE",
"253 58 CURVE",
"249 47.333 OFFCURVE",
"201.667 33 OFFCURVE",
"187 33 CURVE SMOOTH",
"185 33 OFFCURVE",
"184 26 OFFCURVE",
"184 12 CURVE SMOOTH",
"184 4 OFFCURVE",
"185.333 -1.333 OFFCURVE",
"188 -4 CURVE",
"206.667 -2.667 OFFCURVE",
"297 4 OFFCURVE",
"333 4 CURVE SMOOTH",
"350.333 4 OFFCURVE",
"376.667 2.667 OFFCURVE",
"412 0 CURVE SMOOTH",
"447.333 -2.667 OFFCURVE",
"467.333 -4 OFFCURVE",
"472 -4 CURVE",
"473.333 0 OFFCURVE",
"474 6 OFFCURVE",
"474 14 CURVE SMOOTH",
"474 26.667 OFFCURVE",
"472.667 33 OFFCURVE",
"470 33 CURVE SMOOTH",
"458 33 OFFCURVE",
"410.667 48.667 OFFCURVE",
"408 58 CURVE SMOOTH",
"402.667 78.667 OFFCURVE",
"400 105.667 OFFCURVE",
"400 139 CURVE SMOOTH",
"400 500 LINE SMOOTH",
"400 540.667 OFFCURVE",
"402.667 570.333 OFFCURVE",
"408 589 CURVE",
"410.667 601 OFFCURVE",
"439 607 OFFCURVE",
"493 607 CURVE SMOOTH",
"547.667 607 OFFCURVE",
"583.333 574 OFFCURVE",
"600 508 CURVE",
"600.667 504.667 OFFCURVE",
"604 503 OFFCURVE",
"610 503 CURVE SMOOTH",
"624.667 503 OFFCURVE",
"634.333 505.333 OFFCURVE",
"639 510 CURVE",
"620 674 LINE",
"590.667 666.667 OFFCURVE",
"567.667 663 OFFCURVE",
"551 663 CURVE SMOOTH",
"487.732 663 OFFCURVE",
"394.268 657 OFFCURVE",
"331 657 CURVE SMOOTH",
"268.073 657 OFFCURVE",
"174.927 663 OFFCURVE",
"112 663 CURVE SMOOTH"
);
}
);
width = 665;
}
);
note = T;
unicode = 0054;
},
{
glyphname = U;
lastChange = "2018-03-09 10:42:30 +0000";
layers = (
{
background = {
paths = (
{
closed = 1;
nodes = (
"24 660 OFFCURVE",
"24 642 QCURVE SMOOTH",
"24 625 OFFCURVE",
"28 625 QCURVE SMOOTH",
"39 625 OFFCURVE",
"85 608 OFFCURVE",
"90 600 QCURVE",
"98 586 OFFCURVE",
"98 522 QCURVE SMOOTH",
"98 311 LINE SMOOTH",
"98 147 OFFCURVE",
"246 -5 OFFCURVE",
"368 -5 QCURVE SMOOTH",
"482 -5 OFFCURVE",
"625 145 OFFCURVE",
"625 291 QCURVE SMOOTH",
"625 519 LINE SMOOTH",
"625 575 OFFCURVE",
"639 592 QCURVE SMOOTH",
"667 625 OFFCURVE",
"722 625 QCURVE SMOOTH",
"727 625 OFFCURVE",
"727 644 QCURVE SMOOTH",
"727 654 OFFCURVE",
"723 662 QCURVE",
"711 661 OFFCURVE",
"624 654 OFFCURVE",
"599 654 QCURVE SMOOTH",
"559 654 OFFCURVE",
"467 662 QCURVE",
"464 658 OFFCURVE",
"466 625 OFFCURVE",
"470 625 QCURVE SMOOTH",
"482 625 OFFCURVE",
"539 607 OFFCURVE",
"548 596 QCURVE SMOOTH",
"561 581 OFFCURVE",
"561 524 QCURVE SMOOTH",
"561 286 LINE SMOOTH",
"561 172 OFFCURVE",
"466 75 OFFCURVE",
"392 75 QCURVE SMOOTH",
"321 75 OFFCURVE",
"238 187 OFFCURVE",
"238 279 QCURVE SMOOTH",
"238 516 LINE SMOOTH",
"238 574 OFFCURVE",
"245 601 QCURVE SMOOTH",
"247 608 OFFCURVE",
"301 625 OFFCURVE",
"310 625 QCURVE SMOOTH",
"314 625 OFFCURVE",
"314 644 QCURVE SMOOTH",
"314 653 OFFCURVE",
"311 662 QCURVE",
"191 656 OFFCURVE",
"171 656 QCURVE SMOOTH",
"164 656 OFFCURVE",
"26 662 QCURVE"
);
}
);
};
layerId = "6D340022-02C4-426D-A0D8-A7BFACBEB22E";
paths = (
{
closed = 1;
nodes = (
"24.667 660.667 OFFCURVE",
"24 654 OFFCURVE",
"24 642 CURVE SMOOTH",
"24 630.667 OFFCURVE",
"25.333 625 OFFCURVE",
"28 625 CURVE SMOOTH",
"42.667 625 OFFCURVE",
"83.333 610.667 OFFCURVE",
"90 600 CURVE",
"95.333 590.667 OFFCURVE",
"98 564.667 OFFCURVE",
"98 522 CURVE SMOOTH",
"98 311 LINE SMOOTH",
"98 92.333 OFFCURVE",
"205.333 -5 OFFCURVE",
"368 -5 CURVE SMOOTH",
"520 -5 OFFCURVE",
"625 96.333 OFFCURVE",
"625 291 CURVE SMOOTH",
"625 519 LINE SMOOTH",
"625 556.333 OFFCURVE",
"629.667 580.667 OFFCURVE",
"639 592 CURVE SMOOTH",
"657.667 614 OFFCURVE",
"685.333 625 OFFCURVE",
"722 625 CURVE SMOOTH",
"725.333 625 OFFCURVE",
"727 631.333 OFFCURVE",
"727 644 CURVE SMOOTH",
"727 650.667 OFFCURVE",
"725.667 656.667 OFFCURVE",
"723 662 CURVE",
"707 660.667 OFFCURVE",
"632.333 654 OFFCURVE",
"599 654 CURVE SMOOTH",
"572.333 654 OFFCURVE",
"528.333 656.667 OFFCURVE",
"467 662 CURVE",
"463 656.667 OFFCURVE",
"464.667 625 OFFCURVE",
"470 625 CURVE SMOOTH",
"486 625 OFFCURVE",
"536 610.667 OFFCURVE",
"548 596 CURVE SMOOTH",
"556.667 586 OFFCURVE",
"561 562 OFFCURVE",
"561 524 CURVE SMOOTH",
"561 286 LINE SMOOTH",
"561 134 OFFCURVE",
"490.667 75 OFFCURVE",
"392 75 CURVE SMOOTH",
"297.333 75 OFFCURVE",
"238 156.333 OFFCURVE",
"238 279 CURVE SMOOTH",
"238 516 LINE SMOOTH",
"238 554.667 OFFCURVE",
"240.333 583 OFFCURVE",
"245 601 CURVE SMOOTH",
"247.667 610.333 OFFCURVE",
"298 625 OFFCURVE",
"310 625 CURVE SMOOTH",
"312.667 625 OFFCURVE",
"314 631.333 OFFCURVE",
"314 644 CURVE SMOOTH",
"314 650 OFFCURVE",
"313 656 OFFCURVE",
"311 662 CURVE",
"231 658 OFFCURVE",
"184.333 656 OFFCURVE",
"171 656 CURVE SMOOTH",
"166.333 656 OFFCURVE",
"118 658 OFFCURVE",
"26 662 CURVE"
);
}
);
width = 753;
}
);
note = U;
unicode = 0055;
},
{
glyphname = V;
lastChange = "2018-03-09 10:42:30 +0000";
layers = (
{
background = {
paths = (
{
closed = 1;
nodes = (
"16 659 OFFCURVE",
"16 625 OFFCURVE",
"20 625 QCURVE SMOOTH",
"34 625 OFFCURVE",
"87 608 OFFCURVE",
"93 592 QCURVE",
"96 585 OFFCURVE",
"126 510 QCURVE SMOOTH",
"331 3 LINE",
"340 -10 OFFCURVE",
"354 -10 QCURVE SMOOTH",
"364 -10 OFFCURVE",
"389 10 OFFCURVE",
"397 27 QCURVE SMOOTH",
"613 524 LINE SMOOTH",
"643 590 OFFCURVE",
"651 597 QCURVE",
"666 609 OFFCURVE",
"714 626 OFFCURVE",
"725 626 QCURVE SMOOTH",
"727 626 OFFCURVE",
"727 647 QCURVE SMOOTH",
"727 658 OFFCURVE",
"723 662 QCURVE",
"704 661 OFFCURVE",
"632 654 OFFCURVE",
"582 654 OFFCURVE",
"507 661 OFFCURVE",
"493 662 QCURVE",
"491 656 OFFCURVE",
"491 626 OFFCURVE",
"494 625 QCURVE",
"524 625 OFFCURVE",
"565 605 OFFCURVE",
"565 590 QCURVE SMOOTH",
"565 567 OFFCURVE",
"545 522 QCURVE SMOOTH",
"404 193 LINE",
"270 523 LINE SMOOTH",
"247 580 OFFCURVE",
"247 589 QCURVE SMOOTH",
"247 607 OFFCURVE",
"296 625 OFFCURVE",
"313 625 QCURVE SMOOTH",
"317 625 OFFCURVE",
"317 658 OFFCURVE",
"313 662 QCURVE",
"169 654 OFFCURVE",
"162 654 QCURVE SMOOTH",
"136 654 OFFCURVE",
"23 662 OFFCURVE",
"18 662 QCURVE"
);
}
);
};
layerId = "6D340022-02C4-426D-A0D8-A7BFACBEB22E";
paths = (
{
closed = 1;
nodes = (
"16.667 660 OFFCURVE",
"16 653.333 OFFCURVE",
"16 642 CURVE SMOOTH",
"16 630.667 OFFCURVE",
"17.333 625 OFFCURVE",
"20 625 CURVE SMOOTH",
"38.667 625 OFFCURVE",
"85 613.333 OFFCURVE",
"93 592 CURVE",
"95 587.333 OFFCURVE",
"106 560 OFFCURVE",
"126 510 CURVE SMOOTH",
"331 3 LINE",
"337 -5.667 OFFCURVE",
"344.667 -10 OFFCURVE",
"354 -10 CURVE SMOOTH",
"367.333 -10 OFFCURVE",
"386.333 4.333 OFFCURVE",
"397 27 CURVE SMOOTH",
"613 524 LINE SMOOTH",
"633 568 OFFCURVE",
"645.667 592.333 OFFCURVE",
"651 597 CURVE",
"671 613 OFFCURVE",
"710.333 626 OFFCURVE",
"725 626 CURVE SMOOTH",
"726.333 626 OFFCURVE",
"727 633 OFFCURVE",
"727 647 CURVE SMOOTH",
"727 654.333 OFFCURVE",
"725.667 659.333 OFFCURVE",
"723 662 CURVE",
"556.426 653.233 OFFCURVE",
"671.775 649.23 OFFCURVE",
"493 662 CURVE",
"491.667 658 OFFCURVE",
"491 651 OFFCURVE",
"491 641 CURVE SMOOTH",
"491 631 OFFCURVE",
"492 625.667 OFFCURVE",
"494 625 CURVE",
"534 625 OFFCURVE",
"565 610 OFFCURVE",
"565 590 CURVE SMOOTH",
"565 574.667 OFFCURVE",
"558.333 552 OFFCURVE",
"545 522 CURVE SMOOTH",
"404 193 LINE",
"270 523 LINE SMOOTH",
"254.667 561 OFFCURVE",
"247 583 OFFCURVE",
"247 589 CURVE SMOOTH",
"247 613 OFFCURVE",
"290.333 625 OFFCURVE",
"313 625 CURVE SMOOTH",
"315.667 625 OFFCURVE",
"317 630.5 OFFCURVE",
"317 641.5 CURVE SMOOTH",
"317 652.5 OFFCURVE",
"315.667 659.333 OFFCURVE",
"313 662 CURVE",
"217 656.667 OFFCURVE",
"166.667 654 OFFCURVE",
"162 654 CURVE SMOOTH",
"144.667 654 OFFCURVE",
"117.167 655.333 OFFCURVE",
"79.5 658 CURVE SMOOTH",
"41.833 660.667 OFFCURVE",
"21.333 662 OFFCURVE",
"18 662 CURVE"
);
}
);
width = 729;
}
);
note = V;
unicode = 0056;
},
{
glyphname = W;
lastChange = "2018-03-09 10:42:30 +0000";
layers = (
{
background = {
paths = (
{
closed = 1;
nodes = (
"2 660 OFFCURVE",
"2 644 QCURVE SMOOTH",
"2 625 OFFCURVE",
"6 625 QCURVE SMOOTH",
"19 625 OFFCURVE",
"58 614 OFFCURVE",
"66 604 QCURVE SMOOTH",
"85 580 OFFCURVE",
"112 527 QCURVE SMOOTH",
"383 -8 LINE",
"386 -13 OFFCURVE",
"392 -13 QCURVE SMOOTH",
"408 -13 OFFCURVE",
"426 19 QCURVE SMOOTH",
"546 233 LINE",
"669 -8 LINE",
"672 -13 OFFCURVE",
"680 -13 QCURVE SMOOTH",
"698 -13 OFFCURVE",
"714 19 QCURVE SMOOTH",
"961 510 LINE SMOOTH",
"991 568 OFFCURVE",
"1019 598 QCURVE SMOOTH",
"1029 608 OFFCURVE",
"1075 626 OFFCURVE",
"1090 626 QCURVE SMOOTH",
"1093 626 OFFCURVE",
"1093 637 QCURVE SMOOTH",
"1093 654 OFFCURVE",
"1090 662 QCURVE",
"970 656 OFFCURVE",
"965 656 QCURVE SMOOTH",
"942 656 OFFCURVE",
"846 662 QCURVE",
"842 658 OFFCURVE",
"843 626 OFFCURVE",
"847 626 QCURVE SMOOTH",
"865 626 OFFCURVE",
"918 611 OFFCURVE",
"918 594 QCURVE SMOOTH",
"918 580 OFFCURVE",
"900 544 QCURVE SMOOTH",
"729 205 LINE",
"721 191 OFFCURVE",
"716 201 QCURVE SMOOTH",
"629 372 LINE",
"699 510 LINE SMOOTH",
"728 567 OFFCURVE",
"755 596 QCURVE SMOOTH",
"765 607 OFFCURVE",
"813 626 OFFCURVE",
"828 626 QCURVE",
"831 627 OFFCURVE",
"830 656 OFFCURVE",
"828 662 QCURVE",
"708 656 OFFCURVE",
"703 656 QCURVE SMOOTH",
"680 656 OFFCURVE",
"584 662 QCURVE",
"580 658 OFFCURVE",
"581 626 OFFCURVE",
"585 626 QCURVE SMOOTH",
"595 626 OFFCURVE",
"624 622 OFFCURVE",
"659 607 OFFCURVE",
"659 594 QCURVE SMOOTH",
"659 583 OFFCURVE",
"639 542 QCURVE SMOOTH",
"591 447 LINE",
"533 562 LINE",
"521 593 LINE",
"521 610 OFFCURVE",
"551 625 OFFCURVE",
"567 625 QCURVE",
"570 626 OFFCURVE",
"569 656 OFFCURVE",
"567 662 QCURVE",
"447 656 OFFCURVE",
"435 656 QCURVE SMOOTH",
"434 656 OFFCURVE",
"296 662 QCURVE",
"294 660 OFFCURVE",
"294 644 QCURVE SMOOTH",
"294 625 OFFCURVE",
"298 625 QCURVE SMOOTH",
"331 625 OFFCURVE",
"356 600 QCURVE SMOOTH",
"368 588 OFFCURVE",
"399 527 QCURVE SMOOTH",
"509 310 LINE",
"447 200 LINE",
"437 184 OFFCURVE",
"432 195 QCURVE",
"248 560 LINE",
"236 591 LINE",
"236 625 OFFCURVE",
"282 625 QCURVE",
"285 626 OFFCURVE",
"284 656 OFFCURVE",
"282 662 QCURVE",
"162 656 OFFCURVE",
"146 656 QCURVE SMOOTH",
"142 656 OFFCURVE",
"4 662 QCURVE"
);
}
);
};
layerId = "6D340022-02C4-426D-A0D8-A7BFACBEB22E";
paths = (
{
closed = 1;
nodes = (
"2.667 660.667 OFFCURVE",
"2 654.667 OFFCURVE",
"2 644 CURVE SMOOTH",
"2 631.333 OFFCURVE",
"3.333 625 OFFCURVE",
"6 625 CURVE SMOOTH",
"23.333 625 OFFCURVE",
"55.333 617.333 OFFCURVE",
"66 604 CURVE SMOOTH",
"78.667 588 OFFCURVE",
"94 562.333 OFFCURVE",
"112 527 CURVE SMOOTH",
"383 -8 LINE",
"385 -11.333 OFFCURVE",
"388 -13 OFFCURVE",
"392 -13 CURVE SMOOTH",
"402.667 -13 OFFCURVE",
"414 -2.333 OFFCURVE",
"426 19 CURVE SMOOTH",
"546 233 LINE",
"669 -8 LINE",
"671 -11.333 OFFCURVE",
"674.667 -13 OFFCURVE",
"680 -13 CURVE SMOOTH",
"692 -13 OFFCURVE",
"703.333 -2.333 OFFCURVE",
"714 19 CURVE SMOOTH",
"961 510 LINE SMOOTH",
"981 548.667 OFFCURVE",
"1000.333 578 OFFCURVE",
"1019 598 CURVE SMOOTH",
"1032.333 611.333 OFFCURVE",
"1070 626 OFFCURVE",
"1090 626 CURVE SMOOTH",
"1092 626 OFFCURVE",
"1093 629.667 OFFCURVE",
"1093 637 CURVE SMOOTH",
"1093 648.333 OFFCURVE",
"1092 656.667 OFFCURVE",
"1090 662 CURVE",
"1010 658 OFFCURVE",
"968.333 656 OFFCURVE",
"965 656 CURVE SMOOTH",
"949.667 656 OFFCURVE",
"910 658 OFFCURVE",
"846 662 CURVE",
"840.667 656.667 OFFCURVE",
"841.667 626 OFFCURVE",
"847 626 CURVE SMOOTH",
"871 626 OFFCURVE",
"918 616.667 OFFCURVE",
"918 594 CURVE SMOOTH",
"918 584.667 OFFCURVE",
"912 568 OFFCURVE",
"900 544 CURVE SMOOTH",
"729 205 LINE",
"723.667 195.667 OFFCURVE",
"719.333 194.333 OFFCURVE",
"716 201 CURVE SMOOTH",
"629 372 LINE",
"699 510 LINE SMOOTH",
"718.333 548 OFFCURVE",
"737 576.667 OFFCURVE",
"755 596 CURVE SMOOTH",
"768.333 610.667 OFFCURVE",
"808 626 OFFCURVE",
"828 626 CURVE",
"832 627.333 OFFCURVE",
"830.667 654 OFFCURVE",
"828 662 CURVE",
"748 658 OFFCURVE",
"706.333 656 OFFCURVE",
"703 656 CURVE SMOOTH",
"687.667 656 OFFCURVE",
"648 658 OFFCURVE",
"584 662 CURVE",
"578.667 656.667 OFFCURVE",
"579.667 626 OFFCURVE",
"585 626 CURVE SMOOTH",
"602.372 626 OFFCURVE",
"659 618.951 OFFCURVE",
"659 594 CURVE SMOOTH",
"659 586.667 OFFCURVE",
"652.333 569.333 OFFCURVE",
"639 542 CURVE SMOOTH",
"591 447 LINE",
"533 562 LINE",
"521 593 LINE",
"521 615.667 OFFCURVE",
"545.667 625 OFFCURVE",
"567 625 CURVE",
"571 626.333 OFFCURVE",
"569.667 654 OFFCURVE",
"567 662 CURVE",
"487 658 OFFCURVE",
"443 656 OFFCURVE",
"435 656 CURVE SMOOTH",
"434.333 656 OFFCURVE",
"388 658 OFFCURVE",
"296 662 CURVE",
"294.667 660.667 OFFCURVE",
"294 654.667 OFFCURVE",
"294 644 CURVE SMOOTH",
"294 631.333 OFFCURVE",
"295.333 625 OFFCURVE",
"298 625 CURVE SMOOTH",
"320 625 OFFCURVE",
"339.333 616.667 OFFCURVE",
"356 600 CURVE SMOOTH",
"364 592 OFFCURVE",
"378.333 567.667 OFFCURVE",
"399 527 CURVE SMOOTH",
"509 310 LINE",
"447 200 LINE",
"440.333 189.333 OFFCURVE",
"435.333 187.667 OFFCURVE",
"432 195 CURVE",
"248 560 LINE",
"236 591 LINE",
"236 613.667 OFFCURVE",
"251.333 625 OFFCURVE",
"282 625 CURVE",
"286 626.333 OFFCURVE",
"284.667 654 OFFCURVE",
"282 662 CURVE",
"202 658 OFFCURVE",
"156.667 656 OFFCURVE",
"146 656 CURVE SMOOTH",
"143.333 656 OFFCURVE",
"96 658 OFFCURVE",
"4 662 CURVE"
);
}
);
width = 1094;
}
);
note = W;
unicode = 0057;
},
{
glyphname = X;
lastChange = "2018-03-09 10:42:30 +0000";
layers = (
{
background = {
paths = (
{
closed = 1;
nodes = (
"67 658 OFFCURVE",
"67 625 OFFCURVE",
"71 625 QCURVE SMOOTH",
"103 625 OFFCURVE",
"124 610 QCURVE SMOOTH",
"136 602 OFFCURVE",
"178 537 QCURVE SMOOTH",
"312 332 LINE",
"119 67 LINE SMOOTH",
"108 52 OFFCURVE",
"44 33 OFFCURVE",
"31 33 QCURVE SMOOTH",
"27 33 OFFCURVE",
"27 10 QCURVE SMOOTH",
"27 8 OFFCURVE",
"31 -4 QCURVE",
"151 2 OFFCURVE",
"159 2 QCURVE SMOOTH",
"192 2 OFFCURVE",
"291 -4 QCURVE",
"293 0 OFFCURVE",
"293 12 QCURVE SMOOTH",
"293 33 OFFCURVE",
"288 33 QCURVE SMOOTH",
"262 33 OFFCURVE",
"214 51 OFFCURVE",
"214 66 QCURVE SMOOTH",
"214 83 OFFCURVE",
"354 269 QCURVE",
"484 72 LINE",
"487 67 OFFCURVE",
"487 61 QCURVE SMOOTH",
"487 49 OFFCURVE",
"444 33 OFFCURVE",
"431 33 QCURVE SMOOTH",
"427 33 OFFCURVE",
"425 0 OFFCURVE",
"429 -4 QCURVE",
"438 -4 OFFCURVE",
"554 2 OFFCURVE",
"587 2 QCURVE SMOOTH",
"613 2 OFFCURVE",
"733 -4 QCURVE",
"736 2 OFFCURVE",
"736 11 QCURVE SMOOTH",
"736 33 OFFCURVE",
"733 33 QCURVE SMOOTH",
"720 33 OFFCURVE",
"667 54 OFFCURVE",
"648 76 QCURVE SMOOTH",
"630 97 OFFCURVE",
"458 356 QCURVE",
"645 586 LINE SMOOTH",
"662 607 OFFCURVE",
"720 625 OFFCURVE",
"734 625 QCURVE SMOOTH",
"738 625 OFFCURVE",
"738 657 OFFCURVE",
"735 662 QCURVE",
"615 656 OFFCURVE",
"589 656 OFFCURVE",
"478 662 QCURVE",
"474 658 OFFCURVE",
"475 625 OFFCURVE",
"479 625 QCURVE SMOOTH",
"506 625 OFFCURVE",
"553 606 OFFCURVE",
"553 594 QCURVE SMOOTH",
"553 588 OFFCURVE",
"536 559 OFFCURVE",
"504 518 OFFCURVE",
"474 480 OFFCURVE",
"432 429 OFFCURVE",
"420 414 QCURVE",
"309 582 LINE SMOOTH",
"301 594 OFFCURVE",
"301 604 QCURVE",
"302 614 OFFCURVE",
"339 625 OFFCURVE",
"354 625 QCURVE SMOOTH",
"357 625 OFFCURVE",
"358 658 OFFCURVE",
"356 662 QCURVE",
"236 656 OFFCURVE",
"212 656 QCURVE SMOOTH",
"183 656 OFFCURVE",
"77 662 OFFCURVE",
"71 662 QCURVE"
);
}
);
};
layerId = "6D340022-02C4-426D-A0D8-A7BFACBEB22E";
paths = (
{
closed = 1;
nodes = (
"68.333 659.333 OFFCURVE",
"67 652.5 OFFCURVE",
"67 641.5 CURVE SMOOTH",
"67 630.5 OFFCURVE",
"68.333 625 OFFCURVE",
"71 625 CURVE SMOOTH",
"92.333 625 OFFCURVE",
"110 620 OFFCURVE",
"124 610 CURVE SMOOTH",
"132 604.667 OFFCURVE",
"150 580.333 OFFCURVE",
"178 537 CURVE SMOOTH",
"312 332 LINE",
"119 67 LINE SMOOTH",
"104.333 47 OFFCURVE",
"48.333 33 OFFCURVE",
"31 33 CURVE SMOOTH",
"28.333 33 OFFCURVE",
"27 25.333 OFFCURVE",
"27 10 CURVE SMOOTH",
"27 8.667 OFFCURVE",
"28.333 4 OFFCURVE",
"31 -4 CURVE",
"111 0 OFFCURVE",
"153.667 2 OFFCURVE",
"159 2 CURVE SMOOTH",
"181 2 OFFCURVE",
"225 0 OFFCURVE",
"291 -4 CURVE",
"292.333 -1.333 OFFCURVE",
"293 4 OFFCURVE",
"293 12 CURVE SMOOTH",
"293 26 OFFCURVE",
"291.333 33 OFFCURVE",
"288 33 CURVE SMOOTH",
"253.333 33 OFFCURVE",
"214 46 OFFCURVE",
"214 66 CURVE SMOOTH",
"214 77.333 OFFCURVE",
"260.667 145 OFFCURVE",
"354 269 CURVE",
"484 72 LINE",
"486 68.667 OFFCURVE",
"487 65 OFFCURVE",
"487 61 CURVE SMOOTH",
"487 45 OFFCURVE",
"448.333 33 OFFCURVE",
"431 33 CURVE SMOOTH",
"425.667 33 OFFCURVE",
"423.667 1.333 OFFCURVE",
"429 -4 CURVE",
"435 -4 OFFCURVE",
"457.333 -3 OFFCURVE",
"496 -1 CURVE SMOOTH",
"534.667 1 OFFCURVE",
"565 2 OFFCURVE",
"587 2 CURVE SMOOTH",
"604.333 2 OFFCURVE",
"653 0 OFFCURVE",
"733 -4 CURVE",
"735 0 OFFCURVE",
"736 5 OFFCURVE",
"736 11 CURVE SMOOTH",
"736 25.667 OFFCURVE",
"735 33 OFFCURVE",
"733 33 CURVE SMOOTH",
"715.667 33 OFFCURVE",
"673.333 46.667 OFFCURVE",
"648 76 CURVE SMOOTH",
"636 90 OFFCURVE",
"572.667 183.333 OFFCURVE",
"458 356 CURVE",
"645 586 LINE SMOOTH",
"667.667 614 OFFCURVE",
"715.333 625 OFFCURVE",
"734 625 CURVE SMOOTH",
"736.667 625 OFFCURVE",
"738 630.333 OFFCURVE",
"738 641 CURVE SMOOTH",
"738 651.667 OFFCURVE",
"737 658.667 OFFCURVE",
"735 662 CURVE",
"655 658 OFFCURVE",
"610.667 656 OFFCURVE",
"602 656 CURVE SMOOTH",
"593.333 656 OFFCURVE",
"552 658 OFFCURVE",
"478 662 CURVE",
"472.667 656.667 OFFCURVE",
"473.667 625 OFFCURVE",
"479 625 CURVE SMOOTH",
"515 625 OFFCURVE",
"553 610 OFFCURVE",
"553 594 CURVE SMOOTH",
"553 590 OFFCURVE",
"550.167 583.167 OFFCURVE",
"544.5 573.5 CURVE SMOOTH",
"538.833 563.833 OFFCURVE",
"530.667 552.167 OFFCURVE",
"520 538.5 CURVE SMOOTH",
"509.333 524.833 OFFCURVE",
"499 511.667 OFFCURVE",
"489 499 CURVE SMOOTH",
"479 486.333 OFFCURVE",
"456 458 OFFCURVE",
"420 414 CURVE",
"309 582 LINE SMOOTH",
"303.667 590 OFFCURVE",
"301 597.333 OFFCURVE",
"301 604 CURVE",
"302.333 617.333 OFFCURVE",
"334 625 OFFCURVE",
"354 625 CURVE SMOOTH",
"358 625 OFFCURVE",
"358.667 656.667 OFFCURVE",
"356 662 CURVE",
"276 658 OFFCURVE",
"228 656 OFFCURVE",
"212 656 CURVE SMOOTH",
"192.667 656 OFFCURVE",
"165.333 657 OFFCURVE",
"130 659 CURVE SMOOTH",
"94.667 661 OFFCURVE",
"75 662 OFFCURVE",
"71 662 CURVE"
);
}
);
width = 768;
}
);
note = X;
unicode = 0058;
},
{
glyphname = Y;
lastChange = "2018-03-09 10:42:30 +0000";
layers = (
{
background = {
paths = (
{
closed = 1;
nodes = (
"31 658 OFFCURVE",
"31 625 OFFCURVE",
"35 625 QCURVE SMOOTH",
"63 625 OFFCURVE",
"88 610 QCURVE SMOOTH",
"109 598 OFFCURVE",
"142 537 QCURVE SMOOTH",
"173 484 LINE SMOOTH",
"204 430 OFFCURVE",
"267 316 OFFCURVE",
"267 309 QCURVE SMOOTH",
"267 139 LINE SMOOTH",
"267 85 OFFCURVE",
"260 58 QCURVE",
"257 50 OFFCURVE",
"205 33 OFFCURVE",
"194 33 QCURVE SMOOTH",
"191 33 OFFCURVE",
"191 12 QCURVE SMOOTH",
"191 0 OFFCURVE",
"195 -4 QCURVE",
"209 -3 OFFCURVE",
"313 4 OFFCURVE",
"340 4 QCURVE SMOOTH",
"366 4 OFFCURVE",
"472 -4 OFFCURVE",
"479 -4 QCURVE",
"481 2 OFFCURVE",
"481 14 QCURVE SMOOTH",
"481 33 OFFCURVE",
"477 33 QCURVE SMOOTH",
"468 33 OFFCURVE",
"417 51 OFFCURVE",
"415 58 QCURVE SMOOTH",
"407 89 OFFCURVE",
"407 145 QCURVE SMOOTH",
"407 304 LINE SMOOTH",
"407 317 OFFCURVE",
"556 555 OFFCURVE",
"582 590 QCURVE SMOOTH",
"596 608 OFFCURVE",
"642 626 OFFCURVE",
"660 626 QCURVE SMOOTH",
"664 626 OFFCURVE",
"664 644 QCURVE SMOOTH",
"664 653 OFFCURVE",
"661 662 QCURVE",
"574 656 OFFCURVE",
"548 656 QCURVE SMOOTH",
"517 656 OFFCURVE",
"427 662 QCURVE",
"423 658 OFFCURVE",
"424 625 OFFCURVE",
"428 625 QCURVE SMOOTH",
"492 625 OFFCURVE",
"492 603 QCURVE SMOOTH",
"492 587 OFFCURVE",
"412 449 OFFCURVE",
"383 407 QCURVE SMOOTH",
"378 400 OFFCURVE",
"373 405 QCURVE",
"273 582 LINE SMOOTH",
"265 596 OFFCURVE",
"265 604 QCURVE",
"266 614 OFFCURVE",
"303 625 OFFCURVE",
"318 625 QCURVE SMOOTH",
"321 625 OFFCURVE",
"322 658 OFFCURVE",
"320 662 QCURVE",
"200 656 OFFCURVE",
"177 656 QCURVE SMOOTH",
"155 656 OFFCURVE",
"108 658 OFFCURVE",
"52 661 OFFCURVE",
"35 662 QCURVE"
);
}
);
};
layerId = "6D340022-02C4-426D-A0D8-A7BFACBEB22E";
paths = (
{
closed = 1;
nodes = (
"32.333 659.333 OFFCURVE",
"31 652.5 OFFCURVE",
"31 641.5 CURVE SMOOTH",
"31 630.5 OFFCURVE",
"32.333 625 OFFCURVE",
"35 625 CURVE SMOOTH",
"53.667 625 OFFCURVE",
"71.333 620 OFFCURVE",
"88 610 CURVE SMOOTH",
"102 602 OFFCURVE",
"120 577.667 OFFCURVE",
"142 537 CURVE SMOOTH",
"173 484 LINE SMOOTH",
"193.667 448 OFFCURVE",
"214.5 411 OFFCURVE",
"235.5 373 CURVE SMOOTH",
"256.5 335 OFFCURVE",
"267 313.667 OFFCURVE",
"267 309 CURVE SMOOTH",
"267 139 LINE SMOOTH",
"267 103 OFFCURVE",
"264.667 76 OFFCURVE",
"260 58 CURVE",
"256 47.333 OFFCURVE",
"208.667 33 OFFCURVE",
"194 33 CURVE SMOOTH",
"192 33 OFFCURVE",
"191 26 OFFCURVE",
"191 12 CURVE SMOOTH",
"191 4 OFFCURVE",
"192.333 -1.333 OFFCURVE",
"195 -4 CURVE",
"213.667 -2.667 OFFCURVE",
"304 4 OFFCURVE",
"340 4 CURVE SMOOTH",
"357.333 4 OFFCURVE",
"383.667 2.667 OFFCURVE",
"419 0 CURVE SMOOTH",
"454.333 -2.667 OFFCURVE",
"474.333 -4 OFFCURVE",
"479 -4 CURVE",
"480.333 0 OFFCURVE",
"481 6 OFFCURVE",
"481 14 CURVE SMOOTH",
"481 26.667 OFFCURVE",
"479.667 33 OFFCURVE",
"477 33 CURVE SMOOTH",
"465 33 OFFCURVE",
"417.667 48.667 OFFCURVE",
"415 58 CURVE SMOOTH",
"409.667 78.667 OFFCURVE",
"407 107.667 OFFCURVE",
"407 145 CURVE SMOOTH",
"407 304 LINE SMOOTH",
"407 321.333 OFFCURVE",
"547.333 543.333 OFFCURVE",
"582 590 CURVE SMOOTH",
"600.667 614 OFFCURVE",
"636 626 OFFCURVE",
"660 626 CURVE SMOOTH",
"662.667 626 OFFCURVE",
"664 632 OFFCURVE",
"664 644 CURVE SMOOTH",
"664 650 OFFCURVE",
"663 656 OFFCURVE",
"661 662 CURVE",
"603 658 OFFCURVE",
"565.333 656 OFFCURVE",
"548 656 CURVE SMOOTH",
"527.333 656 OFFCURVE",
"487 658 OFFCURVE",
"427 662 CURVE",
"421.667 656.667 OFFCURVE",
"422.667 625 OFFCURVE",
"428 625 CURVE SMOOTH",
"470.667 625 OFFCURVE",
"492 617.667 OFFCURVE",
"492 603 CURVE SMOOTH",
"492 581.667 OFFCURVE",
"421.667 463 OFFCURVE",
"383 407 CURVE SMOOTH",
"379.667 402.333 OFFCURVE",
"376.333 401.667 OFFCURVE",
"373 405 CURVE",
"273 582 LINE SMOOTH",
"267.667 591.333 OFFCURVE",
"265 598.667 OFFCURVE",
"265 604 CURVE",
"266.333 617.333 OFFCURVE",
"298 625 OFFCURVE",
"318 625 CURVE SMOOTH",
"322 625 OFFCURVE",
"322.667 656.667 OFFCURVE",
"320 662 CURVE",
"240 658 OFFCURVE",
"192.333 656 OFFCURVE",
"177 656 CURVE SMOOTH",
"147.651 656 OFFCURVE",
"69.096 659.994 OFFCURVE",
"35 662 CURVE"
);
}
);
width = 669;
}
);
note = Y;
unicode = 0059;
},
{
glyphname = Z;
lastChange = "2018-03-09 10:42:30 +0000";
layers = (
{
background = {
paths = (
{
closed = 1;
nodes = (
"69 609 OFFCURVE",
"45 482 QCURVE",
"49 478 OFFCURVE",
"78 478 QCURVE SMOOTH",
"89 478 OFFCURVE",
"91 484 QCURVE",
"93 488 OFFCURVE",
"96 497 QCURVE",
"107 526 OFFCURVE",
"118 549 OFFCURVE",
"148 585 OFFCURVE",
"195 599 OFFCURVE",
"231 599 QCURVE SMOOTH",
"402 599 LINE",
"34 43 LINE",
"30 38 OFFCURVE",
"30 26 QCURVE SMOOTH",
"30 9 OFFCURVE",
"38 0 QCURVE",
"555 0 LINE",
"557 16 OFFCURVE",
"570 61 OFFCURVE",
"582 97 OFFCURVE",
"603 157 OFFCURVE",
"609 174 QCURVE",
"602 180 OFFCURVE",
"578 180 QCURVE SMOOTH",
"568 180 OFFCURVE",
"565 174 QCURVE",
"548 124 OFFCURVE",
"459 57 OFFCURVE",
"389 57 QCURVE SMOOTH",
"230 57 LINE SMOOTH",
"216 57 OFFCURVE",
"216 67 QCURVE SMOOTH",
"216 72 OFFCURVE",
"223 82 QCURVE SMOOTH",
"588 633 LINE",
"588 641 OFFCURVE",
"581 665 OFFCURVE",
"578 666 QCURVE",
"438 656 OFFCURVE",
"346 656 QCURVE SMOOTH",
"237 656 LINE SMOOTH",
"99 656 OFFCURVE",
"75 662 QCURVE"
);
}
);
};
layerId = "6D340022-02C4-426D-A0D8-A7BFACBEB22E";
paths = (
{
closed = 1;
nodes = (
"71 626.667 OFFCURVE",
"61 566.667 OFFCURVE",
"45 482 CURVE",
"47.667 479.333 OFFCURVE",
"58.667 478 OFFCURVE",
"78 478 CURVE SMOOTH",
"85.333 478 OFFCURVE",
"89.667 480 OFFCURVE",
"91 484 CURVE",
"92.333 486.667 OFFCURVE",
"94 491 OFFCURVE",
"96 497 CURVE",
"120.583 561.808 OFFCURVE",
"137.669 599 OFFCURVE",
"231 599 CURVE SMOOTH",
"402 599 LINE",
"34 43 LINE",
"31.333 39.667 OFFCURVE",
"30 34 OFFCURVE",
"30 26 CURVE SMOOTH",
"30 14.667 OFFCURVE",
"32.667 6 OFFCURVE",
"38 0 CURVE",
"555 0 LINE",
"559.332 34.654 OFFCURVE",
"596.93 139.803 OFFCURVE",
"609 174 CURVE",
"604.333 178 OFFCURVE",
"594 180 OFFCURVE",
"578 180 CURVE SMOOTH",
"571.333 180 OFFCURVE",
"567 178 OFFCURVE",
"565 174 CURVE",
"542.333 107.333 OFFCURVE",
"482.333 57 OFFCURVE",
"389 57 CURVE SMOOTH",
"230 57 LINE SMOOTH",
"220.667 57 OFFCURVE",
"216 60.333 OFFCURVE",
"216 67 CURVE SMOOTH",
"216 70.333 OFFCURVE",
"218.333 75.333 OFFCURVE",
"223 82 CURVE SMOOTH",
"588 633 LINE",
"588 643.667 OFFCURVE",
"582 664.667 OFFCURVE",
"578 666 CURVE",
"484.667 659.333 OFFCURVE",
"407.333 656 OFFCURVE",
"346 656 CURVE SMOOTH",
"237 656 LINE SMOOTH",
"145 656 OFFCURVE",
"91 658 OFFCURVE",
"75 662 CURVE"
);
}
);
width = 635;
}
);
note = Z;
unicode = 005A;
},
{
glyphname = a;
lastChange = "2018-03-09 10:42:30 +0000";
layers = (
{
background = {
paths = (
{
closed = 1;
nodes = (
"158 143 OFFCURVE",
"164 159 OFFCURVE",
"180 173 OFFCURVE",
"191 182 OFFCURVE",
"219 193 OFFCURVE",
"229 197 OFFCURVE",
"264 208 OFFCURVE",
"266 209 QCURVE",
"266 108 LINE SMOOTH",
"266 90 OFFCURVE",
"237 65 OFFCURVE",
"211 65 QCURVE SMOOTH",
"189 65 OFFCURVE",
"158 97 OFFCURVE",
"158 133 QCURVE SMOOTH"
);
},
{
closed = 1;
nodes = (
"54 283 OFFCURVE",
"100 283 QCURVE SMOOTH",
"122 283 OFFCURVE",
"158 304 OFFCURVE",
"158 326 QCURVE SMOOTH",
"158 393 OFFCURVE",
"216 393 QCURVE SMOOTH",
"266 393 OFFCURVE",
"266 311 QCURVE SMOOTH",
"266 275 LINE SMOOTH",
"266 263 OFFCURVE",
"257 260 QCURVE SMOOTH",
"245 256 OFFCURVE",
"182 239 OFFCURVE",
"142 226 OFFCURVE",
"86 201 OFFCURVE",
"53 172 OFFCURVE",
"28 127 OFFCURVE",
"28 100 QCURVE SMOOTH",
"28 54 OFFCURVE",
"93 -7 OFFCURVE",
"148 -7 QCURVE SMOOTH",
"168 -7 OFFCURVE",
"208 3 OFFCURVE",
"237 17 OFFCURVE",
"259 31 OFFCURVE",
"273 42 OFFCURVE",
"274 42 QCURVE",
"281 23 OFFCURVE",
"325 -6 OFFCURVE",
"349 -6 QCURVE SMOOTH",
"377 -6 OFFCURVE",
"440 23 OFFCURVE",
"454 36 QCURVE",
"461 48 OFFCURVE",
"461 73 QCURVE SMOOTH",
"461 84 OFFCURVE",
"454 88 QCURVE",
"437 75 OFFCURVE",
"420 75 QCURVE SMOOTH",
"396 75 OFFCURVE",
"396 109 QCURVE SMOOTH",
"396 271 LINE SMOOTH",
"396 372 OFFCURVE",
"321 449 OFFCURVE",
"251 449 QCURVE SMOOTH",
"172 449 OFFCURVE",
"37 364 OFFCURVE",
"37 313 QCURVE"
);
}
);
};
layerId = "6D340022-02C4-426D-A0D8-A7BFACBEB22E";
paths = (
{
closed = 1;
nodes = (
"158 155.139 OFFCURVE",
"169.723 164.592 OFFCURVE",
"185.5 177.5 CURVE SMOOTH",
"194.338 184.731 OFFCURVE",
"242.733 201.454 OFFCURVE",
"266 209 CURVE",
"266 108 LINE SMOOTH",
"266 84 OFFCURVE",
"245.667 65 OFFCURVE",
"211 65 CURVE SMOOTH",
"181.667 65 OFFCURVE",
"158 85 OFFCURVE",
"158 133 CURVE SMOOTH"
);
},
{
closed = 1;
nodes = (
"48.333 293 OFFCURVE",
"69.333 283 OFFCURVE",
"100 283 CURVE SMOOTH",
"129.333 283 OFFCURVE",
"158 296.667 OFFCURVE",
"158 326 CURVE SMOOTH",
"158 370.667 OFFCURVE",
"177.333 393 OFFCURVE",
"216 393 CURVE SMOOTH",
"249.333 393 OFFCURVE",
"266 365.667 OFFCURVE",
"266 311 CURVE SMOOTH",
"266 275 LINE SMOOTH",
"266 267 OFFCURVE",
"263 262 OFFCURVE",
"257 260 CURVE SMOOTH",
"203.552 242.184 OFFCURVE",
"171.02 238.956 OFFCURVE",
"114 213.5 CURVE SMOOTH",
"66.677 192.373 OFFCURVE",
"28 154.653 OFFCURVE",
"28 100 CURVE SMOOTH",
"28 38.667 OFFCURVE",
"74.667 -7 OFFCURVE",
"148 -7 CURVE SMOOTH",
"174.667 -7 OFFCURVE",
"203.167 0.667 OFFCURVE",
"222.5 10 CURVE SMOOTH",
"241.833 19.333 OFFCURVE",
"254 27.333 OFFCURVE",
"274 42 CURVE",
"283.333 16.667 OFFCURVE",
"317 -6 OFFCURVE",
"349 -6 CURVE SMOOTH",
"386.333 -6 OFFCURVE",
"435.333 18.667 OFFCURVE",
"454 36 CURVE",
"458.667 44 OFFCURVE",
"461 56.333 OFFCURVE",
"461 73 CURVE SMOOTH",
"461 80.333 OFFCURVE",
"458.667 85.333 OFFCURVE",
"454 88 CURVE",
"442.667 79.333 OFFCURVE",
"431.333 75 OFFCURVE",
"420 75 CURVE SMOOTH",
"404 75 OFFCURVE",
"396 86.333 OFFCURVE",
"396 109 CURVE SMOOTH",
"396 271 LINE SMOOTH",
"396 405.667 OFFCURVE",
"344.333 449 OFFCURVE",
"251 449 CURVE SMOOTH",
"145.667 449 OFFCURVE",
"37 381 OFFCURVE",
"37 313 CURVE"
);
}
);
width = 486;
}
);
note = a;
unicode = 0061;
},
{
glyphname = b;
lastChange = "2018-03-09 10:42:30 +0000";
layers = (
{
background = {
paths = (
{
closed = 1;
nodes = (
"231 417 OFFCURVE",
"228 417 OFFCURVE",
"227 424 OFFCURVE",
"227 428 OFFCURVE",
"227 431 QCURVE SMOOTH",
"227 577 LINE SMOOTH",
"227 633 OFFCURVE",
"238 678 QCURVE",
"237 683 OFFCURVE",
"229 695 OFFCURVE",
"225 695 QCURVE SMOOTH",
"223 695 LINE",
"213 692 LINE SMOOTH",
"203 689 OFFCURVE",
"168 679 OFFCURVE",
"124 669 OFFCURVE",
"61 659 OFFCURVE",
"30 656 QCURVE",
"24 656 OFFCURVE",
"24 639 QCURVE SMOOTH",
"24 619 OFFCURVE",
"30 619 QCURVE SMOOTH",
"39 619 LINE SMOOTH",
"86 619 OFFCURVE",
"91 603 QCURVE",
"97 573 OFFCURVE",
"97 531 QCURVE SMOOTH",
"97 128 LINE SMOOTH",
"97 99 OFFCURVE",
"93 48 OFFCURVE",
"89 18 OFFCURVE",
"89 15 QCURVE SMOOTH",
"89 10 OFFCURVE",
"118 -9 OFFCURVE",
"124 -9 OFFCURVE",
"166 10 OFFCURVE",
"176 10 QCURVE SMOOTH",
"202 10 OFFCURVE",
"258 -8 OFFCURVE",
"305 -8 QCURVE SMOOTH",
"403 -8 OFFCURVE",
"540 126 OFFCURVE",
"540 226 QCURVE SMOOTH",
"540 318 OFFCURVE",
"410 447 OFFCURVE",
"320 447 QCURVE SMOOTH",
"269 447 OFFCURVE",
"233 418 QCURVE"
);
},
{
closed = 1;
nodes = (
"396 127 OFFCURVE",
"353 46 OFFCURVE",
"308 46 QCURVE SMOOTH",
"273 46 OFFCURVE",
"227 89 OFFCURVE",
"227 129 QCURVE SMOOTH",
"227 318 LINE SMOOTH",
"227 342 OFFCURVE",
"270 386 OFFCURVE",
"309 386 QCURVE SMOOTH",
"396 386 OFFCURVE",
"396 193 QCURVE SMOOTH"
);
}
);
};
layerId = "6D340022-02C4-426D-A0D8-A7BFACBEB22E";
paths = (
{
closed = 1;
nodes = (
"226.666 414.833 OFFCURVE",
"227 421.529 OFFCURVE",
"227 431 CURVE SMOOTH",
"227 577 LINE SMOOTH",
"227 614.333 OFFCURVE",
"230.667 648 OFFCURVE",
"238 678 CURVE",
"236.667 684.667 OFFCURVE",
"230.333 695 OFFCURVE",
"225 695 CURVE SMOOTH",
"223 695 LINE",
"213 692 LINE SMOOTH",
"173.424 680.127 OFFCURVE",
"108.521 663.599 OFFCURVE",
"30 656 CURVE",
"26 656 OFFCURVE",
"24 650.333 OFFCURVE",
"24 639 CURVE SMOOTH",
"24 625.667 OFFCURVE",
"26 619 OFFCURVE",
"30 619 CURVE SMOOTH",
"39 619 LINE SMOOTH",
"70.333 619 OFFCURVE",
"87.667 613.667 OFFCURVE",
"91 603 CURVE",
"95 583 OFFCURVE",
"97 559 OFFCURVE",
"97 531 CURVE SMOOTH",
"97 128 LINE SMOOTH",
"97 91.135 OFFCURVE",
"89 22.154 OFFCURVE",
"89 15 CURVE SMOOTH",
"89 -25.137 OFFCURVE",
"140.541 10 OFFCURVE",
"176 10 CURVE SMOOTH",
"193.333 10 OFFCURVE",
"211.333 7 OFFCURVE",
"230 1 CURVE SMOOTH",
"248.667 -5 OFFCURVE",
"273.667 -8 OFFCURVE",
"305 -8 CURVE SMOOTH",
"435.667 -8 OFFCURVE",
"540 92.667 OFFCURVE",
"540 226 CURVE SMOOTH",
"540 348.667 OFFCURVE",
"440 447 OFFCURVE",
"320 447 CURVE SMOOTH",
"286 447 OFFCURVE",
"257 437.333 OFFCURVE",
"233 418 CURVE"
);
},
{
closed = 1;
nodes = (
"396 105 OFFCURVE",
"368 46 OFFCURVE",
"308 46 CURVE SMOOTH",
"261.333 46 OFFCURVE",
"227 75.667 OFFCURVE",
"227 129 CURVE SMOOTH",
"227 318 LINE SMOOTH",
"227 350 OFFCURVE",
"257 386 OFFCURVE",
"309 386 CURVE SMOOTH",
"367 386 OFFCURVE",
"396 321.667 OFFCURVE",
"396 193 CURVE SMOOTH"
);
}
);
width = 564;
}
);
note = b;
unicode = 0062;
},
{
glyphname = c;
lastChange = "2018-03-09 10:42:30 +0000";
layers = (
{
background = {
paths = (
{
closed = 1;
nodes = (
"26 128 OFFCURVE",
"156 -7 OFFCURVE",
"252 -7 QCURVE SMOOTH",
"314 -7 OFFCURVE",
"413 58 OFFCURVE",
"423 83 QCURVE",
"427 91 OFFCURVE",
"427 103 QCURVE SMOOTH",
"427 118 OFFCURVE",
"418 122 QCURVE",
"398 107 OFFCURVE",
"374 92 OFFCURVE",
"314 73 OFFCURVE",
"281 73 QCURVE SMOOTH",
"168 73 OFFCURVE",
"168 242 QCURVE SMOOTH",
"168 392 OFFCURVE",
"248 392 QCURVE SMOOTH",
"272 392 OFFCURVE",
"299 369 OFFCURVE",
"308 346 QCURVE SMOOTH",
"328 296 OFFCURVE",
"367 296 QCURVE SMOOTH",
"421 296 OFFCURVE",
"421 388 QCURVE",
"413 398 OFFCURVE",
"383 421 OFFCURVE",
"308 447 OFFCURVE",
"265 447 QCURVE SMOOTH",
"165 447 OFFCURVE",
"26 318 OFFCURVE",
"26 226 QCURVE SMOOTH"
);
}
);
};
layerId = "6D340022-02C4-426D-A0D8-A7BFACBEB22E";
paths = (
{
closed = 1;
nodes = (
"26 95.333 OFFCURVE",
"124 -7 OFFCURVE",
"252 -7 CURVE SMOOTH",
"334.667 -7 OFFCURVE",
"409.667 49.667 OFFCURVE",
"423 83 CURVE",
"425.667 88.333 OFFCURVE",
"427 95 OFFCURVE",
"427 103 CURVE SMOOTH",
"427 113 OFFCURVE",
"424 119.333 OFFCURVE",
"418 122 CURVE",
"383.264 95.948 OFFCURVE",
"344.249 73 OFFCURVE",
"281 73 CURVE SMOOTH",
"205.667 73 OFFCURVE",
"168 129.333 OFFCURVE",
"168 242 CURVE SMOOTH",
"168 342 OFFCURVE",
"194.667 392 OFFCURVE",
"248 392 CURVE SMOOTH",
"280 392 OFFCURVE",
"296 376.667 OFFCURVE",
"308 346 CURVE SMOOTH",
"321.333 312.667 OFFCURVE",
"341 296 OFFCURVE",
"367 296 CURVE SMOOTH",
"403 296 OFFCURVE",
"421 326.667 OFFCURVE",
"421 388 CURVE",
"398.331 416.337 OFFCURVE",
"330.334 447 OFFCURVE",
"265 447 CURVE SMOOTH",
"131.667 447 OFFCURVE",
"26 348.667 OFFCURVE",
"26 226 CURVE SMOOTH"
);
}
);
width = 462;
}
);
note = c;
unicode = 0063;
},
{
glyphname = d;
lastChange = "2018-03-09 10:42:30 +0000";
layers = (
{
background = {
paths = (
{
closed = 1;
nodes = (
"331 122 LINE SMOOTH",
"331 94 OFFCURVE",
"286 55 OFFCURVE",
"252 55 QCURVE SMOOTH",
"162 55 OFFCURVE",
"162 236 QCURVE SMOOTH",
"162 318 OFFCURVE",
"205 393 OFFCURVE",
"252 393 QCURVE SMOOTH",
"278 393 OFFCURVE",
"313 372 OFFCURVE",
"327 338 OFFCURVE",
"331 316 OFFCURVE",
"331 304 QCURVE SMOOTH"
);
},
{
closed = 1;
nodes = (
"18 115 OFFCURVE",
"145 -6 OFFCURVE",
"226 -6 QCURVE SMOOTH",
"285 -6 OFFCURVE",
"327 36 QCURVE SMOOTH",
"329 38 OFFCURVE",
"331 36 OFFCURVE",
"331 32 QCURVE SMOOTH",
"331 11 LINE SMOOTH",
"331 -6 OFFCURVE",
"337 -6 QCURVE",
"352 -4 LINE",
"366 -1 OFFCURVE",
"410 6 OFFCURVE",
"459 13 OFFCURVE",
"508 19 OFFCURVE",
"523 20 QCURVE",
"529 20 OFFCURVE",
"529 45 QCURVE SMOOTH",
"529 56 OFFCURVE",
"526 57 QCURVE",
"516 58 LINE",
"507 58 OFFCURVE",
"487 60 OFFCURVE",
"469 68 OFFCURVE",
"467 75 QCURVE",
"461 104 OFFCURVE",
"461 147 QCURVE SMOOTH",
"461 577 LINE SMOOTH",
"461 633 OFFCURVE",
"472 678 QCURVE",
"471 683 OFFCURVE",
"463 695 OFFCURVE",
"459 695 QCURVE SMOOTH",
"457 695 LINE",
"447 692 LINE SMOOTH",
"437 689 OFFCURVE",
"402 679 OFFCURVE",
"358 669 OFFCURVE",
"295 659 OFFCURVE",
"264 656 QCURVE",
"258 656 OFFCURVE",
"258 639 QCURVE SMOOTH",
"258 619 OFFCURVE",
"264 619 QCURVE SMOOTH",
"273 619 LINE SMOOTH",
"320 619 OFFCURVE",
"325 603 QCURVE",
"331 573 OFFCURVE",
"331 531 QCURVE SMOOTH",
"331 452 LINE SMOOTH",
"331 438 OFFCURVE",
"328 438 QCURVE",
"299 447 OFFCURVE",
"258 447 QCURVE SMOOTH",
"155 447 OFFCURVE",
"18 312 OFFCURVE",
"18 212 QCURVE SMOOTH"
);
}
);
};
layerId = "6D340022-02C4-426D-A0D8-A7BFACBEB22E";
paths = (
{
closed = 1;
nodes = (
"331 122 LINE SMOOTH",
"331 84.667 OFFCURVE",
"297.333 55 OFFCURVE",
"252 55 CURVE SMOOTH",
"192 55 OFFCURVE",
"162 115.333 OFFCURVE",
"162 236 CURVE SMOOTH",
"162 345.333 OFFCURVE",
"189.333 393 OFFCURVE",
"252 393 CURVE SMOOTH",
"316.508 393 OFFCURVE",
"331 341.04 OFFCURVE",
"331 304 CURVE SMOOTH"
);
},
{
closed = 1;
nodes = (
"18 82.667 OFFCURVE",
"118 -6 OFFCURVE",
"226 -6 CURVE SMOOTH",
"265.333 -6 OFFCURVE",
"299 8 OFFCURVE",
"327 36 CURVE SMOOTH",
"329.667 38.667 OFFCURVE",
"331 37.333 OFFCURVE",
"331 32 CURVE SMOOTH",
"331 11 LINE SMOOTH",
"331 -0.333 OFFCURVE",
"333 -6 OFFCURVE",
"337 -6 CURVE",
"352 -4 LINE",
"383.906 2.837 OFFCURVE",
"484.802 17.453 OFFCURVE",
"523 20 CURVE",
"527 20 OFFCURVE",
"529 28.333 OFFCURVE",
"529 45 CURVE SMOOTH",
"529 52.333 OFFCURVE",
"528 56.333 OFFCURVE",
"526 57 CURVE",
"516 58 LINE",
"500.197 58 OFFCURVE",
"471.098 60.657 OFFCURVE",
"467 75 CURVE",
"463 94.333 OFFCURVE",
"461 118.333 OFFCURVE",
"461 147 CURVE SMOOTH",
"461 577 LINE SMOOTH",
"461 614.333 OFFCURVE",
"464.667 648 OFFCURVE",
"472 678 CURVE",
"470.667 684.667 OFFCURVE",
"464.333 695 OFFCURVE",
"459 695 CURVE SMOOTH",
"457 695 LINE",
"447 692 LINE SMOOTH",
"407.424 680.127 OFFCURVE",
"342.521 663.599 OFFCURVE",
"264 656 CURVE",
"260 656 OFFCURVE",
"258 650.333 OFFCURVE",
"258 639 CURVE SMOOTH",
"258 625.667 OFFCURVE",
"260 619 OFFCURVE",
"264 619 CURVE SMOOTH",
"273 619 LINE SMOOTH",
"304.333 619 OFFCURVE",
"321.667 613.667 OFFCURVE",
"325 603 CURVE",
"329 583 OFFCURVE",
"331 559 OFFCURVE",
"331 531 CURVE SMOOTH",
"331 452 LINE SMOOTH",
"331 442.667 OFFCURVE",
"330 438 OFFCURVE",
"328 438 CURVE",
"308.667 444 OFFCURVE",
"285.333 447 OFFCURVE",
"258 447 CURVE SMOOTH",
"120.667 447 OFFCURVE",
"18 345.333 OFFCURVE",
"18 212 CURVE SMOOTH"
);
}
);
width = 554;
}
);
note = d;
unicode = 0064;
},
{
glyphname = eth;
lastChange = "2018-03-09 10:42:30 +0000";
layers = (
{
background = {
paths = (
{
closed = 1;
nodes = (
"119 522 OFFCURVE",
"144 492 QCURVE",
"418 662 LINE",
"424 667 OFFCURVE",
"399 697 QCURVE",
"126 528 LINE"
);
},
{
closed = 1;
nodes = (
"28 121 OFFCURVE",
"170 -6 OFFCURVE",
"259 -6 QCURVE SMOOTH",
"303 -6 OFFCURVE",
"381 21 OFFCURVE",
"451 81 OFFCURVE",
"491 194 OFFCURVE",
"491 271 QCURVE SMOOTH",
"491 354 OFFCURVE",
"438 497 OFFCURVE",
"354 594 OFFCURVE",
"247 663 OFFCURVE",
"141 695 OFFCURVE",
"92 695 QCURVE SMOOTH",
"82 695 OFFCURVE",
"82 662 QCURVE",
"166 639 OFFCURVE",
"287 527 OFFCURVE",
"315 443 QCURVE",
"302 447 OFFCURVE",
"250 447 QCURVE SMOOTH",
"156 447 OFFCURVE",
"28 302 OFFCURVE",
"28 217 QCURVE SMOOTH"
);
},
{
closed = 1;
nodes = (
"347 287 OFFCURVE",
"349 203 QCURVE SMOOTH",
"349 48 OFFCURVE",
"270 48 QCURVE SMOOTH",
"217 48 OFFCURVE",
"170 161 OFFCURVE",
"170 245 QCURVE SMOOTH",
"170 392 OFFCURVE",
"252 392 QCURVE SMOOTH",
"279 392 OFFCURVE",
"332 353 OFFCURVE",
"340 318 QCURVE SMOOTH"
);
}
);
};
layerId = "6D340022-02C4-426D-A0D8-A7BFACBEB22E";
paths = (
{
closed = 1;
nodes = (
"121.333 524 OFFCURVE",
"127.333 512 OFFCURVE",
"144 492 CURVE",
"418 662 LINE",
"422 665.333 OFFCURVE",
"415.667 677 OFFCURVE",
"399 697 CURVE",
"126 528 LINE"
);
},
{
closed = 1;
nodes = (
"28 89 OFFCURVE",
"140.333 -6 OFFCURVE",
"259 -6 CURVE SMOOTH",
"317.667 -6 OFFCURVE",
"369.333 11 OFFCURVE",
"416 51 CURVE SMOOTH",
"462.667 91 OFFCURVE",
"491 168.333 OFFCURVE",
"491 271 CURVE SMOOTH",
"491 381.667 OFFCURVE",
"452 480.833 OFFCURVE",
"396 545.5 CURVE SMOOTH",
"340 610.167 OFFCURVE",
"298.667 652.333 OFFCURVE",
"92 695 CURVE",
"85.333 695 OFFCURVE",
"82 684 OFFCURVE",
"82 662 CURVE",
"194 631.333 OFFCURVE",
"277.667 555 OFFCURVE",
"315 443 CURVE",
"306.333 445.667 OFFCURVE",
"284.667 447 OFFCURVE",
"250 447 CURVE SMOOTH",
"124.667 447 OFFCURVE",
"28 330.333 OFFCURVE",
"28 217 CURVE SMOOTH"
);
},
{
closed = 1;
nodes = (
"344.667 297.333 OFFCURVE",
"347.667 259 OFFCURVE",
"349 203 CURVE SMOOTH",
"349 99.667 OFFCURVE",
"322.667 48 OFFCURVE",
"270 48 CURVE SMOOTH",
"199.333 48 OFFCURVE",
"170 133 OFFCURVE",
"170 245 CURVE SMOOTH",
"170 343 OFFCURVE",
"197.333 392 OFFCURVE",
"252 392 CURVE SMOOTH",
"288 392 OFFCURVE",
"329.333 364.667 OFFCURVE",
"340 318 CURVE SMOOTH"
);
}
);
width = 521;
}
);
note = eth;
unicode = 00F0;
},
{
glyphname = e;
lastChange = "2018-03-09 10:42:30 +0000";
layers = (
{
background = {
paths = (
{
closed = 1;
nodes = (
"311 275 OFFCURVE",
"297 275 QCURVE SMOOTH",
"170 275 LINE SMOOTH",
"163 275 OFFCURVE",
"163 281 QCURVE SMOOTH",
"163 317 OFFCURVE",
"199 392 OFFCURVE",
"238 392 QCURVE SMOOTH",
"270 392 OFFCURVE",
"311 332 OFFCURVE",
"311 294 QCURVE SMOOTH"
);
},
{
closed = 1;
nodes = (
"26 127 OFFCURVE",
"159 -7 OFFCURVE",
"251 -7 QCURVE SMOOTH",
"313 -7 OFFCURVE",
"413 59 OFFCURVE",
"423 83 QCURVE",
"427 91 OFFCURVE",
"427 103 QCURVE SMOOTH",
"427 118 OFFCURVE",
"418 122 QCURVE",
"398 107 OFFCURVE",
"374 92 OFFCURVE",
"314 73 OFFCURVE",
"281 73 QCURVE SMOOTH",
"224 73 OFFCURVE",
"163 159 OFFCURVE",
"163 213 QCURVE SMOOTH",
"163 220 OFFCURVE",
"169 220 QCURVE SMOOTH",
"395 220 LINE SMOOTH",
"423 220 OFFCURVE",
"442 234 OFFCURVE",
"442 257 QCURVE SMOOTH",
"442 322 OFFCURVE",
"333 447 OFFCURVE",
"243 447 QCURVE SMOOTH",
"146 447 OFFCURVE",
"26 317 OFFCURVE",
"26 221 QCURVE SMOOTH"
);
}
);
};
layerId = "6D340022-02C4-426D-A0D8-A7BFACBEB22E";
paths = (
{
closed = 1;
nodes = (
"311 281.333 OFFCURVE",
"306.333 275 OFFCURVE",
"297 275 CURVE SMOOTH",
"170 275 LINE SMOOTH",
"165.333 275 OFFCURVE",
"163 277 OFFCURVE",
"163 281 CURVE SMOOTH",
"163 329 OFFCURVE",
"186 392 OFFCURVE",
"238 392 CURVE SMOOTH",
"280.667 392 OFFCURVE",
"311 344.667 OFFCURVE",
"311 294 CURVE SMOOTH"
);
},
{
closed = 1;
nodes = (
"26 95.667 OFFCURVE",
"128.333 -7 OFFCURVE",
"251 -7 CURVE SMOOTH",
"333.667 -7 OFFCURVE",
"409.667 51 OFFCURVE",
"423 83 CURVE",
"425.667 88.333 OFFCURVE",
"427 95 OFFCURVE",
"427 103 CURVE SMOOTH",
"427 113 OFFCURVE",
"424 119.333 OFFCURVE",
"418 122 CURVE",
"383.264 95.948 OFFCURVE",
"344.249 73 OFFCURVE",
"281 73 CURVE SMOOTH",
"205 73 OFFCURVE",
"163 141 OFFCURVE",
"163 213 CURVE SMOOTH",
"163 217.667 OFFCURVE",
"165 220 OFFCURVE",
"169 220 CURVE SMOOTH",
"395 220 LINE SMOOTH",
"432.333 220 OFFCURVE",
"442 226.333 OFFCURVE",
"442 257 CURVE SMOOTH",
"442 343.667 OFFCURVE",
"363 447 OFFCURVE",
"243 447 CURVE SMOOTH",
"113.667 447 OFFCURVE",
"26 349 OFFCURVE",
"26 221 CURVE SMOOTH"
);
}
);
width = 462;
}
);
note = e;
unicode = 0065;
},
{
glyphname = f;
lastChange = "2018-03-09 10:42:30 +0000";
layers = (
{
background = {
paths = (
{
closed = 1;
nodes = (
"114 436 LINE SMOOTH",
"114 430 OFFCURVE",
"109 430 QCURVE SMOOTH",
"81 430 LINE SMOOTH",
"64 430 OFFCURVE",
"39 389 OFFCURVE",
"39 376 QCURVE SMOOTH",
"39 370 OFFCURVE",
"42 370 QCURVE SMOOTH",
"109 370 LINE SMOOTH",
"114 370 OFFCURVE",
"114 363 QCURVE SMOOTH",
"114 134 LINE SMOOTH",
"114 88 OFFCURVE",
"107 58 QCURVE",
"105 51 OFFCURVE",
"53 33 OFFCURVE",
"42 33 QCURVE SMOOTH",
"38 33 OFFCURVE",
"38 0 OFFCURVE",
"42 -4 QCURVE",
"53 -3 OFFCURVE",
"155 4 OFFCURVE",
"179 4 QCURVE SMOOTH",
"202 4 OFFCURVE",
"305 -3 OFFCURVE",
"316 -4 QCURVE",
"318 0 OFFCURVE",
"317 33 OFFCURVE",
"314 33 QCURVE SMOOTH",
"305 33 OFFCURVE",
"253 51 OFFCURVE",
"251 58 QCURVE SMOOTH",
"244 85 OFFCURVE",
"244 149 QCURVE SMOOTH",
"244 364 LINE SMOOTH",
"244 370 OFFCURVE",
"250 370 QCURVE SMOOTH",
"353 370 LINE",
"365 394 OFFCURVE",
"365 422 QCURVE SMOOTH",
"365 429 OFFCURVE",
"360 429 QCURVE SMOOTH",
"249 429 LINE SMOOTH",
"244 429 OFFCURVE",
"244 434 QCURVE SMOOTH",
"244 475 LINE SMOOTH",
"244 542 OFFCURVE",
"274 634 OFFCURVE",
"306 634 QCURVE SMOOTH",
"325 634 OFFCURVE",
"354 600 OFFCURVE",
"385 565 OFFCURVE",
"406 565 QCURVE SMOOTH",
"430 565 OFFCURVE",
"456 600 OFFCURVE",
"456 643 OFFCURVE",
"453 662 QCURVE",
"445 676 OFFCURVE",
"380 696 OFFCURVE",
"336 696 QCURVE SMOOTH",
"241 695 OFFCURVE",
"114 547 OFFCURVE",
"114 443 QCURVE SMOOTH"
);
}
);
};
layerId = "6D340022-02C4-426D-A0D8-A7BFACBEB22E";
paths = (
{
closed = 1;
nodes = (
"114 436 LINE SMOOTH",
"114 432 OFFCURVE",
"112.333 430 OFFCURVE",
"109 430 CURVE SMOOTH",
"81 430 LINE SMOOTH",
"58.333 430 OFFCURVE",
"39 393.333 OFFCURVE",
"39 376 CURVE SMOOTH",
"39 372 OFFCURVE",
"40 370 OFFCURVE",
"42 370 CURVE SMOOTH",
"109 370 LINE SMOOTH",
"112.333 370 OFFCURVE",
"114 367.667 OFFCURVE",
"114 363 CURVE SMOOTH",
"114 134 LINE SMOOTH",
"114 103.333 OFFCURVE",
"111.667 78 OFFCURVE",
"107 58 CURVE",
"104.333 48.667 OFFCURVE",
"56.667 33 OFFCURVE",
"42 33 CURVE SMOOTH",
"39.333 33 OFFCURVE",
"38 27.5 OFFCURVE",
"38 16.5 CURVE SMOOTH",
"38 5.5 OFFCURVE",
"39.333 -1.333 OFFCURVE",
"42 -4 CURVE",
"56.667 -2.667 OFFCURVE",
"147 4 OFFCURVE",
"179 4 CURVE SMOOTH",
"209.667 4 OFFCURVE",
"301.333 -2.667 OFFCURVE",
"316 -4 CURVE",
"318.667 1.333 OFFCURVE",
"318 33 OFFCURVE",
"314 33 CURVE SMOOTH",
"302 33 OFFCURVE",
"253.667 48.667 OFFCURVE",
"251 58 CURVE SMOOTH",
"246.333 76 OFFCURVE",
"244 106.333 OFFCURVE",
"244 149 CURVE SMOOTH",
"244 364 LINE SMOOTH",
"244 368 OFFCURVE",
"246 370 OFFCURVE",
"250 370 CURVE SMOOTH",
"353 370 LINE",
"361 386 OFFCURVE",
"365 403.333 OFFCURVE",
"365 422 CURVE SMOOTH",
"365 426.667 OFFCURVE",
"363.333 429 OFFCURVE",
"360 429 CURVE SMOOTH",
"249 429 LINE SMOOTH",
"245.667 429 OFFCURVE",
"244 430.667 OFFCURVE",
"244 434 CURVE SMOOTH",
"244 475 LINE SMOOTH",
"244 519.667 OFFCURVE",
"249 557.333 OFFCURVE",
"259 588 CURVE SMOOTH",
"269 618.667 OFFCURVE",
"284.667 634 OFFCURVE",
"306 634 CURVE SMOOTH",
"347.868 634 OFFCURVE",
"361.131 565 OFFCURVE",
"406 565 CURVE SMOOTH",
"455.496 565 OFFCURVE",
"460.072 617.21 OFFCURVE",
"453 662 CURVE",
"442.333 680.667 OFFCURVE",
"394.667 696 OFFCURVE",
"336 696 CURVE SMOOTH",
"209.333 694.667 OFFCURVE",
"114 581.667 OFFCURVE",
"114 443 CURVE SMOOTH"
);
}
);
width = 380;
}
);
note = f;
unicode = 0066;
},
{
glyphname = g;
lastChange = "2018-03-09 10:42:30 +0000";
layers = (
{
background = {
paths = (
{
closed = 1;
nodes = (
"181 -157 OFFCURVE",
"118 -116 OFFCURVE",
"118 -86 QCURVE SMOOTH",
"118 -68 OFFCURVE",
"125 -59 QCURVE",
"132 -48 OFFCURVE",
"165 -37 QCURVE",
"166 -37 OFFCURVE",
"169 -36 QCURVE",
"337 -36 OFFCURVE",
"337 -81 QCURVE SMOOTH",
"337 -119 OFFCURVE",
"272 -157 OFFCURVE",
"220 -157 QCURVE SMOOTH"
);
},
{
closed = 1;
nodes = (
"165 319 OFFCURVE",
"167 342 OFFCURVE",
"175 378 OFFCURVE",
"198 396 OFFCURVE",
"216 396 QCURVE SMOOTH",
"252 396 OFFCURVE",
"276 332 OFFCURVE",
"276 268 QCURVE SMOOTH",
"276 246 OFFCURVE",
"273 219 OFFCURVE",
"264 187 OFFCURVE",
"241 172 OFFCURVE",
"203 172 OFFCURVE",
"179 192 OFFCURVE",
"169 231 OFFCURVE",
"165 268 OFFCURVE",
"165 294 QCURVE SMOOTH",
"165 296 OFFCURVE",
"165 299 QCURVE SMOOTH"
);
},
{
closed = 1;
nodes = (
"36 239 OFFCURVE",
"84 158 OFFCURVE",
"113 142 QCURVE",
"95 132 OFFCURVE",
"82 124 OFFCURVE",
"51 101 OFFCURVE",
"37 77 OFFCURVE",
"37 64 QCURVE SMOOTH",
"37 35 OFFCURVE",
"79 -14 OFFCURVE",
"105 -25 QCURVE",
"70 -36 OFFCURVE",
"23 -86 OFFCURVE",
"23 -108 QCURVE SMOOTH",
"23 -158 OFFCURVE",
"127 -218 OFFCURVE",
"203 -218 QCURVE SMOOTH",
"294 -218 OFFCURVE",
"454 -109 OFFCURVE",
"453 -36 QCURVE SMOOTH",
"452 61 OFFCURVE",
"292 69 QCURVE",
"284 69 OFFCURVE",
"226 71 OFFCURVE",
"195 74 OFFCURVE",
"154 79 OFFCURVE",
"134 88 OFFCURVE",
"134 102 OFFCURVE",
"146 121 OFFCURVE",
"158 125 QCURVE",
"186 120 OFFCURVE",
"226 120 QCURVE SMOOTH",
"303 120 OFFCURVE",
"405 224 OFFCURVE",
"405 287 QCURVE SMOOTH",
"405 310 OFFCURVE",
"390 363 OFFCURVE",
"390 364 QCURVE SMOOTH",
"390 366 OFFCURVE",
"394 367 QCURVE",
"453 367 LINE SMOOTH",
"459 367 OFFCURVE",
"459 381 QCURVE SMOOTH",
"459 388 OFFCURVE",
"443 422 OFFCURVE",
"440 423 QCURVE",
"385 423 LINE SMOOTH",
"356 423 OFFCURVE",
"259 449 OFFCURVE",
"223 449 QCURVE SMOOTH",
"145 449 OFFCURVE",
"36 364 OFFCURVE",
"36 282 QCURVE SMOOTH"
);
}
);
};
layerId = "6D340022-02C4-426D-A0D8-A7BFACBEB22E";
paths = (
{
closed = 1;
nodes = (
"168 -157 OFFCURVE",
"118 -126 OFFCURVE",
"118 -86 CURVE SMOOTH",
"118 -74 OFFCURVE",
"120.333 -65 OFFCURVE",
"125 -59 CURVE",
"129.667 -51.667 OFFCURVE",
"143 -44.333 OFFCURVE",
"165 -37 CURVE",
"165.667 -37 OFFCURVE",
"167 -36.667 OFFCURVE",
"169 -36 CURVE",
"281 -36 OFFCURVE",
"337 -51 OFFCURVE",
"337 -81 CURVE SMOOTH",
"337 -131.667 OFFCURVE",
"289.333 -157 OFFCURVE",
"220 -157 CURVE SMOOTH"
);
},
{
closed = 1;
nodes = (
"165 346.735 OFFCURVE",
"167.948 396 OFFCURVE",
"216 396 CURVE SMOOTH",
"264 396 OFFCURVE",
"276 353.333 OFFCURVE",
"276 268 CURVE SMOOTH",
"276 213.897 OFFCURVE",
"271.229 172 OFFCURVE",
"222 172 CURVE SMOOTH",
"171.239 172 OFFCURVE",
"165 231.329 OFFCURVE",
"165 294 CURVE SMOOTH",
"165 295.333 OFFCURVE",
"165 297 OFFCURVE",
"165 299 CURVE SMOOTH"
);
},
{
closed = 1;
nodes = (
"36 224.667 OFFCURVE",
"74.333 163.333 OFFCURVE",
"113 142 CURVE",
"81.431 124.462 OFFCURVE",
"37 101.116 OFFCURVE",
"37 64 CURVE SMOOTH",
"37 25.333 OFFCURVE",
"70.333 -10.333 OFFCURVE",
"105 -25 CURVE",
"58.333 -39.667 OFFCURVE",
"23 -78.667 OFFCURVE",
"23 -108 CURVE SMOOTH",
"23 -174.667 OFFCURVE",
"101.667 -218 OFFCURVE",
"203 -218 CURVE SMOOTH",
"324.333 -218 OFFCURVE",
"454.333 -133.333 OFFCURVE",
"453 -36 CURVE SMOOTH",
"452.333 28.667 OFFCURVE",
"398.667 63.667 OFFCURVE",
"292 69 CURVE",
"266.564 69 OFFCURVE",
"203.18 73.002 OFFCURVE",
"174.5 76.5 CURVE SMOOTH",
"126.738 82.325 OFFCURVE",
"121.963 90.464 OFFCURVE",
"158 125 CURVE",
"176.667 121.667 OFFCURVE",
"199.333 120 OFFCURVE",
"226 120 CURVE SMOOTH",
"328.667 120 OFFCURVE",
"405 203 OFFCURVE",
"405 287 CURVE SMOOTH",
"405 302.333 OFFCURVE",
"402.5 318.833 OFFCURVE",
"397.5 336.5 CURVE SMOOTH",
"392.5 354.167 OFFCURVE",
"390 363.333 OFFCURVE",
"390 364 CURVE SMOOTH",
"390 365.333 OFFCURVE",
"391.333 366.333 OFFCURVE",
"394 367 CURVE",
"453 367 LINE SMOOTH",
"457 367 OFFCURVE",
"459 371.667 OFFCURVE",
"459 381 CURVE SMOOTH",
"459 390.333 OFFCURVE",
"444 421.667 OFFCURVE",
"440 423 CURVE",
"385 423 LINE SMOOTH",
"365.667 423 OFFCURVE",
"339.833 427.333 OFFCURVE",
"307.5 436 CURVE SMOOTH",
"275.167 444.667 OFFCURVE",
"247 449 OFFCURVE",
"223 449 CURVE SMOOTH",
"119 449 OFFCURVE",
"36 391.333 OFFCURVE",
"36 282 CURVE SMOOTH"
);
}
);
width = 485;
}
);
note = g;
unicode = 0067;
},
{
glyphname = h;
lastChange = "2018-03-09 10:42:30 +0000";
layers = (
{
background = {
paths = (
{
closed = 1;
nodes = (
"237 384 OFFCURVE",
"236 384 QCURVE SMOOTH",
"232 384 OFFCURVE",
"232 391 QCURVE SMOOTH",
"232 577 LINE SMOOTH",
"232 633 OFFCURVE",
"244 678 QCURVE",
"243 683 OFFCURVE",
"235 695 OFFCURVE",
"231 695 QCURVE SMOOTH",
"229 695 LINE",
"219 692 LINE SMOOTH",
"209 689 OFFCURVE",
"174 679 OFFCURVE",
"130 669 OFFCURVE",
"67 659 OFFCURVE",
"36 656 QCURVE",
"30 656 OFFCURVE",
"30 639 QCURVE SMOOTH",
"30 619 OFFCURVE",
"36 619 QCURVE SMOOTH",
"45 619 LINE SMOOTH",
"92 619 OFFCURVE",
"97 603 QCURVE",
"102 578 OFFCURVE",
"102 531 QCURVE SMOOTH",
"102 134 LINE SMOOTH",
"102 88 OFFCURVE",
"95 58 QCURVE",
"93 51 OFFCURVE",
"41 33 OFFCURVE",
"30 33 QCURVE SMOOTH",
"26 33 OFFCURVE",
"26 0 OFFCURVE",
"30 -4 QCURVE",
"41 -3 OFFCURVE",
"143 4 OFFCURVE",
"167 4 QCURVE SMOOTH",
"190 4 OFFCURVE",
"288 -3 OFFCURVE",
"300 -4 QCURVE",
"302 0 OFFCURVE",
"301 33 OFFCURVE",
"298 33 QCURVE SMOOTH",
"290 33 OFFCURVE",
"241 51 OFFCURVE",
"239 58 QCURVE SMOOTH",
"232 85 OFFCURVE",
"232 149 QCURVE SMOOTH",
"232 317 LINE SMOOTH",
"232 361 OFFCURVE",
"302 361 QCURVE SMOOTH",
"347 361 OFFCURVE",
"387 298 OFFCURVE",
"387 224 QCURVE SMOOTH",
"387 134 LINE SMOOTH",
"387 88 OFFCURVE",
"380 58 QCURVE",
"378 51 OFFCURVE",
"330 33 OFFCURVE",
"319 33 QCURVE SMOOTH",
"315 33 OFFCURVE",
"315 0 OFFCURVE",
"319 -4 QCURVE",
"331 -3 OFFCURVE",
"428 4 OFFCURVE",
"452 4 QCURVE SMOOTH",
"475 4 OFFCURVE",
"578 -3 OFFCURVE",
"589 -4 QCURVE",
"591 0 OFFCURVE",
"590 33 OFFCURVE",
"587 33 QCURVE SMOOTH",
"578 33 OFFCURVE",
"526 51 OFFCURVE",
"524 58 QCURVE SMOOTH",
"517 85 OFFCURVE",
"517 149 QCURVE SMOOTH",
"517 248 LINE SMOOTH",
"517 348 OFFCURVE",
"444 446 OFFCURVE",
"386 446 QCURVE SMOOTH",
"343 446 OFFCURVE",
"263 413 OFFCURVE",
"241 388 QCURVE"
);
}
);
};
layerId = "6D340022-02C4-426D-A0D8-A7BFACBEB22E";
paths = (
{
closed = 1;
nodes = (
"238.333 385.333 OFFCURVE",
"236.667 384 OFFCURVE",
"236 384 CURVE SMOOTH",
"233.333 384 OFFCURVE",
"232 386.333 OFFCURVE",
"232 391 CURVE SMOOTH",
"232 577 LINE SMOOTH",
"232 614.333 OFFCURVE",
"236 648 OFFCURVE",
"244 678 CURVE",
"242.667 684.667 OFFCURVE",
"236.333 695 OFFCURVE",
"231 695 CURVE SMOOTH",
"229 695 LINE",
"219 692 LINE SMOOTH",
"179.424 680.127 OFFCURVE",
"114.521 663.599 OFFCURVE",
"36 656 CURVE",
"32 656 OFFCURVE",
"30 650.333 OFFCURVE",
"30 639 CURVE SMOOTH",
"30 625.667 OFFCURVE",
"32 619 OFFCURVE",
"36 619 CURVE SMOOTH",
"45 619 LINE SMOOTH",
"76.333 619 OFFCURVE",
"93.667 613.667 OFFCURVE",
"97 603 CURVE",
"100.333 586.333 OFFCURVE",
"102 562.333 OFFCURVE",
"102 531 CURVE SMOOTH",
"102 134 LINE SMOOTH",
"102 103.333 OFFCURVE",
"99.667 78 OFFCURVE",
"95 58 CURVE",
"92.333 48.667 OFFCURVE",
"44.667 33 OFFCURVE",
"30 33 CURVE SMOOTH",
"27.333 33 OFFCURVE",
"26 27.5 OFFCURVE",
"26 16.5 CURVE SMOOTH",
"26 5.5 OFFCURVE",
"27.333 -1.333 OFFCURVE",
"30 -4 CURVE",
"44.667 -2.667 OFFCURVE",
"135 4 OFFCURVE",
"167 4 CURVE SMOOTH",
"197.667 4 OFFCURVE",
"284 -2.667 OFFCURVE",
"300 -4 CURVE",
"302.667 1.333 OFFCURVE",
"302 33 OFFCURVE",
"298 33 CURVE SMOOTH",
"287.333 33 OFFCURVE",
"241.667 48.667 OFFCURVE",
"239 58 CURVE SMOOTH",
"234.333 76 OFFCURVE",
"232 106.333 OFFCURVE",
"232 149 CURVE SMOOTH",
"232 317 LINE SMOOTH",
"232 346.333 OFFCURVE",
"255.333 361 OFFCURVE",
"302 361 CURVE SMOOTH",
"362 361 OFFCURVE",
"387 322.667 OFFCURVE",
"387 224 CURVE SMOOTH",
"387 134 LINE SMOOTH",
"387 103.333 OFFCURVE",
"384.667 78 OFFCURVE",
"380 58 CURVE",
"377.333 48.667 OFFCURVE",
"333.667 33 OFFCURVE",
"319 33 CURVE SMOOTH",
"316.333 33 OFFCURVE",
"315 27.5 OFFCURVE",
"315 16.5 CURVE SMOOTH",
"315 5.5 OFFCURVE",
"316.333 -1.333 OFFCURVE",
"319 -4 CURVE",
"335 -2.667 OFFCURVE",
"420 4 OFFCURVE",
"452 4 CURVE SMOOTH",
"482.667 4 OFFCURVE",
"574.333 -2.667 OFFCURVE",
"589 -4 CURVE",
"591.667 1.333 OFFCURVE",
"591 33 OFFCURVE",
"587 33 CURVE SMOOTH",
"575 33 OFFCURVE",
"526.667 48.667 OFFCURVE",
"524 58 CURVE SMOOTH",
"519.333 76 OFFCURVE",
"517 106.333 OFFCURVE",
"517 149 CURVE SMOOTH",
"517 248 LINE SMOOTH",
"517 381.333 OFFCURVE",
"463.333 446 OFFCURVE",
"386 446 CURVE SMOOTH",
"328.667 446 OFFCURVE",
"270.333 421.333 OFFCURVE",
"241 388 CURVE"
);
}
);
width = 622;
}
);
note = h;
unicode = 0068;
},
{
glyphname = i;
lastChange = "2018-03-09 10:42:30 +0000";
layers = (
{
background = {
paths = (
{
closed = 1;
nodes = (
"189 542 OFFCURVE",
"232 585 OFFCURVE",
"232 647 OFFCURVE",
"189 690 OFFCURVE",
"128 690 OFFCURVE",
"84 647 OFFCURVE",
"84 585 OFFCURVE",
"128 542 OFFCURVE"
);
},
{
closed = 1;
nodes = (
"232 341 OFFCURVE",
"236 374 OFFCURVE",
"242 418 OFFCURVE",
"243 426 QCURVE",
"243 430 OFFCURVE",
"234 443 OFFCURVE",
"228 443 QCURVE SMOOTH",
"228 443 OFFCURVE",
"218 440 OFFCURVE",
"217 440 QCURVE",
"189 431 OFFCURVE",
"54 404 OFFCURVE",
"34 404 QCURVE SMOOTH",
"29 404 OFFCURVE",
"29 369 QCURVE SMOOTH",
"29 368 OFFCURVE",
"50 364 OFFCURVE",
"77 354 OFFCURVE",
"84 346 QCURVE",
"102 327 OFFCURVE",
"102 271 QCURVE SMOOTH",
"102 134 LINE SMOOTH",
"102 88 OFFCURVE",
"95 58 QCURVE",
"93 51 OFFCURVE",
"42 33 OFFCURVE",
"30 33 QCURVE SMOOTH",
"27 33 OFFCURVE",
"27 0 OFFCURVE",
"30 -4 QCURVE",
"42 -3 OFFCURVE",
"143 4 OFFCURVE",
"167 4 QCURVE SMOOTH",
"190 4 OFFCURVE",
"294 -3 OFFCURVE",
"304 -4 QCURVE",
"306 0 OFFCURVE",
"306 33 OFFCURVE",
"302 33 QCURVE SMOOTH",
"294 33 OFFCURVE",
"241 51 OFFCURVE",
"239 58 QCURVE SMOOTH",
"232 85 OFFCURVE",
"232 149 QCURVE SMOOTH",
"232 326 LINE SMOOTH"
);
}
);
};
layerId = "6D340022-02C4-426D-A0D8-A7BFACBEB22E";
paths = (
{
closed = 1;
nodes = (
"232 350.176 OFFCURVE",
"240.095 402.76 OFFCURVE",
"243 426 CURVE",
"243 431.333 OFFCURVE",
"236 443 OFFCURVE",
"228 443 CURVE SMOOTH",
"228 443 OFFCURVE",
"218.333 440 OFFCURVE",
"217 440 CURVE",
"179.667 428 OFFCURVE",
"60.667 404 OFFCURVE",
"34 404 CURVE SMOOTH",
"30.667 404 OFFCURVE",
"29 392.333 OFFCURVE",
"29 369 CURVE SMOOTH",
"29 367.549 OFFCURVE",
"77.795 353.091 OFFCURVE",
"84 346 CURVE",
"96 333.333 OFFCURVE",
"102 308.333 OFFCURVE",
"102 271 CURVE SMOOTH",
"102 134 LINE SMOOTH",
"102 103.333 OFFCURVE",
"99.667 78 OFFCURVE",
"95 58 CURVE",
"92.333 48.667 OFFCURVE",
"46 33 OFFCURVE",
"30 33 CURVE SMOOTH",
"28 33 OFFCURVE",
"27 27.5 OFFCURVE",
"27 16.5 CURVE SMOOTH",
"27 5.5 OFFCURVE",
"28 -1.333 OFFCURVE",
"30 -4 CURVE",
"46 -2.667 OFFCURVE",
"135 4 OFFCURVE",
"167 4 CURVE SMOOTH",
"197.667 4 OFFCURVE",
"290.667 -2.667 OFFCURVE",
"304 -4 CURVE",
"305.333 -1.333 OFFCURVE",
"306 5.5 OFFCURVE",
"306 16.5 CURVE SMOOTH",
"306 27.5 OFFCURVE",
"304.667 33 OFFCURVE",
"302 33 CURVE SMOOTH",
"291.333 33 OFFCURVE",
"241.667 48.667 OFFCURVE",
"239 58 CURVE SMOOTH",
"234.333 76 OFFCURVE",
"232 106.333 OFFCURVE",
"232 149 CURVE SMOOTH",
"232 326 LINE SMOOTH"
);
}
);
width = 326;
}
);
note = i;
unicode = 0069;
},
{
glyphname = j;
lastChange = "2018-03-09 10:42:30 +0000";
layers = (
{
background = {
paths = (
{
closed = 1;
nodes = (
"126 31 OFFCURVE",
"104 -78 OFFCURVE",
"80 -133 OFFCURVE",
"42 -175 OFFCURVE",
"32 -180 OFFCURVE",
"24 -184 QCURVE",
"23 -185 OFFCURVE",
"23 -194 QCURVE SMOOTH",
"23 -209 OFFCURVE",
"39 -218 QCURVE",
"63 -218 OFFCURVE",
"184 -140 OFFCURVE",
"208 -102 QCURVE SMOOTH",
"256 -27 OFFCURVE",
"256 120 QCURVE SMOOTH",
"256 326 LINE SMOOTH",
"256 341 OFFCURVE",
"260 375 OFFCURVE",
"267 416 OFFCURVE",
"268 426 QCURVE",
"268 430 OFFCURVE",
"258 443 OFFCURVE",
"252 443 QCURVE",
"247 442 LINE",
"242 440 LINE",
"214 431 OFFCURVE",
"77 404 OFFCURVE",
"58 404 QCURVE SMOOTH",
"54 404 OFFCURVE",
"54 369 QCURVE SMOOTH",
"54 368 OFFCURVE",
"74 364 OFFCURVE",
"101 354 OFFCURVE",
"108 346 QCURVE",
"126 327 OFFCURVE",
"126 271 QCURVE SMOOTH",
"126 100 LINE SMOOTH"
);
},
{
closed = 1;
nodes = (
"214 542 OFFCURVE",
"257 585 OFFCURVE",
"257 647 OFFCURVE",
"214 690 OFFCURVE",
"152 690 OFFCURVE",
"109 647 OFFCURVE",
"109 585 OFFCURVE",
"152 542 OFFCURVE"
);
}
);
};
layerId = "6D340022-02C4-426D-A0D8-A7BFACBEB22E";
paths = (
{
closed = 1;
nodes = (
"126 8 OFFCURVE",
"108 -68.833 OFFCURVE",
"92 -105.5 CURVE SMOOTH",
"76 -142.167 OFFCURVE",
"48 -172 OFFCURVE",
"24 -184 CURVE",
"23.333 -184.667 OFFCURVE",
"23 -188 OFFCURVE",
"23 -194 CURVE SMOOTH",
"23 -204 OFFCURVE",
"28.333 -212 OFFCURVE",
"39 -218 CURVE",
"71 -218 OFFCURVE",
"176 -152.667 OFFCURVE",
"208 -102 CURVE SMOOTH",
"240 -52 OFFCURVE",
"256 22 OFFCURVE",
"256 120 CURVE SMOOTH",
"256 326 LINE SMOOTH",
"256 353.384 OFFCURVE",
"265.247 398.466 OFFCURVE",
"268 426 CURVE",
"268 431.333 OFFCURVE",
"260 443 OFFCURVE",
"252 443 CURVE",
"247 442 LINE",
"242 440 LINE",
"204.667 428 OFFCURVE",
"83.333 404 OFFCURVE",
"58 404 CURVE SMOOTH",
"55.333 404 OFFCURVE",
"54 392.333 OFFCURVE",
"54 369 CURVE SMOOTH",
"54 367.601 OFFCURVE",
"101.387 353.558 OFFCURVE",
"108 346 CURVE",
"120 333.333 OFFCURVE",
"126 308.333 OFFCURVE",
"126 271 CURVE SMOOTH",
"126 100 LINE SMOOTH"
);
},
);
width = 294;
}
);
note = j;
unicode = 006A;
},
{
glyphname = k;
lastChange = "2018-03-09 10:42:30 +0000";
layers = (
{
background = {
paths = (
{
closed = 1;
nodes = (
"561 405 OFFCURVE",
"563 421 OFFCURVE",
"562 440 OFFCURVE",
"558 442 QCURVE",
"513 440 OFFCURVE",
"454 440 QCURVE SMOOTH",
"412 440 OFFCURVE",
"340 441 QCURVE",
"336 440 OFFCURVE",
"336 412 OFFCURVE",
"338 405 QCURVE",
"340 404 OFFCURVE",
"364 403 OFFCURVE",
"384 397 OFFCURVE",
"384 388 QCURVE SMOOTH",
"384 384 OFFCURVE",
"381 375 OFFCURVE",
"371 364 OFFCURVE",
"361 353 OFFCURVE",
"338 334 OFFCURVE",
"319 317 OFFCURVE",
"282 286 OFFCURVE",
"266 272 QCURVE SMOOTH",
"259 266 OFFCURVE",
"232 259 QCURVE",
"232 577 LINE SMOOTH",
"232 633 OFFCURVE",
"244 678 QCURVE",
"243 683 OFFCURVE",
"235 695 OFFCURVE",
"231 695 QCURVE SMOOTH",
"229 695 LINE",
"219 692 LINE SMOOTH",
"209 689 OFFCURVE",
"174 679 OFFCURVE",
"130 669 OFFCURVE",
"67 659 OFFCURVE",
"36 656 QCURVE",
"30 656 OFFCURVE",
"30 639 QCURVE SMOOTH",
"30 619 OFFCURVE",
"36 619 QCURVE SMOOTH",
"45 619 LINE SMOOTH",
"92 619 OFFCURVE",
"97 603 QCURVE",
"102 578 OFFCURVE",
"102 531 QCURVE SMOOTH",
"102 134 LINE SMOOTH",
"102 88 OFFCURVE",
"95 58 QCURVE",
"93 51 OFFCURVE",
"41 33 OFFCURVE",
"30 33 QCURVE SMOOTH",
"26 33 OFFCURVE",
"26 0 OFFCURVE",
"30 -4 QCURVE",
"41 -3 OFFCURVE",
"143 4 OFFCURVE",
"167 4 QCURVE SMOOTH",
"190 4 OFFCURVE",
"293 -3 OFFCURVE",
"304 -4 QCURVE",
"306 0 OFFCURVE",
"305 33 OFFCURVE",
"302 33 QCURVE SMOOTH",
"293 33 OFFCURVE",
"241 51 OFFCURVE",
"239 58 QCURVE SMOOTH",
"232 85 OFFCURVE",
"232 149 QCURVE SMOOTH",
"232 213 LINE",
"243 216 LINE",
"389 49 LINE",
"390 48 OFFCURVE",
"390 46 QCURVE SMOOTH",
"390 41 OFFCURVE",
"364 33 OFFCURVE",
"354 33 QCURVE SMOOTH",
"350 33 OFFCURVE",
"350 0 OFFCURVE",
"354 -4 QCURVE",
"359 -4 OFFCURVE",
"463 3 OFFCURVE",
"487 3 QCURVE SMOOTH",
"493 3 OFFCURVE",
"613 -3 QCURVE",
"615 1 OFFCURVE",
"615 14 QCURVE SMOOTH",
"615 33 OFFCURVE",
"610 33 QCURVE SMOOTH",
"601 33 OFFCURVE",
"559 48 OFFCURVE",
"546 59 QCURVE",
"534 68 OFFCURVE",
"473 136 OFFCURVE",
"381 242 OFFCURVE",
"352 273 QCURVE",
"418 341 OFFCURVE",
"489 382 QCURVE SMOOTH",
"528 405 OFFCURVE",
"559 405 QCURVE SMOOTH"
);
}
);
};
layerId = "6D340022-02C4-426D-A0D8-A7BFACBEB22E";
paths = (
{
closed = 1;
nodes = (
"564.567 405 OFFCURVE",
"564.265 438.868 OFFCURVE",
"558 442 CURVE",
"528 440.667 OFFCURVE",
"493.333 440 OFFCURVE",
"454 440 CURVE SMOOTH",
"426 440 OFFCURVE",
"388 440.333 OFFCURVE",
"340 441 CURVE",
"337.333 440.333 OFFCURVE",
"336 435.333 OFFCURVE",
"336 426 CURVE SMOOTH",
"336 416.667 OFFCURVE",
"336.667 409.667 OFFCURVE",
"338 405 CURVE",
"350.618 398.691 OFFCURVE",
"384 408.265 OFFCURVE",
"384 388 CURVE SMOOTH",
"384 377.886 OFFCURVE",
"376.08 369.588 OFFCURVE",
"366 358.5 CURVE SMOOTH",
"360.762 352.738 OFFCURVE",
"294.078 295.84 OFFCURVE",
"266 272 CURVE SMOOTH",
"261.333 268 OFFCURVE",
"250 263.667 OFFCURVE",
"232 259 CURVE",
"232 577 LINE SMOOTH",
"232 614.333 OFFCURVE",
"236 648 OFFCURVE",
"244 678 CURVE",
"242.667 684.667 OFFCURVE",
"236.333 695 OFFCURVE",
"231 695 CURVE SMOOTH",
"229 695 LINE",
"219 692 LINE SMOOTH",
"179.424 680.127 OFFCURVE",
"114.521 663.599 OFFCURVE",
"36 656 CURVE",
"32 656 OFFCURVE",
"30 650.333 OFFCURVE",
"30 639 CURVE SMOOTH",
"30 625.667 OFFCURVE",
"32 619 OFFCURVE",
"36 619 CURVE SMOOTH",
"45 619 LINE SMOOTH",
"76.333 619 OFFCURVE",
"93.667 613.667 OFFCURVE",
"97 603 CURVE",
"100.333 586.333 OFFCURVE",
"102 562.333 OFFCURVE",
"102 531 CURVE SMOOTH",
"102 134 LINE SMOOTH",
"102 103.333 OFFCURVE",
"99.667 78 OFFCURVE",
"95 58 CURVE",
"92.333 48.667 OFFCURVE",
"44.667 33 OFFCURVE",
"30 33 CURVE SMOOTH",
"27.333 33 OFFCURVE",
"26 27.5 OFFCURVE",
"26 16.5 CURVE SMOOTH",
"26 5.5 OFFCURVE",
"27.333 -1.333 OFFCURVE",
"30 -4 CURVE",
"44.667 -2.667 OFFCURVE",
"135 4 OFFCURVE",
"167 4 CURVE SMOOTH",
"197.667 4 OFFCURVE",
"289.333 -2.667 OFFCURVE",
"304 -4 CURVE",
"306.667 1.333 OFFCURVE",
"306 33 OFFCURVE",
"302 33 CURVE SMOOTH",
"290 33 OFFCURVE",
"241.667 48.667 OFFCURVE",
"239 58 CURVE SMOOTH",
"234.333 76 OFFCURVE",
"232 106.333 OFFCURVE",
"232 149 CURVE SMOOTH",
"232 213 LINE",
"243 216 LINE",
"389 49 LINE",
"389.667 48.333 OFFCURVE",
"390 47.333 OFFCURVE",
"390 46 CURVE SMOOTH",
"390 39.333 OFFCURVE",
"367.333 33 OFFCURVE",
"354 33 CURVE SMOOTH",
"351.333 33 OFFCURVE",
"350 27.5 OFFCURVE",
"350 16.5 CURVE SMOOTH",
"350 5.5 OFFCURVE",
"351.333 -1.333 OFFCURVE",
"354 -4 CURVE",
"357.333 -4 OFFCURVE",
"376.333 -2.833 OFFCURVE",
"411 -0.5 CURVE SMOOTH",
"445.667 1.833 OFFCURVE",
"471 3 OFFCURVE",
"487 3 CURVE SMOOTH",
"491 3 OFFCURVE",
"533 1 OFFCURVE",
"613 -3 CURVE",
"614.333 -0.333 OFFCURVE",
"615 5.333 OFFCURVE",
"615 14 CURVE SMOOTH",
"615 26.667 OFFCURVE",
"613.333 33 OFFCURVE",
"610 33 CURVE SMOOTH",
"598 33 OFFCURVE",
"563.333 44.333 OFFCURVE",
"546 59 CURVE",
"499.339 93.995 OFFCURVE",
"387.262 235.306 OFFCURVE",
"352 273 CURVE",
"396 318.333 OFFCURVE",
"441.667 354.667 OFFCURVE",
"489 382 CURVE SMOOTH",
"515 397.333 OFFCURVE",
"538.333 405 OFFCURVE",
"559 405 CURVE SMOOTH"
);
}
);
width = 646;
}
);
note = k;
unicode = 006B;
},
{
glyphname = l;
lastChange = "2018-03-09 10:42:30 +0000";
layers = (
{
background = {
paths = (
{
closed = 1;
nodes = (
"102 88 OFFCURVE",
"95 58 QCURVE",
"93 51 OFFCURVE",
"41 33 OFFCURVE",
"30 33 QCURVE SMOOTH",
"26 33 OFFCURVE",
"26 0 OFFCURVE",
"30 -4 QCURVE",
"41 -3 OFFCURVE",
"143 4 OFFCURVE",
"167 4 QCURVE SMOOTH",
"190 4 OFFCURVE",
"293 -3 OFFCURVE",
"304 -4 QCURVE",
"306 0 OFFCURVE",
"305 33 OFFCURVE",
"302 33 QCURVE SMOOTH",
"293 33 OFFCURVE",
"241 51 OFFCURVE",
"239 58 QCURVE SMOOTH",
"232 85 OFFCURVE",
"232 149 QCURVE SMOOTH",
"233 577 LINE SMOOTH",
"233 633 OFFCURVE",
"244 678 QCURVE",
"243 683 OFFCURVE",
"235 695 OFFCURVE",
"231 695 QCURVE SMOOTH",
"229 695 LINE",
"219 692 LINE SMOOTH",
"209 689 OFFCURVE",
"174 679 OFFCURVE",
"130 669 OFFCURVE",
"67 659 OFFCURVE",
"36 656 QCURVE",
"30 656 OFFCURVE",
"30 639 QCURVE SMOOTH",
"30 619 OFFCURVE",
"36 619 QCURVE SMOOTH",
"45 619 LINE SMOOTH",
"92 619 OFFCURVE",
"97 603 QCURVE",
"102 578 OFFCURVE",
"102 531 QCURVE SMOOTH",
"102 134 LINE SMOOTH"
);
}
);
};
layerId = "6D340022-02C4-426D-A0D8-A7BFACBEB22E";
paths = (
{
closed = 1;
nodes = (
"102 103.333 OFFCURVE",
"99.667 78 OFFCURVE",
"95 58 CURVE",
"92.333 48.667 OFFCURVE",
"44.667 33 OFFCURVE",
"30 33 CURVE SMOOTH",
"27.333 33 OFFCURVE",
"26 27.5 OFFCURVE",
"26 16.5 CURVE SMOOTH",
"26 5.5 OFFCURVE",
"27.333 -1.333 OFFCURVE",
"30 -4 CURVE",
"44.667 -2.667 OFFCURVE",
"135 4 OFFCURVE",
"167 4 CURVE SMOOTH",
"197.667 4 OFFCURVE",
"289.333 -2.667 OFFCURVE",
"304 -4 CURVE",
"306.667 1.333 OFFCURVE",
"306 33 OFFCURVE",
"302 33 CURVE SMOOTH",
"290 33 OFFCURVE",
"241.667 48.667 OFFCURVE",
"239 58 CURVE SMOOTH",
"234.333 76 OFFCURVE",
"232 106.333 OFFCURVE",
"232 149 CURVE SMOOTH",
"233 577 LINE SMOOTH",
"233 614.333 OFFCURVE",
"236.667 648 OFFCURVE",
"244 678 CURVE",
"242.667 684.667 OFFCURVE",
"236.333 695 OFFCURVE",
"231 695 CURVE SMOOTH",
"229 695 LINE",
"219 692 LINE SMOOTH",
"179.424 680.127 OFFCURVE",
"114.521 663.599 OFFCURVE",
"36 656 CURVE",
"32 656 OFFCURVE",
"30 650.333 OFFCURVE",
"30 639 CURVE SMOOTH",
"30 625.667 OFFCURVE",
"32 619 OFFCURVE",
"36 619 CURVE SMOOTH",
"45 619 LINE SMOOTH",
"76.333 619 OFFCURVE",
"93.667 613.667 OFFCURVE",
"97 603 CURVE",
"100.333 586.333 OFFCURVE",
"102 562.333 OFFCURVE",
"102 531 CURVE SMOOTH",
"102 134 LINE SMOOTH"
);
}
);
width = 334;
}
);
note = l;
unicode = 006C;
},
{
glyphname = m;
lastChange = "2018-03-09 10:42:30 +0000";
layers = (
{
background = {
paths = (
{
closed = 1;
nodes = (
"243 389 OFFCURVE",
"241 389 QCURVE",
"240 390 OFFCURVE",
"240 395 QCURVE SMOOTH",
"240 398 OFFCURVE",
"244 426 QCURVE",
"244 430 OFFCURVE",
"234 443 OFFCURVE",
"229 443 QCURVE",
"227 442 LINE",
"225 442 OFFCURVE",
"220 440 OFFCURVE",
"218 440 QCURVE",
"193 435 OFFCURVE",
"103 415 OFFCURVE",
"47 404 OFFCURVE",
"35 404 QCURVE SMOOTH",
"30 404 OFFCURVE",
"30 369 QCURVE SMOOTH",
"30 368 OFFCURVE",
"50 364 OFFCURVE",
"78 354 OFFCURVE",
"85 346 QCURVE",
"103 327 OFFCURVE",
"103 271 QCURVE SMOOTH",
"103 134 LINE SMOOTH",
"103 88 OFFCURVE",
"96 58 QCURVE",
"94 51 OFFCURVE",
"42 33 OFFCURVE",
"31 33 QCURVE SMOOTH",
"27 33 OFFCURVE",
"27 0 OFFCURVE",
"31 -4 QCURVE",
"42 -3 OFFCURVE",
"144 4 OFFCURVE",
"168 4 QCURVE SMOOTH",
"191 4 OFFCURVE",
"289 -3 OFFCURVE",
"301 -4 QCURVE",
"303 0 OFFCURVE",
"302 33 OFFCURVE",
"299 33 QCURVE SMOOTH",
"291 33 OFFCURVE",
"242 51 OFFCURVE",
"240 58 QCURVE SMOOTH",
"233 85 OFFCURVE",
"233 149 QCURVE SMOOTH",
"233 317 LINE SMOOTH",
"233 338 OFFCURVE",
"271 361 OFFCURVE",
"302 361 QCURVE SMOOTH",
"347 361 OFFCURVE",
"388 298 OFFCURVE",
"388 224 QCURVE SMOOTH",
"388 134 LINE SMOOTH",
"388 88 OFFCURVE",
"381 58 QCURVE",
"379 51 OFFCURVE",
"329 33 OFFCURVE",
"318 33 QCURVE SMOOTH",
"314 33 OFFCURVE",
"314 0 OFFCURVE",
"318 -4 QCURVE",
"330 -3 OFFCURVE",
"429 4 OFFCURVE",
"453 4 QCURVE SMOOTH",
"476 4 OFFCURVE",
"577 -3 OFFCURVE",
"588 -4 QCURVE",
"590 0 OFFCURVE",
"589 33 OFFCURVE",
"586 33 QCURVE SMOOTH",
"577 33 OFFCURVE",
"527 51 OFFCURVE",
"525 58 QCURVE SMOOTH",
"518 85 OFFCURVE",
"518 149 QCURVE SMOOTH",
"518 248 LINE SMOOTH",
"518 284 OFFCURVE",
"516 302 QCURVE SMOOTH",
"515 315 OFFCURVE",
"518 323 QCURVE SMOOTH",
"532 361 OFFCURVE",
"588 361 QCURVE SMOOTH",
"633 361 OFFCURVE",
"674 293 OFFCURVE",
"674 224 QCURVE SMOOTH",
"674 134 LINE SMOOTH",
"674 88 OFFCURVE",
"667 58 QCURVE",
"665 51 OFFCURVE",
"615 33 OFFCURVE",
"604 33 QCURVE SMOOTH",
"600 33 OFFCURVE",
"600 0 OFFCURVE",
"604 -4 QCURVE",
"616 -3 OFFCURVE",
"715 4 OFFCURVE",
"739 4 QCURVE SMOOTH",
"762 4 OFFCURVE",
"863 -3 OFFCURVE",
"874 -4 QCURVE",
"876 0 OFFCURVE",
"875 33 OFFCURVE",
"872 33 QCURVE SMOOTH",
"863 33 OFFCURVE",
"813 51 OFFCURVE",
"811 58 QCURVE SMOOTH",
"804 85 OFFCURVE",
"804 149 QCURVE SMOOTH",
"804 248 LINE SMOOTH",
"804 348 OFFCURVE",
"731 446 OFFCURVE",
"673 446 QCURVE SMOOTH",
"555 445 OFFCURVE",
"493 377 QCURVE",
"459 446 OFFCURVE",
"387 446 QCURVE SMOOTH",
"304 446 OFFCURVE",
"248 394 QCURVE"
);
}
);
};
layerId = "6D340022-02C4-426D-A0D8-A7BFACBEB22E";
paths = (
{
closed = 1;
nodes = (
"244.667 390.667 OFFCURVE",
"242.333 389 OFFCURVE",
"241 389 CURVE",
"240.333 389.667 OFFCURVE",
"240 391.667 OFFCURVE",
"240 395 CURVE SMOOTH",
"240 397 OFFCURVE",
"241.333 407.333 OFFCURVE",
"244 426 CURVE",
"244 431.333 OFFCURVE",
"235.667 443 OFFCURVE",
"229 443 CURVE",
"227 442 LINE",
"225.667 442 OFFCURVE",
"224.167 441.667 OFFCURVE",
"222.5 441 CURVE SMOOTH",
"220.833 440.333 OFFCURVE",
"219.333 440 OFFCURVE",
"218 440 CURVE",
"186.891 433.778 OFFCURVE",
"75.331 404 OFFCURVE",
"35 404 CURVE SMOOTH",
"31.667 404 OFFCURVE",
"30 392.333 OFFCURVE",
"30 369 CURVE SMOOTH",
"30 367.489 OFFCURVE",
"77.987 354.014 OFFCURVE",
"85 346 CURVE",
"97 333.333 OFFCURVE",
"103 308.333 OFFCURVE",
"103 271 CURVE SMOOTH",
"103 134 LINE SMOOTH",
"103 103.333 OFFCURVE",
"100.667 78 OFFCURVE",
"96 58 CURVE",
"93.333 48.667 OFFCURVE",
"45.667 33 OFFCURVE",
"31 33 CURVE SMOOTH",
"28.333 33 OFFCURVE",
"27 27.5 OFFCURVE",
"27 16.5 CURVE SMOOTH",
"27 5.5 OFFCURVE",
"28.333 -1.333 OFFCURVE",
"31 -4 CURVE",
"45.667 -2.667 OFFCURVE",
"136 4 OFFCURVE",
"168 4 CURVE SMOOTH",
"198.667 4 OFFCURVE",
"285 -2.667 OFFCURVE",
"301 -4 CURVE",
"303.667 1.333 OFFCURVE",
"303 33 OFFCURVE",
"299 33 CURVE SMOOTH",
"288.333 33 OFFCURVE",
"242.667 48.667 OFFCURVE",
"240 58 CURVE SMOOTH",
"235.333 76 OFFCURVE",
"233 106.333 OFFCURVE",
"233 149 CURVE SMOOTH",
"233 317 LINE SMOOTH",
"233 345 OFFCURVE",
"260.667 361 OFFCURVE",
"302 361 CURVE SMOOTH",
"362 361 OFFCURVE",
"388 322.667 OFFCURVE",
"388 224 CURVE SMOOTH",
"388 134 LINE SMOOTH",
"388 103.333 OFFCURVE",
"385.667 78 OFFCURVE",
"381 58 CURVE",
"378.333 48.667 OFFCURVE",
"332.667 33 OFFCURVE",
"318 33 CURVE SMOOTH",
"315.333 33 OFFCURVE",
"314 27.5 OFFCURVE",
"314 16.5 CURVE SMOOTH",
"314 5.5 OFFCURVE",
"315.333 -1.333 OFFCURVE",
"318 -4 CURVE",
"334 -2.667 OFFCURVE",
"421 4 OFFCURVE",
"453 4 CURVE SMOOTH",
"483.667 4 OFFCURVE",
"573.333 -2.667 OFFCURVE",
"588 -4 CURVE",
"590.667 1.333 OFFCURVE",
"590 33 OFFCURVE",
"586 33 CURVE SMOOTH",
"574 33 OFFCURVE",
"527.667 48.667 OFFCURVE",
"525 58 CURVE SMOOTH",
"520.333 76 OFFCURVE",
"518 106.333 OFFCURVE",
"518 149 CURVE SMOOTH",
"518 248 LINE SMOOTH",
"518 272 OFFCURVE",
"517.333 290 OFFCURVE",
"516 302 CURVE SMOOTH",
"515.333 310.667 OFFCURVE",
"516 317.667 OFFCURVE",
"518 323 CURVE SMOOTH",
"527.333 348.333 OFFCURVE",
"550.667 361 OFFCURVE",
"588 361 CURVE SMOOTH",
"648 361 OFFCURVE",
"674 316 OFFCURVE",
"674 224 CURVE SMOOTH",
"674 134 LINE SMOOTH",
"674 103.333 OFFCURVE",
"671.667 78 OFFCURVE",
"667 58 CURVE",
"664.333 48.667 OFFCURVE",
"618.667 33 OFFCURVE",
"604 33 CURVE SMOOTH",
"601.333 33 OFFCURVE",
"600 27.5 OFFCURVE",
"600 16.5 CURVE SMOOTH",
"600 5.5 OFFCURVE",
"601.333 -1.333 OFFCURVE",
"604 -4 CURVE",
"620 -2.667 OFFCURVE",
"707 4 OFFCURVE",
"739 4 CURVE SMOOTH",
"769.667 4 OFFCURVE",
"859.333 -2.667 OFFCURVE",
"874 -4 CURVE",
"876.667 1.333 OFFCURVE",
"876 33 OFFCURVE",
"872 33 CURVE SMOOTH",
"860 33 OFFCURVE",
"813.667 48.667 OFFCURVE",
"811 58 CURVE SMOOTH",
"806.333 76 OFFCURVE",
"804 106.333 OFFCURVE",
"804 149 CURVE SMOOTH",
"804 248 LINE SMOOTH",
"804 381.333 OFFCURVE",
"750.333 446 OFFCURVE",
"673 446 CURVE SMOOTH",
"594.333 445.333 OFFCURVE",
"534.333 422.333 OFFCURVE",
"493 377 CURVE",
"470.333 423 OFFCURVE",
"435 446 OFFCURVE",
"387 446 CURVE SMOOTH",
"331.667 446 OFFCURVE",
"285.333 428.667 OFFCURVE",
"248 394 CURVE"
);
}
);
width = 888;
}
);
note = m;
unicode = 006D;
},
{
glyphname = n;
lastChange = "2018-03-09 10:42:30 +0000";
layers = (
{
background = {
paths = (
{
closed = 1;
nodes = (
"243 389 OFFCURVE",
"241 389 QCURVE",
"240 390 OFFCURVE",
"240 395 QCURVE SMOOTH",
"240 398 OFFCURVE",
"244 426 QCURVE",
"244 430 OFFCURVE",
"234 443 OFFCURVE",
"229 443 QCURVE",
"227 442 LINE",
"225 442 OFFCURVE",
"220 440 OFFCURVE",
"218 440 QCURVE",
"193 435 OFFCURVE",
"103 415 OFFCURVE",
"47 404 OFFCURVE",
"35 404 QCURVE SMOOTH",
"30 404 OFFCURVE",
"30 369 QCURVE SMOOTH",
"30 368 OFFCURVE",
"50 364 OFFCURVE",
"78 354 OFFCURVE",
"85 346 QCURVE",
"103 327 OFFCURVE",
"103 271 QCURVE SMOOTH",
"103 134 LINE SMOOTH",
"103 88 OFFCURVE",
"96 58 QCURVE",
"94 51 OFFCURVE",
"42 33 OFFCURVE",
"31 33 QCURVE SMOOTH",
"27 33 OFFCURVE",
"27 0 OFFCURVE",
"31 -4 QCURVE",
"42 -3 OFFCURVE",
"144 4 OFFCURVE",
"168 4 QCURVE SMOOTH",
"191 4 OFFCURVE",
"289 -3 OFFCURVE",
"301 -4 QCURVE",
"303 0 OFFCURVE",
"302 33 OFFCURVE",
"299 33 QCURVE SMOOTH",
"291 33 OFFCURVE",
"242 51 OFFCURVE",
"240 58 QCURVE SMOOTH",
"233 85 OFFCURVE",
"233 149 QCURVE SMOOTH",
"233 317 LINE SMOOTH",
"233 338 OFFCURVE",
"271 361 OFFCURVE",
"302 361 QCURVE SMOOTH",
"347 361 OFFCURVE",
"388 298 OFFCURVE",
"388 224 QCURVE SMOOTH",
"388 134 LINE SMOOTH",
"388 88 OFFCURVE",
"381 58 QCURVE",
"379 51 OFFCURVE",
"331 33 OFFCURVE",
"320 33 QCURVE SMOOTH",
"316 33 OFFCURVE",
"316 0 OFFCURVE",
"320 -4 QCURVE",
"332 -3 OFFCURVE",
"429 4 OFFCURVE",
"453 4 QCURVE SMOOTH",
"476 4 OFFCURVE",
"579 -3 OFFCURVE",
"590 -4 QCURVE",
"592 0 OFFCURVE",
"591 33 OFFCURVE",
"588 33 QCURVE SMOOTH",
"579 33 OFFCURVE",
"527 51 OFFCURVE",
"525 58 QCURVE SMOOTH",
"518 85 OFFCURVE",
"518 149 QCURVE SMOOTH",
"518 248 LINE SMOOTH",
"518 348 OFFCURVE",
"445 446 OFFCURVE",
"387 446 QCURVE SMOOTH",
"304 446 OFFCURVE",
"248 394 QCURVE"
);
}
);
};
layerId = "6D340022-02C4-426D-A0D8-A7BFACBEB22E";
paths = (
{
closed = 1;
nodes = (
"244.667 390.667 OFFCURVE",
"242.333 389 OFFCURVE",
"241 389 CURVE",
"240.333 389.667 OFFCURVE",
"240 391.667 OFFCURVE",
"240 395 CURVE SMOOTH",
"240 397 OFFCURVE",
"241.333 407.333 OFFCURVE",
"244 426 CURVE",
"244 431.333 OFFCURVE",
"235.667 443 OFFCURVE",
"229 443 CURVE",
"227 442 LINE",
"225.667 442 OFFCURVE",
"224.167 441.667 OFFCURVE",
"222.5 441 CURVE SMOOTH",
"220.833 440.333 OFFCURVE",
"219.333 440 OFFCURVE",
"218 440 CURVE",
"186.891 433.778 OFFCURVE",
"75.331 404 OFFCURVE",
"35 404 CURVE SMOOTH",
"31.667 404 OFFCURVE",
"30 392.333 OFFCURVE",
"30 369 CURVE SMOOTH",
"30 367.489 OFFCURVE",
"77.987 354.014 OFFCURVE",
"85 346 CURVE",
"97 333.333 OFFCURVE",
"103 308.333 OFFCURVE",
"103 271 CURVE SMOOTH",
"103 134 LINE SMOOTH",
"103 103.333 OFFCURVE",
"100.667 78 OFFCURVE",
"96 58 CURVE",
"93.333 48.667 OFFCURVE",
"45.667 33 OFFCURVE",
"31 33 CURVE SMOOTH",
"28.333 33 OFFCURVE",
"27 27.5 OFFCURVE",
"27 16.5 CURVE SMOOTH",
"27 5.5 OFFCURVE",
"28.333 -1.333 OFFCURVE",
"31 -4 CURVE",
"45.667 -2.667 OFFCURVE",
"136 4 OFFCURVE",
"168 4 CURVE SMOOTH",
"198.667 4 OFFCURVE",
"285 -2.667 OFFCURVE",
"301 -4 CURVE",
"303.667 1.333 OFFCURVE",
"303 33 OFFCURVE",
"299 33 CURVE SMOOTH",
"288.333 33 OFFCURVE",
"242.667 48.667 OFFCURVE",
"240 58 CURVE SMOOTH",
"235.333 76 OFFCURVE",
"233 106.333 OFFCURVE",
"233 149 CURVE SMOOTH",
"233 317 LINE SMOOTH",
"233 345 OFFCURVE",
"260.667 361 OFFCURVE",
"302 361 CURVE SMOOTH",
"362 361 OFFCURVE",
"388 322.667 OFFCURVE",
"388 224 CURVE SMOOTH",
"388 134 LINE SMOOTH",
"388 103.333 OFFCURVE",
"385.667 78 OFFCURVE",
"381 58 CURVE",
"378.333 48.667 OFFCURVE",
"334.667 33 OFFCURVE",
"320 33 CURVE SMOOTH",
"317.333 33 OFFCURVE",
"316 27.5 OFFCURVE",
"316 16.5 CURVE SMOOTH",
"316 5.5 OFFCURVE",
"317.333 -1.333 OFFCURVE",
"320 -4 CURVE",
"336 -2.667 OFFCURVE",
"421 4 OFFCURVE",
"453 4 CURVE SMOOTH",
"483.667 4 OFFCURVE",
"575.333 -2.667 OFFCURVE",
"590 -4 CURVE",
"592.667 1.333 OFFCURVE",
"592 33 OFFCURVE",
"588 33 CURVE SMOOTH",
"576 33 OFFCURVE",
"527.667 48.667 OFFCURVE",
"525 58 CURVE SMOOTH",
"520.333 76 OFFCURVE",
"518 106.333 OFFCURVE",
"518 149 CURVE SMOOTH",
"518 248 LINE SMOOTH",
"518 381.333 OFFCURVE",
"464.333 446 OFFCURVE",
"387 446 CURVE SMOOTH",
"331.667 446 OFFCURVE",
"285.333 428.667 OFFCURVE",
"248 394 CURVE"
);
}
);
width = 622;
}
);
note = n;
unicode = 006E;
},
{
glyphname = o;
lastChange = "2018-03-09 10:42:30 +0000";
layers = (
{
background = {
paths = (
{
closed = 1;
nodes = (
"352 130 OFFCURVE",
"313 48 OFFCURVE",
"271 48 QCURVE SMOOTH",
"168 48 OFFCURVE",
"168 251 QCURVE SMOOTH",
"168 287 OFFCURVE",
"180 346 OFFCURVE",
"218 392 OFFCURVE",
"247 392 QCURVE SMOOTH",
"352 392 OFFCURVE",
"352 185 QCURVE SMOOTH"
);
},
{
closed = 1;
nodes = (
"360 -7 OFFCURVE",
"496 125 OFFCURVE",
"496 315 OFFCURVE",
"359 447 OFFCURVE",
"163 447 OFFCURVE",
"26 315 OFFCURVE",
"26 125 OFFCURVE",
"163 -7 OFFCURVE",
"261 -7 QCURVE SMOOTH"
);
}
);
};
layerId = "6D340022-02C4-426D-A0D8-A7BFACBEB22E";
paths = (
{
closed = 1;
nodes = (
"352 111.667 OFFCURVE",
"327 48 OFFCURVE",
"271 48 CURVE SMOOTH",
"202.333 48 OFFCURVE",
"168 115.667 OFFCURVE",
"168 251 CURVE SMOOTH",
"168 317.191 OFFCURVE",
"186.119 392 OFFCURVE",
"247 392 CURVE SMOOTH",
"317 392 OFFCURVE",
"352 323 OFFCURVE",
"352 185 CURVE SMOOTH"
);
},
{
closed = 1;
nodes = (
"393 -7 OFFCURVE",
"496 93.333 OFFCURVE",
"496 220 CURVE SMOOTH",
"496 346.667 OFFCURVE",
"391.667 447 OFFCURVE",
"261 447 CURVE SMOOTH",
"130.333 447 OFFCURVE",
"26 346.667 OFFCURVE",
"26 220 CURVE SMOOTH",
"26 93.333 OFFCURVE",
"130.333 -7 OFFCURVE",
"261 -7 CURVE SMOOTH"
);
}
);
width = 523;
}
);
note = o;
unicode = 006F;
},
{
glyphname = p;
lastChange = "2018-03-09 10:42:30 +0000";
layers = (
{
background = {
paths = (
{
closed = 1;
nodes = (
"232 424 OFFCURVE",
"232 430 QCURVE SMOOTH",
"232 443 OFFCURVE",
"226 443 QCURVE SMOOTH",
"224 443 OFFCURVE",
"193 433 QCURVE SMOOTH",
"93 404 OFFCURVE",
"32 404 QCURVE SMOOTH",
"27 404 OFFCURVE",
"27 369 QCURVE SMOOTH",
"27 368 OFFCURVE",
"47 364 OFFCURVE",
"75 354 OFFCURVE",
"82 346 QCURVE",
"100 327 OFFCURVE",
"100 271 QCURVE SMOOTH",
"100 -80 LINE SMOOTH",
"100 -126 OFFCURVE",
"93 -156 QCURVE",
"91 -163 OFFCURVE",
"39 -181 OFFCURVE",
"28 -181 QCURVE SMOOTH",
"24 -181 OFFCURVE",
"24 -214 OFFCURVE",
"28 -218 QCURVE",
"39 -217 OFFCURVE",
"141 -210 OFFCURVE",
"165 -210 QCURVE SMOOTH",
"188 -210 OFFCURVE",
"291 -217 OFFCURVE",
"302 -218 QCURVE",
"304 -214 OFFCURVE",
"303 -181 OFFCURVE",
"300 -181 QCURVE SMOOTH",
"291 -181 OFFCURVE",
"239 -163 OFFCURVE",
"237 -156 QCURVE SMOOTH",
"230 -129 OFFCURVE",
"230 -65 QCURVE SMOOTH",
"230 -15 LINE SMOOTH",
"230 1 OFFCURVE",
"234 1 QCURVE SMOOTH",
"235 1 OFFCURVE",
"253 -4 OFFCURVE",
"280 -8 OFFCURVE",
"292 -8 QCURVE SMOOTH",
"400 -8 OFFCURVE",
"542 116 OFFCURVE",
"542 227 QCURVE SMOOTH",
"542 314 OFFCURVE",
"417 446 OFFCURVE",
"322 446 QCURVE SMOOTH",
"274 446 OFFCURVE",
"230 412 QCURVE"
);
},
{
closed = 1;
nodes = (
"398 46 OFFCURVE",
"308 46 QCURVE SMOOTH",
"280 46 OFFCURVE",
"230 87 OFFCURVE",
"230 125 QCURVE SMOOTH",
"230 314 LINE SMOOTH",
"230 346 OFFCURVE",
"272 388 OFFCURVE",
"307 388 QCURVE SMOOTH",
"398 388 OFFCURVE",
"398 194 QCURVE SMOOTH"
);
}
);
};
layerId = "6D340022-02C4-426D-A0D8-A7BFACBEB22E";
paths = (
{
closed = 1;
nodes = (
"231.333 420 OFFCURVE",
"232 426 OFFCURVE",
"232 430 CURVE SMOOTH",
"232 438.667 OFFCURVE",
"230 443 OFFCURVE",
"226 443 CURVE SMOOTH",
"224.667 443 OFFCURVE",
"213.667 439.667 OFFCURVE",
"193 433 CURVE SMOOTH",
"126.333 413.667 OFFCURVE",
"72.667 404 OFFCURVE",
"32 404 CURVE SMOOTH",
"28.667 404 OFFCURVE",
"27 392.333 OFFCURVE",
"27 369 CURVE SMOOTH",
"27 367.489 OFFCURVE",
"74.987 354.014 OFFCURVE",
"82 346 CURVE",
"94 333.333 OFFCURVE",
"100 308.333 OFFCURVE",
"100 271 CURVE SMOOTH",
"100 -80 LINE SMOOTH",
"100 -110.667 OFFCURVE",
"97.667 -136 OFFCURVE",
"93 -156 CURVE",
"90.333 -165.333 OFFCURVE",
"42.667 -181 OFFCURVE",
"28 -181 CURVE SMOOTH",
"25.333 -181 OFFCURVE",
"24 -186.5 OFFCURVE",
"24 -197.5 CURVE SMOOTH",
"24 -208.5 OFFCURVE",
"25.333 -215.333 OFFCURVE",
"28 -218 CURVE",
"42.667 -216.667 OFFCURVE",
"133 -210 OFFCURVE",
"165 -210 CURVE SMOOTH",
"195.667 -210 OFFCURVE",
"287.333 -216.667 OFFCURVE",
"302 -218 CURVE",
"304.667 -212.667 OFFCURVE",
"304 -181 OFFCURVE",
"300 -181 CURVE SMOOTH",
"288 -181 OFFCURVE",
"239.667 -165.333 OFFCURVE",
"237 -156 CURVE SMOOTH",
"232.333 -138 OFFCURVE",
"230 -107.667 OFFCURVE",
"230 -65 CURVE SMOOTH",
"230 -15 LINE SMOOTH",
"230 -4.333 OFFCURVE",
"231.333 1 OFFCURVE",
"234 1 CURVE SMOOTH",
"238.458 1 OFFCURVE",
"274.915 -8 OFFCURVE",
"292 -8 CURVE SMOOTH",
"436 -8 OFFCURVE",
"542 79 OFFCURVE",
"542 227 CURVE SMOOTH",
"542 343 OFFCURVE",
"448.667 446 OFFCURVE",
"322 446 CURVE SMOOTH",
"290 446 OFFCURVE",
"259.333 434.667 OFFCURVE",
"230 412 CURVE"
);
},
{
closed = 1;
nodes = (
"398 95.333 OFFCURVE",
"368 46 OFFCURVE",
"308 46 CURVE SMOOTH",
"270.667 46 OFFCURVE",
"230 74.333 OFFCURVE",
"230 125 CURVE SMOOTH",
"230 314 LINE SMOOTH",
"230 356.667 OFFCURVE",
"260.333 388 OFFCURVE",
"307 388 CURVE SMOOTH",
"367.667 388 OFFCURVE",
"398 323.333 OFFCURVE",
"398 194 CURVE SMOOTH"
);
}
);
width = 567;
}
);
note = p;
unicode = 0070;
},
{
glyphname = thorn;
lastChange = "2018-03-09 10:42:30 +0000";
layers = (
{
background = {
paths = (
{
closed = 1;
nodes = (
"223 412 OFFCURVE",
"223 418 QCURVE SMOOTH",
"223 577 LINE SMOOTH",
"223 633 OFFCURVE",
"235 678 QCURVE",
"234 683 OFFCURVE",
"226 695 OFFCURVE",
"222 695 QCURVE SMOOTH",
"220 695 LINE",
"210 692 LINE SMOOTH",
"200 689 OFFCURVE",
"165 679 OFFCURVE",
"121 669 OFFCURVE",
"58 659 OFFCURVE",
"27 656 QCURVE",
"21 656 OFFCURVE",
"21 639 QCURVE SMOOTH",
"21 619 OFFCURVE",
"27 619 QCURVE SMOOTH",
"36 619 LINE SMOOTH",
"83 619 OFFCURVE",
"88 603 QCURVE",
"93 578 OFFCURVE",
"93 528 QCURVE SMOOTH",
"93 -80 LINE SMOOTH",
"93 -126 OFFCURVE",
"86 -156 QCURVE",
"84 -163 OFFCURVE",
"32 -181 OFFCURVE",
"21 -181 QCURVE SMOOTH",
"17 -181 OFFCURVE",
"17 -214 OFFCURVE",
"21 -218 QCURVE",
"32 -217 OFFCURVE",
"134 -210 OFFCURVE",
"158 -210 QCURVE SMOOTH",
"181 -210 OFFCURVE",
"284 -217 OFFCURVE",
"295 -218 QCURVE",
"297 -214 OFFCURVE",
"296 -181 OFFCURVE",
"293 -181 QCURVE SMOOTH",
"284 -181 OFFCURVE",
"232 -163 OFFCURVE",
"230 -156 QCURVE SMOOTH",
"223 -129 OFFCURVE",
"223 -65 QCURVE SMOOTH",
"223 -15 LINE SMOOTH",
"223 1 OFFCURVE",
"227 1 QCURVE SMOOTH",
"228 1 OFFCURVE",
"246 -4 OFFCURVE",
"273 -8 OFFCURVE",
"285 -8 QCURVE SMOOTH",
"393 -8 OFFCURVE",
"535 116 OFFCURVE",
"535 227 QCURVE SMOOTH",
"535 314 OFFCURVE",
"410 446 OFFCURVE",
"315 446 QCURVE SMOOTH",
"269 446 OFFCURVE",
"225 412 QCURVE"
);
},
{
closed = 1;
nodes = (
"391 46 OFFCURVE",
"301 46 QCURVE SMOOTH",
"273 46 OFFCURVE",
"223 87 OFFCURVE",
"223 125 QCURVE SMOOTH",
"223 314 LINE SMOOTH",
"223 346 OFFCURVE",
"265 388 OFFCURVE",
"300 388 QCURVE SMOOTH",
"391 388 OFFCURVE",
"391 194 QCURVE SMOOTH"
);
}
);
};
layerId = "6D340022-02C4-426D-A0D8-A7BFACBEB22E";
paths = (
{
closed = 1;
nodes = (
"223.667 412 OFFCURVE",
"223 414 OFFCURVE",
"223 418 CURVE SMOOTH",
"223 577 LINE SMOOTH",
"223 614.333 OFFCURVE",
"227 648 OFFCURVE",
"235 678 CURVE",
"233.667 684.667 OFFCURVE",
"227.333 695 OFFCURVE",
"222 695 CURVE SMOOTH",
"220 695 LINE",
"210 692 LINE SMOOTH",
"170.424 680.127 OFFCURVE",
"105.521 663.599 OFFCURVE",
"27 656 CURVE",
"23 656 OFFCURVE",
"21 650.333 OFFCURVE",
"21 639 CURVE SMOOTH",
"21 625.667 OFFCURVE",
"23 619 OFFCURVE",
"27 619 CURVE SMOOTH",
"36 619 LINE SMOOTH",
"67.333 619 OFFCURVE",
"84.667 613.667 OFFCURVE",
"88 603 CURVE",
"91.333 586.333 OFFCURVE",
"93 561.333 OFFCURVE",
"93 528 CURVE SMOOTH",
"93 -80 LINE SMOOTH",
"93 -110.667 OFFCURVE",
"90.667 -136 OFFCURVE",
"86 -156 CURVE",
"83.333 -165.333 OFFCURVE",
"35.667 -181 OFFCURVE",
"21 -181 CURVE SMOOTH",
"18.333 -181 OFFCURVE",
"17 -186.5 OFFCURVE",
"17 -197.5 CURVE SMOOTH",
"17 -208.5 OFFCURVE",
"18.333 -215.333 OFFCURVE",
"21 -218 CURVE",
"35.667 -216.667 OFFCURVE",
"126 -210 OFFCURVE",
"158 -210 CURVE SMOOTH",
"188.667 -210 OFFCURVE",
"280.333 -216.667 OFFCURVE",
"295 -218 CURVE",
"297.667 -212.667 OFFCURVE",
"297 -181 OFFCURVE",
"293 -181 CURVE SMOOTH",
"281 -181 OFFCURVE",
"232.667 -165.333 OFFCURVE",
"230 -156 CURVE SMOOTH",
"225.333 -138 OFFCURVE",
"223 -107.667 OFFCURVE",
"223 -65 CURVE SMOOTH",
"223 -15 LINE SMOOTH",
"223 -4.333 OFFCURVE",
"224.333 1 OFFCURVE",
"227 1 CURVE SMOOTH",
"231.458 1 OFFCURVE",
"267.915 -8 OFFCURVE",
"285 -8 CURVE SMOOTH",
"429 -8 OFFCURVE",
"535 79 OFFCURVE",
"535 227 CURVE SMOOTH",
"535 343 OFFCURVE",
"441.667 446 OFFCURVE",
"315 446 CURVE SMOOTH",
"284.333 446 OFFCURVE",
"254.333 434.667 OFFCURVE",
"225 412 CURVE"
);
},
{
closed = 1;
nodes = (
"391 95.333 OFFCURVE",
"361 46 OFFCURVE",
"301 46 CURVE SMOOTH",
"263.667 46 OFFCURVE",
"223 74.333 OFFCURVE",
"223 125 CURVE SMOOTH",
"223 314 LINE SMOOTH",
"223 356.667 OFFCURVE",
"253.333 388 OFFCURVE",
"300 388 CURVE SMOOTH",
"360.667 388 OFFCURVE",
"391 323.333 OFFCURVE",
"391 194 CURVE SMOOTH"
);
}
);
width = 567;
}
);
note = thorn;
unicode = 00FE;
},
{
glyphname = q;
lastChange = "2018-03-09 10:42:30 +0000";
layers = (
{
background = {
paths = (
{
closed = 1;
nodes = (
"28 118 OFFCURVE",
"161 -8 OFFCURVE",
"244 -8 QCURVE SMOOTH",
"295 -8 OFFCURVE",
"335 21 QCURVE",
"336 22 OFFCURVE",
"337 22 QCURVE SMOOTH",
"341 22 OFFCURVE",
"341 8 QCURVE SMOOTH",
"341 -80 LINE SMOOTH",
"341 -126 OFFCURVE",
"334 -156 QCURVE",
"332 -163 OFFCURVE",
"280 -181 OFFCURVE",
"269 -181 QCURVE SMOOTH",
"265 -181 OFFCURVE",
"265 -214 OFFCURVE",
"269 -218 QCURVE",
"280 -217 OFFCURVE",
"382 -210 OFFCURVE",
"406 -210 QCURVE SMOOTH",
"429 -210 OFFCURVE",
"532 -217 OFFCURVE",
"543 -218 QCURVE",
"545 -214 OFFCURVE",
"544 -181 OFFCURVE",
"541 -181 QCURVE SMOOTH",
"532 -181 OFFCURVE",
"480 -163 OFFCURVE",
"478 -156 QCURVE SMOOTH",
"471 -129 OFFCURVE",
"471 -65 QCURVE SMOOTH",
"471 307 LINE SMOOTH",
"471 327 OFFCURVE",
"473 366 OFFCURVE",
"476 392 OFFCURVE",
"478 412 OFFCURVE",
"480 423 OFFCURVE",
"480 424 QCURVE SMOOTH",
"480 429 OFFCURVE",
"450 448 OFFCURVE",
"446 448 QCURVE SMOOTH",
"444 448 OFFCURVE",
"403 429 OFFCURVE",
"395 429 QCURVE SMOOTH",
"371 429 OFFCURVE",
"309 447 OFFCURVE",
"266 447 QCURVE SMOOTH",
"167 447 OFFCURVE",
"28 315 OFFCURVE",
"28 213 QCURVE SMOOTH"
);
},
{
closed = 1;
nodes = (
"341 116 LINE SMOOTH",
"341 90 OFFCURVE",
"294 55 OFFCURVE",
"234 55 OFFCURVE",
"195 89 OFFCURVE",
"178 150 OFFCURVE",
"172 206 OFFCURVE",
"172 244 QCURVE SMOOTH",
"172 393 OFFCURVE",
"259 393 QCURVE SMOOTH",
"341 393 OFFCURVE",
"341 302 QCURVE SMOOTH"
);
}
);
};
layerId = "6D340022-02C4-426D-A0D8-A7BFACBEB22E";
paths = (
{
closed = 1;
nodes = (
"28 86.333 OFFCURVE",
"133.333 -8 OFFCURVE",
"244 -8 CURVE SMOOTH",
"278 -8 OFFCURVE",
"308.333 1.667 OFFCURVE",
"335 21 CURVE",
"335.667 21.667 OFFCURVE",
"336.333 22 OFFCURVE",
"337 22 CURVE SMOOTH",
"339.667 22 OFFCURVE",
"341 17.333 OFFCURVE",
"341 8 CURVE SMOOTH",
"341 -80 LINE SMOOTH",
"341 -110.667 OFFCURVE",
"338.667 -136 OFFCURVE",
"334 -156 CURVE",
"331.333 -165.333 OFFCURVE",
"283.667 -181 OFFCURVE",
"269 -181 CURVE SMOOTH",
"266.333 -181 OFFCURVE",
"265 -186.5 OFFCURVE",
"265 -197.5 CURVE SMOOTH",
"265 -208.5 OFFCURVE",
"266.333 -215.333 OFFCURVE",
"269 -218 CURVE",
"283.667 -216.667 OFFCURVE",
"374 -210 OFFCURVE",
"406 -210 CURVE SMOOTH",
"436.667 -210 OFFCURVE",
"528.333 -216.667 OFFCURVE",
"543 -218 CURVE",
"545.667 -212.667 OFFCURVE",
"545 -181 OFFCURVE",
"541 -181 CURVE SMOOTH",
"529 -181 OFFCURVE",
"480.667 -165.333 OFFCURVE",
"478 -156 CURVE SMOOTH",
"473.333 -138 OFFCURVE",
"471 -107.667 OFFCURVE",
"471 -65 CURVE SMOOTH",
"471 307 LINE SMOOTH",
"471 333.667 OFFCURVE",
"472.5 361.667 OFFCURVE",
"474.5 379 CURVE SMOOTH",
"475.5 387.667 OFFCURVE",
"476.333 395.333 OFFCURVE",
"477 402 CURVE SMOOTH",
"477.667 408.667 OFFCURVE",
"478.667 416 OFFCURVE",
"480 424 CURVE",
"480 430.667 OFFCURVE",
"451.333 448 OFFCURVE",
"446 448 CURVE SMOOTH",
"444.667 448 OFFCURVE",
"437.167 444.833 OFFCURVE",
"423.5 438.5 CURVE SMOOTH",
"409.833 432.167 OFFCURVE",
"400.333 429 OFFCURVE",
"395 429 CURVE SMOOTH",
"379 429 OFFCURVE",
"360.667 432 OFFCURVE",
"340 438 CURVE SMOOTH",
"319.333 444 OFFCURVE",
"294.667 447 OFFCURVE",
"266 447 CURVE SMOOTH",
"134 447 OFFCURVE",
"28 349 OFFCURVE",
"28 213 CURVE SMOOTH"
);
},
{
closed = 1;
nodes = (
"341 116 LINE SMOOTH",
"341 61.552 OFFCURVE",
"256.252 35.601 OFFCURVE",
"214.5 72 CURVE SMOOTH",
"176.836 104.835 OFFCURVE",
"172 192.059 OFFCURVE",
"172 244 CURVE SMOOTH",
"172 343.333 OFFCURVE",
"201 393 OFFCURVE",
"259 393 CURVE SMOOTH",
"313.667 393 OFFCURVE",
"341 362.667 OFFCURVE",
"341 302 CURVE SMOOTH"
);
}
);
width = 516;
}
);
note = q;
unicode = 0071;
},
{
glyphname = r;
lastChange = "2018-03-09 10:42:30 +0000";
layers = (
{
background = {
paths = (
{
closed = 1;
nodes = (
"240 386 OFFCURVE",
"242 414 OFFCURVE",
"244 426 QCURVE",
"244 430 OFFCURVE",
"234 443 OFFCURVE",
"229 443 QCURVE SMOOTH",
"228 443 OFFCURVE",
"218 440 QCURVE",
"193 435 OFFCURVE",
"103 415 OFFCURVE",
"47 404 OFFCURVE",
"35 404 QCURVE SMOOTH",
"30 404 OFFCURVE",
"30 369 QCURVE SMOOTH",
"30 368 OFFCURVE",
"50 364 OFFCURVE",
"78 354 OFFCURVE",
"85 346 QCURVE",
"103 327 OFFCURVE",
"103 271 QCURVE SMOOTH",
"103 134 LINE SMOOTH",
"103 88 OFFCURVE",
"96 58 QCURVE",
"94 51 OFFCURVE",
"42 33 OFFCURVE",
"31 33 QCURVE SMOOTH",
"27 33 OFFCURVE",
"27 0 OFFCURVE",
"31 -4 QCURVE",
"42 -3 OFFCURVE",
"144 4 OFFCURVE",
"168 4 QCURVE SMOOTH",
"191 4 OFFCURVE",
"289 -3 OFFCURVE",
"301 -4 QCURVE",
"303 0 OFFCURVE",
"302 33 OFFCURVE",
"299 33 QCURVE SMOOTH",
"291 33 OFFCURVE",
"242 51 OFFCURVE",
"240 58 QCURVE SMOOTH",
"233 85 OFFCURVE",
"233 148 QCURVE SMOOTH",
"233 249 LINE SMOOTH",
"233 287 OFFCURVE",
"258 354 OFFCURVE",
"288 354 QCURVE SMOOTH",
"308 354 OFFCURVE",
"360 308 OFFCURVE",
"380 308 QCURVE SMOOTH",
"413 308 OFFCURVE",
"438 358 OFFCURVE",
"438 410 QCURVE",
"396 447 OFFCURVE",
"352 447 QCURVE SMOOTH",
"288 447 OFFCURVE",
"239 382 QCURVE"
);
}
);
};
layerId = "6D340022-02C4-426D-A0D8-A7BFACBEB22E";
paths = (
{
closed = 1;
nodes = (
"239.667 384.667 OFFCURVE",
"240.333 390.667 OFFCURVE",
"241 400 CURVE SMOOTH",
"241.667 409.333 OFFCURVE",
"242.667 418 OFFCURVE",
"244 426 CURVE",
"244 431.333 OFFCURVE",
"235.667 443 OFFCURVE",
"229 443 CURVE SMOOTH",
"228.333 443 OFFCURVE",
"224.667 442 OFFCURVE",
"218 440 CURVE",
"186.891 433.778 OFFCURVE",
"75.331 404 OFFCURVE",
"35 404 CURVE SMOOTH",
"31.667 404 OFFCURVE",
"30 392.333 OFFCURVE",
"30 369 CURVE SMOOTH",
"30 367.489 OFFCURVE",
"77.987 354.014 OFFCURVE",
"85 346 CURVE",
"97 333.333 OFFCURVE",
"103 308.333 OFFCURVE",
"103 271 CURVE SMOOTH",
"103 134 LINE SMOOTH",
"103 103.333 OFFCURVE",
"100.667 78 OFFCURVE",
"96 58 CURVE",
"93.333 48.667 OFFCURVE",
"45.667 33 OFFCURVE",
"31 33 CURVE SMOOTH",
"28.333 33 OFFCURVE",
"27 27.5 OFFCURVE",
"27 16.5 CURVE SMOOTH",
"27 5.5 OFFCURVE",
"28.333 -1.333 OFFCURVE",
"31 -4 CURVE",
"45.667 -2.667 OFFCURVE",
"136 4 OFFCURVE",
"168 4 CURVE SMOOTH",
"198.667 4 OFFCURVE",
"285 -2.667 OFFCURVE",
"301 -4 CURVE",
"303.667 1.333 OFFCURVE",
"303 33 OFFCURVE",
"299 33 CURVE SMOOTH",
"288.333 33 OFFCURVE",
"242.667 48.667 OFFCURVE",
"240 58 CURVE SMOOTH",
"235.333 76 OFFCURVE",
"233 106 OFFCURVE",
"233 148 CURVE SMOOTH",
"233 249 LINE SMOOTH",
"233 299.667 OFFCURVE",
"248 354 OFFCURVE",
"288 354 CURVE SMOOTH",
"301.333 354 OFFCURVE",
"316.667 346.333 OFFCURVE",
"334 331 CURVE SMOOTH",
"351.333 315.667 OFFCURVE",
"366.667 308 OFFCURVE",
"380 308 CURVE SMOOTH",
"424 308 OFFCURVE",
"438 340.667 OFFCURVE",
"438 410 CURVE",
"410 434.667 OFFCURVE",
"381.333 447 OFFCURVE",
"352 447 CURVE SMOOTH",
"309.333 447 OFFCURVE",
"271.667 425.333 OFFCURVE",
"239 382 CURVE"
);
}
);
width = 465;
}
);
note = r;
unicode = 0072;
},
{
glyphname = s;
lastChange = "2018-03-09 10:42:30 +0000";
layers = (
{
background = {
paths = (
{
closed = 1;
nodes = (
"26 269 OFFCURVE",
"82 202 OFFCURVE",
"140 174 QCURVE SMOOTH",
"196 146 OFFCURVE",
"239 112 OFFCURVE",
"239 87 QCURVE SMOOTH",
"239 67 OFFCURVE",
"207 45 OFFCURVE",
"183 45 QCURVE SMOOTH",
"92 45 OFFCURVE",
"75 144 QCURVE",
"74 153 OFFCURVE",
"42 153 QCURVE SMOOTH",
"31 153 OFFCURVE",
"27 150 QCURVE",
"27 97 OFFCURVE",
"39 28 QCURVE",
"58 12 OFFCURVE",
"144 -10 OFFCURVE",
"179 -10 QCURVE SMOOTH",
"257 -10 OFFCURVE",
"358 58 OFFCURVE",
"358 124 QCURVE SMOOTH",
"358 156 OFFCURVE",
"333 208 OFFCURVE",
"282 247 OFFCURVE",
"251 265 OFFCURVE",
"224 278 QCURVE SMOOTH",
"185 297 OFFCURVE",
"145 330 OFFCURVE",
"145 353 QCURVE SMOOTH",
"145 373 OFFCURVE",
"173 394 OFFCURVE",
"195 394 QCURVE SMOOTH",
"242 394 OFFCURVE",
"285 346 OFFCURVE",
"294 304 QCURVE SMOOTH",
"296 296 OFFCURVE",
"327 296 QCURVE SMOOTH",
"340 296 OFFCURVE",
"340 305 QCURVE SMOOTH",
"340 383 OFFCURVE",
"330 429 QCURVE",
"288 449 OFFCURVE",
"200 449 QCURVE SMOOTH",
"130 449 OFFCURVE",
"26 386 OFFCURVE",
"26 318 QCURVE SMOOTH"
);
}
);
};
layerId = "6D340022-02C4-426D-A0D8-A7BFACBEB22E";
paths = (
{
closed = 1;
nodes = (
"26 252.667 OFFCURVE",
"62.667 211.333 OFFCURVE",
"140 174 CURVE SMOOTH",
"177.333 155.333 OFFCURVE",
"203.167 140.333 OFFCURVE",
"217.5 129 CURVE SMOOTH",
"231.833 117.667 OFFCURVE",
"239 103.667 OFFCURVE",
"239 87 CURVE SMOOTH",
"239 60.333 OFFCURVE",
"215 45 OFFCURVE",
"183 45 CURVE SMOOTH",
"122.333 45 OFFCURVE",
"86.333 78 OFFCURVE",
"75 144 CURVE",
"74.333 150 OFFCURVE",
"63.333 153 OFFCURVE",
"42 153 CURVE SMOOTH",
"34.667 153 OFFCURVE",
"29.667 152 OFFCURVE",
"27 150 CURVE",
"27 114.667 OFFCURVE",
"31 74 OFFCURVE",
"39 28 CURVE",
"64.333 6.667 OFFCURVE",
"132.333 -10 OFFCURVE",
"179 -10 CURVE SMOOTH",
"283 -10 OFFCURVE",
"358 36 OFFCURVE",
"358 124 CURVE SMOOTH",
"358 210.709 OFFCURVE",
"283.473 249.365 OFFCURVE",
"224 278 CURVE SMOOTH",
"172 303.333 OFFCURVE",
"145 322.333 OFFCURVE",
"145 353 CURVE SMOOTH",
"145 379.667 OFFCURVE",
"165.667 394 OFFCURVE",
"195 394 CURVE SMOOTH",
"257.667 394 OFFCURVE",
"282 360 OFFCURVE",
"294 304 CURVE SMOOTH",
"295.333 298.667 OFFCURVE",
"306.333 296 OFFCURVE",
"327 296 CURVE SMOOTH",
"335.667 296 OFFCURVE",
"340 299 OFFCURVE",
"340 305 CURVE SMOOTH",
"340 357 OFFCURVE",
"336.667 398.333 OFFCURVE",
"330 429 CURVE",
"302 442.333 OFFCURVE",
"258.667 449 OFFCURVE",
"200 449 CURVE SMOOTH",
"106.667 449 OFFCURVE",
"26 408.667 OFFCURVE",
"26 318 CURVE SMOOTH"
);
}
);
width = 384;
}
);
note = s;
unicode = 0073;
},
{
glyphname = t;
lastChange = "2018-03-09 10:42:30 +0000";
layers = (
{
background = {
paths = (
{
closed = 1;
nodes = (
"97 62 OFFCURVE",
"176 -7 OFFCURVE",
"231 -7 QCURVE SMOOTH",
"267 -7 OFFCURVE",
"349 35 OFFCURVE",
"349 47 QCURVE SMOOTH",
"349 52 OFFCURVE",
"340 72 OFFCURVE",
"336 72 QCURVE SMOOTH",
"335 72 OFFCURVE",
"321 64 OFFCURVE",
"296 57 OFFCURVE",
"281 57 QCURVE SMOOTH",
"227 57 OFFCURVE",
"227 133 QCURVE SMOOTH",
"227 370 LINE",
"333 370 LINE",
"343 390 OFFCURVE",
"343 419 QCURVE SMOOTH",
"343 429 OFFCURVE",
"335 429 QCURVE SMOOTH",
"227 429 LINE",
"227 527 LINE SMOOTH",
"227 531 OFFCURVE",
"209 538 OFFCURVE",
"201 538 QCURVE",
"200 537 OFFCURVE",
"171 512 OFFCURVE",
"131 477 OFFCURVE",
"116 466 QCURVE SMOOTH",
"82 440 OFFCURVE",
"26 412 QCURVE",
"24 409 OFFCURVE",
"24 401 QCURVE SMOOTH",
"24 370 OFFCURVE",
"32 370 QCURVE SMOOTH",
"97 370 LINE",
"97 139 LINE SMOOTH"
);
}
);
};
layerId = "6D340022-02C4-426D-A0D8-A7BFACBEB22E";
paths = (
{
closed = 1;
nodes = (
"97 36.333 OFFCURVE",
"157.667 -7 OFFCURVE",
"231 -7 CURVE SMOOTH",
"279 -7 OFFCURVE",
"349 31 OFFCURVE",
"349 47 CURVE SMOOTH",
"349 53.667 OFFCURVE",
"341.333 72 OFFCURVE",
"336 72 CURVE SMOOTH",
"332.345 72 OFFCURVE",
"300.628 57 OFFCURVE",
"281 57 CURVE SMOOTH",
"245 57 OFFCURVE",
"227 82.333 OFFCURVE",
"227 133 CURVE SMOOTH",
"227 370 LINE",
"333 370 LINE",
"339.667 383.333 OFFCURVE",
"343 399.667 OFFCURVE",
"343 419 CURVE SMOOTH",
"343 425.667 OFFCURVE",
"340.333 429 OFFCURVE",
"335 429 CURVE SMOOTH",
"227 429 LINE",
"227 527 LINE SMOOTH",
"227 532.333 OFFCURVE",
"211.667 538 OFFCURVE",
"201 538 CURVE",
"191.675 528.675 OFFCURVE",
"139.524 483.251 OFFCURVE",
"116 466 CURVE SMOOTH",
"93.333 448.667 OFFCURVE",
"63.333 430.667 OFFCURVE",
"26 412 CURVE",
"24.667 410 OFFCURVE",
"24 406.333 OFFCURVE",
"24 401 CURVE SMOOTH",
"24 380.333 OFFCURVE",
"26.667 370 OFFCURVE",
"32 370 CURVE SMOOTH",
"97 370 LINE",
"97 139 LINE SMOOTH"
);
}
);
width = 374;
}
);
note = t;
unicode = 0074;
},
{
glyphname = u;
lastChange = "2018-03-09 10:42:30 +0000";
layers = (
{
background = {
paths = (
{
closed = 1;
nodes = (
"523 430 OFFCURVE",
"513 443 OFFCURVE",
"508 443 QCURVE",
"503 442 LINE",
"498 440 OFFCURVE",
"497 440 QCURVE",
"469 431 OFFCURVE",
"333 404 OFFCURVE",
"314 404 QCURVE SMOOTH",
"309 404 OFFCURVE",
"309 369 QCURVE SMOOTH",
"309 368 OFFCURVE",
"329 364 OFFCURVE",
"357 354 OFFCURVE",
"364 346 QCURVE",
"382 327 OFFCURVE",
"382 271 QCURVE SMOOTH",
"382 128 LINE SMOOTH",
"382 109 OFFCURVE",
"348 78 OFFCURVE",
"314 78 QCURVE SMOOTH",
"267 78 OFFCURVE",
"227 141 OFFCURVE",
"227 219 QCURVE SMOOTH",
"227 326 LINE SMOOTH",
"227 338 OFFCURVE",
"238 426 QCURVE",
"238 430 OFFCURVE",
"228 443 OFFCURVE",
"223 443 QCURVE SMOOTH",
"222 443 OFFCURVE",
"217 442 QCURVE",
"212 440 LINE",
"184 431 OFFCURVE",
"48 404 OFFCURVE",
"29 404 QCURVE SMOOTH",
"24 404 OFFCURVE",
"24 369 QCURVE SMOOTH",
"24 368 OFFCURVE",
"44 364 OFFCURVE",
"72 354 OFFCURVE",
"79 346 QCURVE",
"97 327 OFFCURVE",
"97 271 QCURVE SMOOTH",
"97 174 LINE SMOOTH",
"97 100 OFFCURVE",
"168 -4 OFFCURVE",
"227 -4 QCURVE SMOOTH",
"274 -4 OFFCURVE",
"355 32 OFFCURVE",
"376 54 QCURVE SMOOTH",
"378 56 OFFCURVE",
"380 54 OFFCURVE",
"380 50 QCURVE SMOOTH",
"380 13 LINE SMOOTH",
"380 -5 OFFCURVE",
"386 -5 QCURVE",
"400 -2 LINE",
"414 0 OFFCURVE",
"457 7 OFFCURVE",
"505 14 OFFCURVE",
"553 20 OFFCURVE",
"568 21 QCURVE",
"574 21 OFFCURVE",
"574 50 QCURVE SMOOTH",
"574 56 OFFCURVE",
"570 58 QCURVE",
"560 58 LINE SMOOTH",
"549 58 OFFCURVE",
"527 63 OFFCURVE",
"522 68 QCURVE",
"512 79 OFFCURVE",
"512 131 QCURVE SMOOTH",
"512 327 LINE SMOOTH",
"512 338 OFFCURVE",
"523 426 QCURVE"
);
}
);
};
layerId = "6D340022-02C4-426D-A0D8-A7BFACBEB22E";
paths = (
{
closed = 1;
nodes = (
"523 431.333 OFFCURVE",
"514.667 443 OFFCURVE",
"508 443 CURVE",
"503 442 LINE",
"499.667 440.667 OFFCURVE",
"497.667 440 OFFCURVE",
"497 440 CURVE",
"459.667 428 OFFCURVE",
"339.333 404 OFFCURVE",
"314 404 CURVE SMOOTH",
"310.667 404 OFFCURVE",
"309 392.333 OFFCURVE",
"309 369 CURVE SMOOTH",
"309 367.489 OFFCURVE",
"356.987 354.014 OFFCURVE",
"364 346 CURVE",
"376 333.333 OFFCURVE",
"382 308.333 OFFCURVE",
"382 271 CURVE SMOOTH",
"382 128 LINE SMOOTH",
"382 102.667 OFFCURVE",
"359.333 78 OFFCURVE",
"314 78 CURVE SMOOTH",
"251.333 78 OFFCURVE",
"227 115 OFFCURVE",
"227 219 CURVE SMOOTH",
"227 326 LINE SMOOTH",
"227 334 OFFCURVE",
"230.667 367.333 OFFCURVE",
"238 426 CURVE",
"238 431.333 OFFCURVE",
"229.667 443 OFFCURVE",
"223 443 CURVE SMOOTH",
"222.333 443 OFFCURVE",
"220.333 442.667 OFFCURVE",
"217 442 CURVE",
"212 440 LINE",
"174.667 428 OFFCURVE",
"54.333 404 OFFCURVE",
"29 404 CURVE SMOOTH",
"25.667 404 OFFCURVE",
"24 392.333 OFFCURVE",
"24 369 CURVE SMOOTH",
"24 367.489 OFFCURVE",
"71.987 354.014 OFFCURVE",
"79 346 CURVE",
"91 333.333 OFFCURVE",
"97 308.333 OFFCURVE",
"97 271 CURVE SMOOTH",
"97 174 LINE SMOOTH",
"97 75.333 OFFCURVE",
"148.333 -4 OFFCURVE",
"227 -4 CURVE SMOOTH",
"289.667 -4 OFFCURVE",
"348 24.667 OFFCURVE",
"376 54 CURVE SMOOTH",
"378.667 56.667 OFFCURVE",
"380 55.333 OFFCURVE",
"380 50 CURVE SMOOTH",
"380 13 LINE SMOOTH",
"380 1 OFFCURVE",
"382 -5 OFFCURVE",
"386 -5 CURVE",
"400 -2 LINE",
"438.219 3.46 OFFCURVE",
"536.116 18.874 OFFCURVE",
"568 21 CURVE",
"572 21 OFFCURVE",
"574 30.667 OFFCURVE",
"574 50 CURVE SMOOTH",
"574 54 OFFCURVE",
"572.667 56.667 OFFCURVE",
"570 58 CURVE",
"560 58 LINE SMOOTH",
"545.333 58 OFFCURVE",
"528.667 61.333 OFFCURVE",
"522 68 CURVE",
"515.333 75.333 OFFCURVE",
"512 96.333 OFFCURVE",
"512 131 CURVE SMOOTH",
"512 327 LINE SMOOTH",
"512 334.333 OFFCURVE",
"515.667 367.333 OFFCURVE",
"523 426 CURVE"
);
}
);
width = 599;
}
);
note = u;
unicode = 0075;
},
{
glyphname = v;
lastChange = "2018-03-09 10:42:30 +0000";
layers = (
{
background = {
paths = (
{
closed = 1;
nodes = (
"322 176 LINE",
"243 364 LINE",
"241 379 LINE",
"241 390 OFFCURVE",
"294 406 OFFCURVE",
"309 406 QCURVE SMOOTH",
"313 406 OFFCURVE",
"313 439 OFFCURVE",
"309 443 QCURVE",
"300 443 OFFCURVE",
"191 435 OFFCURVE",
"166 435 QCURVE SMOOTH",
"143 435 OFFCURVE",
"40 442 OFFCURVE",
"29 443 QCURVE",
"25 438 OFFCURVE",
"25 426 QCURVE SMOOTH",
"25 406 OFFCURVE",
"29 406 QCURVE SMOOTH",
"44 406 OFFCURVE",
"91 390 OFFCURVE",
"99 371 QCURVE SMOOTH",
"265 -3 LINE",
"269 -11 OFFCURVE",
"281 -11 QCURVE SMOOTH",
"296 -11 OFFCURVE",
"311 18 QCURVE SMOOTH",
"487 366 LINE SMOOTH",
"497 385 OFFCURVE",
"551 406 OFFCURVE",
"566 406 QCURVE SMOOTH",
"570 406 OFFCURVE",
"570 426 QCURVE SMOOTH",
"570 439 OFFCURVE",
"566 443 QCURVE",
"550 442 OFFCURVE",
"475 435 OFFCURVE",
"451 435 QCURVE SMOOTH",
"429 435 OFFCURVE",
"350 442 OFFCURVE",
"335 443 QCURVE",
"333 437 OFFCURVE",
"333 407 OFFCURVE",
"336 406 QCURVE",
"381 406 OFFCURVE",
"402 385 QCURVE SMOOTH",
"416 371 OFFCURVE",
"401 342 QCURVE SMOOTH"
);
}
);
};
layerId = "6D340022-02C4-426D-A0D8-A7BFACBEB22E";
paths = (
{
closed = 1;
nodes = (
"322 176 LINE",
"243 364 LINE",
"241 379 LINE",
"241 393.667 OFFCURVE",
"289 406 OFFCURVE",
"309 406 CURVE SMOOTH",
"311.667 406 OFFCURVE",
"313 411.5 OFFCURVE",
"313 422.5 CURVE SMOOTH",
"313 433.5 OFFCURVE",
"311.667 440.333 OFFCURVE",
"309 443 CURVE",
"303 443 OFFCURVE",
"281.833 441.667 OFFCURVE",
"245.5 439 CURVE SMOOTH",
"209.167 436.333 OFFCURVE",
"182.667 435 OFFCURVE",
"166 435 CURVE SMOOTH",
"135.333 435 OFFCURVE",
"43.667 441.667 OFFCURVE",
"29 443 CURVE",
"26.333 439.667 OFFCURVE",
"25 434 OFFCURVE",
"25 426 CURVE SMOOTH",
"25 412.667 OFFCURVE",
"26.333 406 OFFCURVE",
"29 406 CURVE SMOOTH",
"49 406 OFFCURVE",
"88.333 396.333 OFFCURVE",
"99 371 CURVE SMOOTH",
"265 -3 LINE",
"267.667 -8.333 OFFCURVE",
"273 -11 OFFCURVE",
"281 -11 CURVE SMOOTH",
"291 -11 OFFCURVE",
"301 -1.333 OFFCURVE",
"311 18 CURVE SMOOTH",
"487 366 LINE SMOOTH",
"500.333 391.333 OFFCURVE",
"546 406 OFFCURVE",
"566 406 CURVE SMOOTH",
"568.667 406 OFFCURVE",
"570 412.667 OFFCURVE",
"570 426 CURVE SMOOTH",
"570 434.667 OFFCURVE",
"568.667 440.333 OFFCURVE",
"566 443 CURVE",
"555.333 442.333 OFFCURVE",
"537.5 440.833 OFFCURVE",
"512.5 438.5 CURVE SMOOTH",
"487.5 436.167 OFFCURVE",
"467 435 OFFCURVE",
"451 435 CURVE SMOOTH",
"436.333 435 OFFCURVE",
"415.833 436.167 OFFCURVE",
"389.5 438.5 CURVE SMOOTH",
"363.167 440.833 OFFCURVE",
"345 442.333 OFFCURVE",
"335 443 CURVE",
"333.667 439 OFFCURVE",
"333 432 OFFCURVE",
"333 422 CURVE SMOOTH",
"333 412 OFFCURVE",
"334 406.667 OFFCURVE",
"336 406 CURVE",
"366 406 OFFCURVE",
"388 399 OFFCURVE",
"402 385 CURVE SMOOTH",
"411.333 375.667 OFFCURVE",
"411 361.333 OFFCURVE",
"401 342 CURVE SMOOTH"
);
}
);
width = 597;
}
);
note = v;
unicode = 0076;
},
{
glyphname = w;
lastChange = "2018-03-09 10:42:30 +0000";
layers = (
{
background = {
paths = (
{
closed = 1;
nodes = (
"524 360 OFFCURVE",
"524 375 QCURVE SMOOTH",
"524 391 OFFCURVE",
"561 405 OFFCURVE",
"578 405 QCURVE SMOOTH",
"581 405 OFFCURVE",
"584 438 OFFCURVE",
"582 443 QCURVE",
"572 443 OFFCURVE",
"469 435 OFFCURVE",
"447 435 QCURVE SMOOTH",
"423 435 OFFCURVE",
"332 442 OFFCURVE",
"319 443 QCURVE",
"315 439 OFFCURVE",
"316 406 OFFCURVE",
"320 406 QCURVE SMOOTH",
"348 406 OFFCURVE",
"361 401 QCURVE",
"378 393 OFFCURVE",
"385 383 QCURVE",
"392 372 OFFCURVE",
"392 348 QCURVE SMOOTH",
"392 344 OFFCURVE",
"387 328 OFFCURVE",
"372 294 OFFCURVE",
"358 266 OFFCURVE",
"327 201 OFFCURVE",
"316 177 QCURVE",
"235 362 OFFCURVE",
"235 388 OFFCURVE",
"285 407 OFFCURVE",
"297 407 QCURVE",
"300 408 OFFCURVE",
"299 437 OFFCURVE",
"297 443 QCURVE",
"289 443 OFFCURVE",
"180 435 OFFCURVE",
"158 435 QCURVE SMOOTH",
"134 435 OFFCURVE",
"39 442 OFFCURVE",
"27 443 QCURVE",
"24 440 OFFCURVE",
"24 424 QCURVE SMOOTH",
"24 405 OFFCURVE",
"28 405 QCURVE SMOOTH",
"40 405 OFFCURVE",
"84 386 OFFCURVE",
"91 372 QCURVE",
"260 0 LINE",
"266 -11 OFFCURVE",
"276 -11 QCURVE SMOOTH",
"291 -11 OFFCURVE",
"311 4 OFFCURVE",
"314 11 QCURVE SMOOTH",
"428 258 LINE",
"547 0 LINE SMOOTH",
"552 -11 OFFCURVE",
"562 -11 QCURVE SMOOTH",
"573 -11 OFFCURVE",
"596 3 OFFCURVE",
"599 10 QCURVE",
"764 357 LINE SMOOTH",
"772 375 OFFCURVE",
"838 406 OFFCURVE",
"849 406 QCURVE SMOOTH",
"853 406 OFFCURVE",
"853 423 QCURVE SMOOTH",
"853 434 OFFCURVE",
"850 443 QCURVE",
"834 442 OFFCURVE",
"758 434 OFFCURVE",
"737 434 QCURVE SMOOTH",
"714 434 OFFCURVE",
"619 442 OFFCURVE",
"605 443 QCURVE",
"601 439 OFFCURVE",
"603 405 OFFCURVE",
"607 405 QCURVE SMOOTH",
"611 405 LINE SMOOTH",
"637 405 OFFCURVE",
"689 385 OFFCURVE",
"689 363 QCURVE SMOOTH",
"689 357 OFFCURVE",
"667 311 OFFCURVE",
"620 215 OFFCURVE",
"602 176 QCURVE"
);
}
);
};
layerId = "6D340022-02C4-426D-A0D8-A7BFACBEB22E";
paths = (
{
closed = 1;
nodes = (
"550 298.667 OFFCURVE",
"524 365 OFFCURVE",
"524 375 CURVE SMOOTH",
"524 396.333 OFFCURVE",
"555.333 405 OFFCURVE",
"578 405 CURVE SMOOTH",
"582 405 OFFCURVE",
"584.667 436.333 OFFCURVE",
"582 443 CURVE",
"575.333 443 OFFCURVE",
"554.833 441.667 OFFCURVE",
"520.5 439 CURVE SMOOTH",
"486.167 436.333 OFFCURVE",
"461.667 435 OFFCURVE",
"447 435 CURVE SMOOTH",
"415 435 OFFCURVE",
"336.333 441.667 OFFCURVE",
"319 443 CURVE",
"313.667 437.667 OFFCURVE",
"314.667 406 OFFCURVE",
"320 406 CURVE SMOOTH",
"338.667 406 OFFCURVE",
"352.333 404.333 OFFCURVE",
"361 401 CURVE",
"372.333 395.667 OFFCURVE",
"380.333 389.667 OFFCURVE",
"385 383 CURVE",
"389.667 375.667 OFFCURVE",
"392 364 OFFCURVE",
"392 348 CURVE SMOOTH",
"392 345.333 OFFCURVE",
"391.167 341.333 OFFCURVE",
"389.5 336 CURVE SMOOTH",
"387.833 330.667 OFFCURVE",
"384.5 322.333 OFFCURVE",
"379.5 311 CURVE SMOOTH",
"374.5 299.667 OFFCURVE",
"369.667 289.333 OFFCURVE",
"365 280 CURVE SMOOTH",
"360.333 270.667 OFFCURVE",
"344 236.333 OFFCURVE",
"316 177 CURVE",
"262 300.333 OFFCURVE",
"235 366.333 OFFCURVE",
"235 375 CURVE SMOOTH",
"235 383.667 OFFCURVE",
"243.333 391.167 OFFCURVE",
"260 397.5 CURVE",
"235 392.333 OFFCURVE",
"281 407 OFFCURVE",
"297 407 CURVE",
"301 408.333 OFFCURVE",
"299.667 435 OFFCURVE",
"297 443 CURVE",
"291.667 443 OFFCURVE",
"270.833 441.667 OFFCURVE",
"234.5 439 CURVE SMOOTH",
"198.167 436.333 OFFCURVE",
"172.667 435 OFFCURVE",
"158 435 CURVE SMOOTH",
"126 435 OFFCURVE",
"43 441.667 OFFCURVE",
"27 443 CURVE",
"25 441 OFFCURVE",
"24 434.667 OFFCURVE",
"24 424 CURVE SMOOTH",
"24 411.333 OFFCURVE",
"25.333 405 OFFCURVE",
"28 405 CURVE SMOOTH",
"44 405 OFFCURVE",
"81.667 390.667 OFFCURVE",
"91 372 CURVE",
"260 0 LINE",
"264 -7.333 OFFCURVE",
"269.333 -11 OFFCURVE",
"276 -11 CURVE SMOOTH",
"296 -11 OFFCURVE",
"310 1.667 OFFCURVE",
"314 11 CURVE SMOOTH",
"428 258 LINE",
"547 0 LINE SMOOTH",
"550.333 -7.333 OFFCURVE",
"555.333 -11 OFFCURVE",
"562 -11 CURVE SMOOTH",
"576.667 -11 OFFCURVE",
"595 0.667 OFFCURVE",
"599 10 CURVE",
"764 357 LINE SMOOTH",
"774.667 381 OFFCURVE",
"834.333 406 OFFCURVE",
"849 406 CURVE SMOOTH",
"851.667 406 OFFCURVE",
"853 411.667 OFFCURVE",
"853 423 CURVE SMOOTH",
"853 430.333 OFFCURVE",
"852 437 OFFCURVE",
"850 443 CURVE",
"839.333 442.333 OFFCURVE",
"821.333 440.667 OFFCURVE",
"796 438 CURVE SMOOTH",
"770.667 435.333 OFFCURVE",
"751 434 OFFCURVE",
"737 434 CURVE SMOOTH",
"721.667 434 OFFCURVE",
"698.167 435.333 OFFCURVE",
"666.5 438 CURVE SMOOTH",
"634.833 440.667 OFFCURVE",
"614.333 442.333 OFFCURVE",
"605 443 CURVE",
"599.667 437.667 OFFCURVE",
"601.667 405 OFFCURVE",
"607 405 CURVE SMOOTH",
"611 405 LINE SMOOTH",
"645.667 405 OFFCURVE",
"689 392.333 OFFCURVE",
"689 363 CURVE SMOOTH",
"689 329.611 OFFCURVE",
"622.661 220.765 OFFCURVE",
"602 176 CURVE"
);
}
);
width = 880;
}
);
note = w;
unicode = 0077;
},
{
glyphname = x;
lastChange = "2018-03-09 10:42:30 +0000";
layers = (
{
background = {
paths = (
{
closed = 1;
nodes = (
"48 405 OFFCURVE",
"87 385 OFFCURVE",
"100 368 QCURVE SMOOTH",
"228 207 LINE",
"232 203 OFFCURVE",
"232 193 OFFCURVE",
"230 190 QCURVE",
"119 68 LINE SMOOTH",
"110 58 OFFCURVE",
"59 37 OFFCURVE",
"34 33 QCURVE",
"30 33 OFFCURVE",
"30 15 QCURVE SMOOTH",
"30 4 OFFCURVE",
"32 -4 QCURVE",
"49 -3 OFFCURVE",
"96 1 OFFCURVE",
"135 4 OFFCURVE",
"156 4 QCURVE SMOOTH",
"183 4 OFFCURVE",
"266 -3 OFFCURVE",
"274 -4 QCURVE",
"278 0 OFFCURVE",
"278 15 QCURVE SMOOTH",
"278 33 OFFCURVE",
"276 33 QCURVE",
"271 34 OFFCURVE",
"252 37 OFFCURVE",
"237 40 OFFCURVE",
"221 46 OFFCURVE",
"212 54 OFFCURVE",
"212 59 QCURVE SMOOTH",
"212 70 OFFCURVE",
"219 78 QCURVE",
"276 150 LINE",
"344 71 LINE",
"346 67 OFFCURVE",
"346 65 QCURVE SMOOTH",
"346 53 OFFCURVE",
"313 34 OFFCURVE",
"300 33 QCURVE",
"296 33 OFFCURVE",
"296 8 QCURVE SMOOTH",
"296 6 OFFCURVE",
"298 -4 QCURVE",
"317 -3 OFFCURVE",
"369 1 OFFCURVE",
"412 4 OFFCURVE",
"436 4 QCURVE SMOOTH",
"459 4 OFFCURVE",
"500 1 OFFCURVE",
"550 -3 OFFCURVE",
"568 -4 QCURVE",
"572 1 OFFCURVE",
"572 10 QCURVE SMOOTH",
"572 31 OFFCURVE",
"568 31 QCURVE",
"521 40 OFFCURVE",
"487 84 QCURVE SMOOTH",
"367 235 LINE",
"363 239 OFFCURVE",
"363 245 QCURVE SMOOTH",
"363 248 OFFCURVE",
"366 253 QCURVE",
"480 378 LINE SMOOTH",
"498 398 OFFCURVE",
"569 406 QCURVE",
"572 406 OFFCURVE",
"572 425 QCURVE SMOOTH",
"572 437 OFFCURVE",
"569 443 QCURVE",
"462 436 OFFCURVE",
"451 436 QCURVE SMOOTH",
"441 436 OFFCURVE",
"324 443 QCURVE",
"320 438 OFFCURVE",
"320 424 QCURVE SMOOTH",
"320 406 OFFCURVE",
"324 406 QCURVE SMOOTH",
"386 406 OFFCURVE",
"386 385 QCURVE SMOOTH",
"386 379 OFFCURVE",
"367 351 OFFCURVE",
"330 304 OFFCURVE",
"322 293 QCURVE",
"260 370 LINE SMOOTH",
"255 376 OFFCURVE",
"255 382 QCURVE SMOOTH",
"255 392 OFFCURVE",
"286 406 OFFCURVE",
"300 406 QCURVE SMOOTH",
"305 406 OFFCURVE",
"305 425 QCURVE SMOOTH",
"305 438 OFFCURVE",
"302 443 QCURVE",
"178 436 OFFCURVE",
"167 436 QCURVE SMOOTH",
"154 436 OFFCURVE",
"30 443 QCURVE",
"27 437 OFFCURVE",
"27 425 QCURVE SMOOTH",
"27 405 OFFCURVE",
"32 405 QCURVE SMOOTH"
);
}
);
};
layerId = "6D340022-02C4-426D-A0D8-A7BFACBEB22E";
paths = (
{
closed = 1;
nodes = (
"53.333 405 OFFCURVE",
"82.667 390.667 OFFCURVE",
"100 368 CURVE SMOOTH",
"228 207 LINE",
"230.667 204.333 OFFCURVE",
"232 201.333 OFFCURVE",
"232 198 CURVE SMOOTH",
"232 194.667 OFFCURVE",
"231.333 192 OFFCURVE",
"230 190 CURVE",
"119 68 LINE SMOOTH",
"107 54.667 OFFCURVE",
"67.333 38.333 OFFCURVE",
"34 33 CURVE",
"31.333 33 OFFCURVE",
"30 27 OFFCURVE",
"30 15 CURVE SMOOTH",
"30 7.667 OFFCURVE",
"30.667 1.333 OFFCURVE",
"32 -4 CURVE",
"62.355 -2.214 OFFCURVE",
"130.215 4 OFFCURVE",
"156 4 CURVE SMOOTH",
"192 4 OFFCURVE",
"263.333 -2.667 OFFCURVE",
"274 -4 CURVE",
"276.667 -1.333 OFFCURVE",
"278 5 OFFCURVE",
"278 15 CURVE SMOOTH",
"278 27 OFFCURVE",
"277.333 33 OFFCURVE",
"276 33 CURVE",
"272.667 33.667 OFFCURVE",
"267.833 34.5 OFFCURVE",
"261.5 35.5 CURVE SMOOTH",
"255.167 36.5 OFFCURVE",
"249.5 37.5 OFFCURVE",
"244.5 38.5 CURVE SMOOTH",
"234.5 40.5 OFFCURVE",
"224 41.667 OFFCURVE",
"212 59 CURVE",
"212 66.333 OFFCURVE",
"214.333 72.667 OFFCURVE",
"219 78 CURVE",
"276 150 LINE",
"344 71 LINE",
"345.333 68.333 OFFCURVE",
"346 66.333 OFFCURVE",
"346 65 CURVE SMOOTH",
"346 49 OFFCURVE",
"317.333 34.333 OFFCURVE",
"300 33 CURVE",
"297.333 33 OFFCURVE",
"296 24.667 OFFCURVE",
"296 8 CURVE SMOOTH",
"296 6.667 OFFCURVE",
"296.667 2.667 OFFCURVE",
"298 -4 CURVE",
"331.77 -2.223 OFFCURVE",
"407.161 4 OFFCURVE",
"436 4 CURVE SMOOTH",
"463.846 4 OFFCURVE",
"535.701 -2.206 OFFCURVE",
"568 -4 CURVE",
"570.667 -0.667 OFFCURVE",
"572 4 OFFCURVE",
"572 10 CURVE SMOOTH",
"572 24 OFFCURVE",
"570.667 31 OFFCURVE",
"568 31 CURVE",
"536.667 37 OFFCURVE",
"509.667 54.667 OFFCURVE",
"487 84 CURVE SMOOTH",
"367 235 LINE",
"364.333 237.667 OFFCURVE",
"363 241 OFFCURVE",
"363 245 CURVE SMOOTH",
"363 247 OFFCURVE",
"364 249.667 OFFCURVE",
"366 253 CURVE",
"480 378 LINE SMOOTH",
"492 391.333 OFFCURVE",
"521.667 400.667 OFFCURVE",
"569 406 CURVE",
"571 406 OFFCURVE",
"572 412.333 OFFCURVE",
"572 425 CURVE SMOOTH",
"572 433 OFFCURVE",
"571 439 OFFCURVE",
"569 443 CURVE",
"497.667 438.333 OFFCURVE",
"458.333 436 OFFCURVE",
"451 436 CURVE SMOOTH",
"444.333 436 OFFCURVE",
"402 438.333 OFFCURVE",
"324 443 CURVE",
"321.333 439.667 OFFCURVE",
"320 433.333 OFFCURVE",
"320 424 CURVE SMOOTH",
"320 412 OFFCURVE",
"321.333 406 OFFCURVE",
"324 406 CURVE SMOOTH",
"365.333 406 OFFCURVE",
"386 399 OFFCURVE",
"386 385 CURVE SMOOTH",
"386 369.901 OFFCURVE",
"335.656 311.777 OFFCURVE",
"322 293 CURVE",
"260 370 LINE SMOOTH",
"256.667 374 OFFCURVE",
"255 378 OFFCURVE",
"255 382 CURVE SMOOTH",
"255 395.333 OFFCURVE",
"281.333 406 OFFCURVE",
"300 406 CURVE SMOOTH",
"303.333 406 OFFCURVE",
"305 412.333 OFFCURVE",
"305 425 CURVE SMOOTH",
"305 433.667 OFFCURVE",
"304 439.667 OFFCURVE",
"302 443 CURVE",
"219.333 438.333 OFFCURVE",
"174.333 436 OFFCURVE",
"167 436 CURVE SMOOTH",
"158.333 436 OFFCURVE",
"112.667 438.333 OFFCURVE",
"30 443 CURVE",
"28 439 OFFCURVE",
"27 433 OFFCURVE",
"27 425 CURVE SMOOTH",
"27 411.667 OFFCURVE",
"28.667 405 OFFCURVE",
"32 405 CURVE SMOOTH"
);
}
);
width = 605;
}
);
note = x;
unicode = 0078;
},
{
glyphname = y;
lastChange = "2018-03-09 10:42:30 +0000";
layers = (
{
background = {
paths = (
{
closed = 1;
nodes = (
"4 441 OFFCURVE",
"4 421 QCURVE SMOOTH",
"4 406 OFFCURVE",
"8 406 QCURVE SMOOTH",
"23 406 OFFCURVE",
"64 389 OFFCURVE",
"74 368 QCURVE",
"79 356 LINE",
"228 26 LINE",
"220 9 OFFCURVE",
"197 -40 QCURVE SMOOTH",
"159 -118 OFFCURVE",
"32 -118 QCURVE",
"9 -134 OFFCURVE",
"9 -165 QCURVE SMOOTH",
"9 -186 OFFCURVE",
"46 -218 OFFCURVE",
"76 -218 QCURVE SMOOTH",
"187 -218 OFFCURVE",
"270 -37 QCURVE SMOOTH",
"456 366 LINE SMOOTH",
"466 386 OFFCURVE",
"525 406 OFFCURVE",
"540 406 QCURVE SMOOTH",
"544 406 OFFCURVE",
"544 426 QCURVE SMOOTH",
"544 435 OFFCURVE",
"540 443 QCURVE",
"524 442 OFFCURVE",
"454 435 OFFCURVE",
"433 435 QCURVE SMOOTH",
"409 435 OFFCURVE",
"314 442 OFFCURVE",
"302 443 QCURVE",
"300 437 OFFCURVE",
"300 424 QCURVE SMOOTH",
"300 406 OFFCURVE",
"304 406 QCURVE SMOOTH",
"330 406 OFFCURVE",
"364 390 OFFCURVE",
"375 374 OFFCURVE",
"375 368 QCURVE SMOOTH",
"375 352 OFFCURVE",
"369 338 QCURVE SMOOTH",
"363 323 OFFCURVE",
"295 176 QCURVE",
"219 355 OFFCURVE",
"217 371 QCURVE SMOOTH",
"216 380 LINE",
"216 390 OFFCURVE",
"265 406 OFFCURVE",
"278 406 QCURVE SMOOTH",
"282 406 OFFCURVE",
"282 422 QCURVE SMOOTH",
"282 434 OFFCURVE",
"279 443 QCURVE",
"268 442 OFFCURVE",
"170 435 OFFCURVE",
"148 435 QCURVE SMOOTH",
"124 435 OFFCURVE",
"14 443 OFFCURVE",
"6 443 QCURVE"
);
}
);
};
layerId = "6D340022-02C4-426D-A0D8-A7BFACBEB22E";
paths = (
{
closed = 1;
nodes = (
"4.667 441.667 OFFCURVE",
"4 434.333 OFFCURVE",
"4 421 CURVE SMOOTH",
"4 411 OFFCURVE",
"5.333 406 OFFCURVE",
"8 406 CURVE SMOOTH",
"28 406 OFFCURVE",
"60.667 396 OFFCURVE",
"74 368 CURVE",
"79 356 LINE",
"228 26 LINE",
"222.667 14.667 OFFCURVE",
"212.333 -7.333 OFFCURVE",
"197 -40 CURVE SMOOTH",
"171.667 -92 OFFCURVE",
"116.667 -118 OFFCURVE",
"32 -118 CURVE",
"16.667 -128.667 OFFCURVE",
"9 -144.333 OFFCURVE",
"9 -165 CURVE SMOOTH",
"9 -193 OFFCURVE",
"36 -218 OFFCURVE",
"76 -218 CURVE SMOOTH",
"150 -218 OFFCURVE",
"214.667 -157.667 OFFCURVE",
"270 -37 CURVE SMOOTH",
"456 366 LINE SMOOTH",
"469.333 392.667 OFFCURVE",
"520 406 OFFCURVE",
"540 406 CURVE SMOOTH",
"542.667 406 OFFCURVE",
"544 412.667 OFFCURVE",
"544 426 CURVE SMOOTH",
"544 432 OFFCURVE",
"542.667 437.667 OFFCURVE",
"540 443 CURVE",
"529.333 442.333 OFFCURVE",
"512.333 440.833 OFFCURVE",
"489 438.5 CURVE SMOOTH",
"465.667 436.167 OFFCURVE",
"447 435 OFFCURVE",
"433 435 CURVE SMOOTH",
"401 435 OFFCURVE",
"318 441.667 OFFCURVE",
"302 443 CURVE",
"300.667 439 OFFCURVE",
"300 432.667 OFFCURVE",
"300 424 CURVE SMOOTH",
"300 412 OFFCURVE",
"301.333 406 OFFCURVE",
"304 406 CURVE SMOOTH",
"343.594 406 OFFCURVE",
"375 386.862 OFFCURVE",
"375 368 CURVE SMOOTH",
"375 357.333 OFFCURVE",
"373 347.333 OFFCURVE",
"369 338 CURVE SMOOTH",
"365 328 OFFCURVE",
"340.333 274 OFFCURVE",
"295 176 CURVE",
"244.333 295.333 OFFCURVE",
"218.333 360.333 OFFCURVE",
"217 371 CURVE SMOOTH",
"216 380 LINE",
"216 393.333 OFFCURVE",
"260.667 406 OFFCURVE",
"278 406 CURVE SMOOTH",
"280.667 406 OFFCURVE",
"282 411.333 OFFCURVE",
"282 422 CURVE SMOOTH",
"282 430 OFFCURVE",
"281 437 OFFCURVE",
"279 443 CURVE",
"264.333 441.667 OFFCURVE",
"177.333 435 OFFCURVE",
"148 435 CURVE SMOOTH",
"132 435 OFFCURVE",
"105.667 436.333 OFFCURVE",
"69 439 CURVE SMOOTH",
"32.333 441.667 OFFCURVE",
"11.333 443 OFFCURVE",
"6 443 CURVE"
);
}
);
width = 544;
}
);
note = y;
unicode = 0079;
},
{
glyphname = z;
lastChange = "2018-03-09 10:42:30 +0000";
layers = (
{
background = {
paths = (
{
closed = 1;
nodes = (
"399 408 LINE",
"399 427 OFFCURVE",
"396 432 QCURVE",
"330 424 OFFCURVE",
"267 424 QCURVE SMOOTH",
"145 424 LINE SMOOTH",
"109 424 OFFCURVE",
"50 430 QCURVE",
"48 400 OFFCURVE",
"34 301 OFFCURVE",
"34 296 QCURVE SMOOTH",
"34 294 OFFCURVE",
"46 294 QCURVE SMOOTH",
"68 294 OFFCURVE",
"71 300 QCURVE",
"81 323 OFFCURVE",
"132 371 OFFCURVE",
"169 370 QCURVE SMOOTH",
"230 369 LINE",
"26 27 LINE",
"25 26 OFFCURVE",
"25 23 QCURVE SMOOTH",
"25 12 OFFCURVE",
"45 0 QCURVE",
"387 0 LINE",
"404 135 LINE",
"400 139 OFFCURVE",
"393 139 QCURVE SMOOTH",
"369 139 OFFCURVE",
"366 130 QCURVE",
"337 54 OFFCURVE",
"258 54 QCURVE SMOOTH",
"196 54 LINE SMOOTH",
"184 54 OFFCURVE",
"184 61 QCURVE SMOOTH",
"184 65 OFFCURVE",
"191 75 QCURVE"
);
}
);
};
layerId = "6D340022-02C4-426D-A0D8-A7BFACBEB22E";
paths = (
{
closed = 1;
nodes = (
"399 408 LINE",
"399 420.667 OFFCURVE",
"398 428.667 OFFCURVE",
"396 432 CURVE",
"352 426.667 OFFCURVE",
"309 424 OFFCURVE",
"267 424 CURVE SMOOTH",
"145 424 LINE SMOOTH",
"121 424 OFFCURVE",
"89.333 426 OFFCURVE",
"50 430 CURVE",
"48.667 410 OFFCURVE",
"45.667 383.5 OFFCURVE",
"41 350.5 CURVE SMOOTH",
"36.333 317.5 OFFCURVE",
"34 299.333 OFFCURVE",
"34 296 CURVE SMOOTH",
"34 294.667 OFFCURVE",
"38 294 OFFCURVE",
"46 294 CURVE SMOOTH",
"60.667 294 OFFCURVE",
"69 296 OFFCURVE",
"71 300 CURVE",
"84.333 330.667 OFFCURVE",
"119.667 371.333 OFFCURVE",
"169 370 CURVE SMOOTH",
"230 369 LINE",
"26 27 LINE",
"25.333 26.333 OFFCURVE",
"25 25 OFFCURVE",
"25 23 CURVE SMOOTH",
"25 15.667 OFFCURVE",
"31.667 8 OFFCURVE",
"45 0 CURVE",
"387 0 LINE",
"404 135 LINE",
"401.333 137.667 OFFCURVE",
"397.667 139 OFFCURVE",
"393 139 CURVE SMOOTH",
"377 139 OFFCURVE",
"368 136 OFFCURVE",
"366 130 CURVE",
"346.667 79.333 OFFCURVE",
"310.667 54 OFFCURVE",
"258 54 CURVE SMOOTH",
"196 54 LINE SMOOTH",
"188 54 OFFCURVE",
"184 56.333 OFFCURVE",
"184 61 CURVE SMOOTH",
"184 63.667 OFFCURVE",
"186.333 68.333 OFFCURVE",
"191 75 CURVE"
);
}
);
width = 430;
}
);
note = z;
unicode = 007A;
},
{
glyphname = Aogonek;
lastChange = "2018-03-09 10:42:30 +0000";
layers = (
{
background = {
paths = (
{
closed = 1;
nodes = (
"411 275 OFFCURVE",
"411 275 QCURVE",
"380 273 OFFCURVE",
"339 273 QCURVE SMOOTH",
"296 273 OFFCURVE",
"266 276 QCURVE",
"264 276 OFFCURVE",
"264 280 QCURVE",
"342 458 LINE",
"414 280 LINE"
);
},
{
closed = 1;
nodes = (
"93 71 LINE",
"86 59 OFFCURVE",
"20 32 OFFCURVE",
"8 32 QCURVE SMOOTH",
"6 32 OFFCURVE",
"6 11 QCURVE SMOOTH",
"6 0 OFFCURVE",
"10 -4 QCURVE",
"28 -3 OFFCURVE",
"102 4 OFFCURVE",
"154 4 OFFCURVE",
"248 -3 OFFCURVE",
"258 -4 QCURVE",
"260 2 OFFCURVE",
"260 32 OFFCURVE",
"257 33 QCURVE",
"250 33 OFFCURVE",
"201 44 OFFCURVE",
"191 49 QCURVE SMOOTH",
"178 56 OFFCURVE",
"178 70 QCURVE SMOOTH",
"178 86 OFFCURVE",
"198 131 QCURVE SMOOTH",
"231 207 LINE",
"234 212 OFFCURVE",
"238 212 QCURVE SMOOTH",
"273 213 OFFCURVE",
"339 213 QCURVE SMOOTH",
"418 213 OFFCURVE",
"437 212 QCURVE",
"440 212 OFFCURVE",
"444 208 QCURVE",
"473 134 LINE SMOOTH",
"497 72 OFFCURVE",
"497 60 OFFCURVE",
"494 55 QCURVE",
"489 48 OFFCURVE",
"440 33 OFFCURVE",
"429 33 QCURVE SMOOTH",
"425 33 OFFCURVE",
"425 0 OFFCURVE",
"429 -4 QCURVE",
"555 3 OFFCURVE",
"579 3 QCURVE",
"532 -11 OFFCURVE",
"445 -100 OFFCURVE",
"445 -140 QCURVE SMOOTH",
"445 -176 OFFCURVE",
"497 -218 OFFCURVE",
"526 -218 QCURVE SMOOTH",
"563 -218 OFFCURVE",
"632 -171 OFFCURVE",
"649 -149 QCURVE SMOOTH",
"655 -141 OFFCURVE",
"655 -127 QCURVE SMOOTH",
"655 -109 OFFCURVE",
"650 -109 QCURVE",
"638 -119 OFFCURVE",
"589 -142 OFFCURVE",
"570 -142 QCURVE SMOOTH",
"553 -142 OFFCURVE",
"529 -125 OFFCURVE",
"529 -110 QCURVE SMOOTH",
"529 -54 OFFCURVE",
"623 2 QCURVE",
"632 1 OFFCURVE",
"699 -3 OFFCURVE",
"714 -4 QCURVE",
"716 -1 OFFCURVE",
"716 33 OFFCURVE",
"712 33 QCURVE SMOOTH",
"699 33 OFFCURVE",
"648 50 OFFCURVE",
"641 66 QCURVE SMOOTH",
"625 103 OFFCURVE",
"610 141 QCURVE SMOOTH",
"389 659 LINE",
"384 667 OFFCURVE",
"374 667 QCURVE SMOOTH",
"368 667 OFFCURVE",
"355 656 OFFCURVE",
"342 633 OFFCURVE",
"334 618 OFFCURVE",
"321 588 OFFCURVE",
"320 586 QCURVE",
"122 134 LINE"
);
}
);
};
layerId = "6D340022-02C4-426D-A0D8-A7BFACBEB22E";
paths = (
{
closed = 1;
nodes = (
"412 276.667 OFFCURVE",
"411 275 OFFCURVE",
"411 275 CURVE",
"390.333 273.667 OFFCURVE",
"366.333 273 OFFCURVE",
"339 273 CURVE SMOOTH",
"310.333 273 OFFCURVE",
"286 274 OFFCURVE",
"266 276 CURVE",
"264.667 276 OFFCURVE",
"264 277.333 OFFCURVE",
"264 280 CURVE",
"342 458 LINE",
"414 280 LINE"
);
},
{
closed = 1;
nodes = (
"93 71 LINE",
"83.667 55 OFFCURVE",
"24 32 OFFCURVE",
"8 32 CURVE SMOOTH",
"6.667 32 OFFCURVE",
"6 25 OFFCURVE",
"6 11 CURVE SMOOTH",
"6 3.667 OFFCURVE",
"7.333 -1.333 OFFCURVE",
"10 -4 CURVE",
"40.247 -2.32 OFFCURVE",
"91.259 4 OFFCURVE",
"128 4 CURVE SMOOTH",
"162.667 4 OFFCURVE",
"244.667 -2.667 OFFCURVE",
"258 -4 CURVE",
"259.333 0 OFFCURVE",
"260 7 OFFCURVE",
"260 17 CURVE SMOOTH",
"260 27 OFFCURVE",
"259 32.333 OFFCURVE",
"257 33 CURVE",
"247.667 33 OFFCURVE",
"204.333 42.333 OFFCURVE",
"191 49 CURVE SMOOTH",
"182.333 53.667 OFFCURVE",
"178 60.667 OFFCURVE",
"178 70 CURVE SMOOTH",
"178 80.667 OFFCURVE",
"184.667 101 OFFCURVE",
"198 131 CURVE SMOOTH",
"231 207 LINE",
"233 210.333 OFFCURVE",
"235.333 212 OFFCURVE",
"238 212 CURVE SMOOTH",
"261.333 212.667 OFFCURVE",
"295 213 OFFCURVE",
"339 213 CURVE SMOOTH",
"391.667 213 OFFCURVE",
"424.333 212.667 OFFCURVE",
"437 212 CURVE",
"439 212 OFFCURVE",
"441.333 210.667 OFFCURVE",
"444 208 CURVE",
"473 134 LINE SMOOTH",
"489 92.667 OFFCURVE",
"497 70 OFFCURVE",
"497 66 CURVE SMOOTH",
"497 62 OFFCURVE",
"496 58.333 OFFCURVE",
"494 55 CURVE",
"487.333 45.667 OFFCURVE",
"443.667 33 OFFCURVE",
"429 33 CURVE SMOOTH",
"426.333 33 OFFCURVE",
"425 27.5 OFFCURVE",
"425 16.5 CURVE SMOOTH",
"425 5.5 OFFCURVE",
"426.333 -1.333 OFFCURVE",
"429 -4 CURVE",
"513 0.667 OFFCURVE",
"563 3 OFFCURVE",
"579 3 CURVE",
"516.333 -15.667 OFFCURVE",
"445 -86.667 OFFCURVE",
"445 -140 CURVE SMOOTH",
"445 -188 OFFCURVE",
"487.333 -218 OFFCURVE",
"526 -218 CURVE SMOOTH",
"575.333 -218 OFFCURVE",
"626.333 -178.333 OFFCURVE",
"649 -149 CURVE SMOOTH",
"653 -143.667 OFFCURVE",
"655 -136.333 OFFCURVE",
"655 -127 CURVE SMOOTH",
"655 -115 OFFCURVE",
"653.333 -109 OFFCURVE",
"650 -109 CURVE",
"634 -122.333 OFFCURVE",
"595.333 -142 OFFCURVE",
"570 -142 CURVE SMOOTH",
"547.333 -142 OFFCURVE",
"529 -130 OFFCURVE",
"529 -110 CURVE SMOOTH",
"529 -72.667 OFFCURVE",
"560.333 -35.333 OFFCURVE",
"623 2 CURVE",
"629 1.333 OFFCURVE",
"643.167 0.333 OFFCURVE",
"665.5 -1 CURVE SMOOTH",
"687.833 -2.333 OFFCURVE",
"704 -3.333 OFFCURVE",
"714 -4 CURVE",
"715.333 -2 OFFCURVE",
"716 4.667 OFFCURVE",
"716 16 CURVE SMOOTH",
"716 27.333 OFFCURVE",
"714.667 33 OFFCURVE",
"712 33 CURVE SMOOTH",
"694.667 33 OFFCURVE",
"650.333 44.667 OFFCURVE",
"641 66 CURVE SMOOTH",
"630.333 90.667 OFFCURVE",
"620 115.667 OFFCURVE",
"610 141 CURVE SMOOTH",
"389 659 LINE",
"385.667 664.333 OFFCURVE",
"380.667 667 OFFCURVE",
"374 667 CURVE SMOOTH",
"366 667 OFFCURVE",
"357.167 659.833 OFFCURVE",
"348.5 644.5 CURVE SMOOTH",
"344.167 636.833 OFFCURVE",
"340.667 630.5 OFFCURVE",
"338 625.5 CURVE SMOOTH",
"335.333 620.5 OFFCURVE",
"329.333 607.333 OFFCURVE",
"320 586 CURVE SMOOTH",
"122 134 LINE"
);
}
);
width = 721;
}
);
note = Aogonek;
unicode = 0104;
},
